<?xml version="1.0" encoding="UTF-8"?>
<svg xmlns="http://www.w3.org/2000/svg" xmlns:xlink="http://www.w3.org/1999/xlink" version="1.2" >
<font id="OffBitTrial-LineBold" horiz-adv-x="524">
<font-face  font-family="OffBit Trial" units-per-em="1000" ascent="750" descent="-250" font-style="normal" font-weight="700" font-stretch="normal" cap-height="700" x-height="500" underline-position="-100" underline-thickness="50" />
<missing-glyph horiz-adv-x="500" />
<glyph glyph-name="null" horiz-adv-x="0" />
<glyph glyph-name="uni000D" unicode="&#xd;" horiz-adv-x="250" />
<glyph glyph-name="space" unicode="&#x20;" horiz-adv-x="300" />
<glyph glyph-name="zero" unicode="0" horiz-adv-x="648" d="M122 54 Q122 41 108 41 Q95 41 95 54 L95 648 Q95 662 108 662 Q122 662 122 648 L122 54 Z M554 54 Q554 41 540 41 Q527 41 527 54 L527 648 Q527 662 540 662 Q554 662 554 648 L554 54 Z M68 108 Q68 95 54 95 Q41 95 41 108 L41 594 Q41 608 54 608 Q68 608 68 594 L68 108 Z M608 108 Q608 95 594 95 Q581 95 581 108 L581 594 Q581 608 594 608 Q608 608 608 594 L608 108 Z M500 432 Q500 419 486 419 Q473 419 473 432 L473 702 Q473 716 486 716 Q500 716 500 702 L500 432 Z M176 0 Q176 -13 162 -13 Q149 -13 149 0 L149 270 Q149 284 162 284 Q176 284 176 270 L176 0 Z M338 270 Q338 257 324 257 Q311 257 311 270 L311 432 Q311 446 324 446 Q338 446 338 432 L338 270 Z M392 324 Q392 311 378 311 Q365 311 365 324 L365 486 Q365 500 378 500 Q392 500 392 486 L392 324 Z M230 162 Q230 149 216 149 Q203 149 203 162 L203 324 Q203 338 216 338 Q230 338 230 324 L230 162 Z M446 378 Q446 365 432 365 Q419 365 419 378 L419 540 Q419 554 432 554 Q446 554 446 540 L446 378 Z M284 216 Q284 203 270 203 Q257 203 257 216 L257 378 Q257 392 270 392 Q284 392 284 378 L284 216 Z M176 540 Q176 527 162 527 Q149 527 149 540 L149 702 Q149 716 162 716 Q176 716 176 702 L176 540 Z M500 0 Q500 -13 486 -13 Q473 -13 473 0 L473 162 Q473 176 486 176 Q500 176 500 162 L500 0 Z M284 594 Q284 581 270 581 Q257 581 257 594 L257 702 Q257 716 270 716 Q284 716 284 702 L284 594 Z M230 594 Q230 581 216 581 Q203 581 203 594 L203 702 Q203 716 216 716 Q230 716 230 702 L230 594 Z M338 594 Q338 581 324 581 Q311 581 311 594 L311 702 Q311 716 324 716 Q338 716 338 702 L338 594 Z M392 594 Q392 581 378 581 Q365 581 365 594 L365 702 Q365 716 378 716 Q392 716 392 702 L392 594 Z M446 594 Q446 581 432 581 Q419 581 419 594 L419 702 Q419 716 432 716 Q446 716 446 702 L446 594 Z M230 0 Q230 -13 216 -13 Q203 -13 203 0 L203 108 Q203 122 216 122 Q230 122 230 108 L230 0 Z M392 0 Q392 -13 378 -13 Q365 -13 365 0 L365 108 Q365 122 378 122 Q392 122 392 108 L392 0 Z M284 0 Q284 -13 270 -13 Q257 -13 257 0 L257 108 Q257 122 270 122 Q284 122 284 108 L284 0 Z M446 0 Q446 -13 432 -13 Q419 -13 419 0 L419 108 Q419 122 432 122 Q446 122 446 108 L446 0 Z M338 0 Q338 -13 324 -13 Q311 -13 311 0 L311 108 Q311 122 324 122 Q338 122 338 108 L338 0 Z " />
<glyph glyph-name="one" unicode="1" horiz-adv-x="378" d="M176 0 Q176 -13 162 -13 Q149 -13 149 0 L149 702 Q149 716 162 716 Q176 716 176 702 L176 0 Z M230 0 Q230 -13 216 -13 Q203 -13 203 0 L203 702 Q203 716 216 716 Q230 716 230 702 L230 0 Z M122 540 Q122 527 108 527 Q95 527 95 540 L95 648 Q95 662 108 662 Q122 662 122 648 L122 540 Z M68 486 Q68 473 54 473 Q41 473 41 486 L41 594 Q41 608 54 608 Q68 608 68 594 L68 486 Z M68 0 Q68 -13 54 -13 Q41 -13 41 0 L41 108 Q41 122 54 122 Q68 122 68 108 L68 0 Z M338 0 Q338 -13 324 -13 Q311 -13 311 0 L311 108 Q311 122 324 122 Q338 122 338 108 L338 0 Z M122 0 Q122 -13 108 -13 Q95 -13 95 0 L95 108 Q95 122 108 122 Q122 122 122 108 L122 0 Z M284 0 Q284 -13 270 -13 Q257 -13 257 0 L257 108 Q257 122 270 122 Q284 122 284 108 L284 0 Z " />
<glyph glyph-name="two" unicode="2" horiz-adv-x="594" d="M500 378 Q500 365 486 365 Q473 365 473 378 L473 648 Q473 662 486 662 Q500 662 500 648 L500 378 Z M230 0 Q230 -13 216 -13 Q203 -13 203 0 L203 270 Q203 284 216 284 Q230 284 230 270 L230 0 Z M122 432 Q122 419 108 419 Q95 419 95 432 L95 648 Q95 662 108 662 Q122 662 122 648 L122 432 Z M176 0 Q176 -13 162 -13 Q149 -13 149 0 L149 216 Q149 230 162 230 Q176 230 176 216 L176 0 Z M446 324 Q446 311 432 311 Q419 311 419 324 L419 486 Q419 500 432 500 Q446 500 446 486 L446 324 Z M68 432 Q68 419 54 419 Q41 419 41 432 L41 594 Q41 608 54 608 Q68 608 68 594 L68 432 Z M284 162 Q284 149 270 149 Q257 149 257 162 L257 324 Q257 338 270 338 Q284 338 284 324 L284 162 Z M176 540 Q176 527 162 527 Q149 527 149 540 L149 702 Q149 716 162 716 Q176 716 176 702 L176 540 Z M446 540 Q446 527 432 527 Q419 527 419 540 L419 702 Q419 716 432 716 Q446 716 446 702 L446 540 Z M338 216 Q338 203 324 203 Q311 203 311 216 L311 378 Q311 392 324 392 Q338 392 338 378 L338 216 Z M392 270 Q392 257 378 257 Q365 257 365 270 L365 432 Q365 446 378 446 Q392 446 392 432 L392 270 Z M554 432 Q554 419 540 419 Q527 419 527 432 L527 594 Q527 608 540 608 Q554 608 554 594 L554 432 Z M122 0 Q122 -13 108 -13 Q95 -13 95 0 L95 162 Q95 176 108 176 Q122 176 122 162 L122 0 Z M284 594 Q284 581 270 581 Q257 581 257 594 L257 702 Q257 716 270 716 Q284 716 284 702 L284 594 Z M230 594 Q230 581 216 581 Q203 581 203 594 L203 702 Q203 716 216 716 Q230 716 230 702 L230 594 Z M338 594 Q338 581 324 581 Q311 581 311 594 L311 702 Q311 716 324 716 Q338 716 338 702 L338 594 Z M392 594 Q392 581 378 581 Q365 581 365 594 L365 702 Q365 716 378 716 Q392 716 392 702 L392 594 Z M68 0 Q68 -13 54 -13 Q41 -13 41 0 L41 108 Q41 122 54 122 Q68 122 68 108 L68 0 Z M446 0 Q446 -13 432 -13 Q419 -13 419 0 L419 108 Q419 122 432 122 Q446 122 446 108 L446 0 Z M338 0 Q338 -13 324 -13 Q311 -13 311 0 L311 108 Q311 122 324 122 Q338 122 338 108 L338 0 Z M392 0 Q392 -13 378 -13 Q365 -13 365 0 L365 108 Q365 122 378 122 Q392 122 392 108 L392 0 Z M284 0 Q284 -13 270 -13 Q257 -13 257 0 L257 108 Q257 122 270 122 Q284 122 284 108 L284 0 Z M500 0 Q500 -13 486 -13 Q473 -13 473 0 L473 108 Q473 122 486 122 Q500 122 500 108 L500 0 Z M554 0 Q554 -13 540 -13 Q527 -13 527 0 L527 108 Q527 122 540 122 Q554 122 554 108 L554 0 Z " />
<glyph glyph-name="three" unicode="3" horiz-adv-x="540" d="M446 54 Q446 41 432 41 Q419 41 419 54 L419 324 Q419 338 432 338 Q446 338 446 324 L446 54 Z M392 216 Q392 203 378 203 Q365 203 365 216 L365 486 Q365 500 378 500 Q392 500 392 486 L392 216 Z M446 378 Q446 365 432 365 Q419 365 419 378 L419 648 Q419 662 432 662 Q446 662 446 648 L446 378 Z M122 486 Q122 473 108 473 Q95 473 95 486 L95 648 Q95 662 108 662 Q122 662 122 648 L122 486 Z M176 540 Q176 527 162 527 Q149 527 149 540 L149 702 Q149 716 162 716 Q176 716 176 702 L176 540 Z M122 54 Q122 41 108 41 Q95 41 95 54 L95 216 Q95 230 108 230 Q122 230 122 216 L122 54 Z M338 270 Q338 257 324 257 Q311 257 311 270 L311 432 Q311 446 324 446 Q338 446 338 432 L338 270 Z M392 540 Q392 527 378 527 Q365 527 365 540 L365 702 Q365 716 378 716 Q392 716 392 702 L392 540 Z M500 108 Q500 95 486 95 Q473 95 473 108 L473 270 Q473 284 486 284 Q500 284 500 270 L500 108 Z M500 432 Q500 419 486 419 Q473 419 473 432 L473 594 Q473 608 486 608 Q500 608 500 594 L500 432 Z M392 0 Q392 -13 378 -13 Q365 -13 365 0 L365 162 Q365 176 378 176 Q392 176 392 162 L392 0 Z M176 0 Q176 -13 162 -13 Q149 -13 149 0 L149 162 Q149 176 162 176 Q176 176 176 162 L176 0 Z M230 324 Q230 311 216 311 Q203 311 203 324 L203 432 Q203 446 216 446 Q230 446 230 432 L230 324 Z M68 108 Q68 95 54 95 Q41 95 41 108 L41 216 Q41 230 54 230 Q68 230 68 216 L68 108 Z M68 486 Q68 473 54 473 Q41 473 41 486 L41 594 Q41 608 54 608 Q68 608 68 594 L68 486 Z M284 594 Q284 581 270 581 Q257 581 257 594 L257 702 Q257 716 270 716 Q284 716 284 702 L284 594 Z M230 594 Q230 581 216 581 Q203 581 203 594 L203 702 Q203 716 216 716 Q230 716 230 702 L230 594 Z M338 594 Q338 581 324 581 Q311 581 311 594 L311 702 Q311 716 324 716 Q338 716 338 702 L338 594 Z M176 324 Q176 311 162 311 Q149 311 149 324 L149 432 Q149 446 162 446 Q176 446 176 432 L176 324 Z M284 324 Q284 311 270 311 Q257 311 257 324 L257 432 Q257 446 270 446 Q284 446 284 432 L284 324 Z M230 0 Q230 -13 216 -13 Q203 -13 203 0 L203 108 Q203 122 216 122 Q230 122 230 108 L230 0 Z M284 0 Q284 -13 270 -13 Q257 -13 257 0 L257 108 Q257 122 270 122 Q284 122 284 108 L284 0 Z M338 0 Q338 -13 324 -13 Q311 -13 311 0 L311 108 Q311 122 324 122 Q338 122 338 108 L338 0 Z " />
<glyph glyph-name="four" unicode="4" horiz-adv-x="702" d="M500 0 Q500 -13 486 -13 Q473 -13 473 0 L473 702 Q473 716 486 716 Q500 716 500 702 L500 0 Z M554 0 Q554 -13 540 -13 Q527 -13 527 0 L527 702 Q527 716 540 716 Q554 716 554 702 L554 0 Z M230 162 Q230 149 216 149 Q203 149 203 162 L203 432 Q203 446 216 446 Q230 446 230 432 L230 162 Z M176 162 Q176 149 162 149 Q149 149 149 162 L149 378 Q149 392 162 392 Q176 392 176 378 L176 162 Z M446 486 Q446 473 432 473 Q419 473 419 486 L419 648 Q419 662 432 662 Q446 662 446 648 L446 486 Z M284 324 Q284 311 270 311 Q257 311 257 324 L257 486 Q257 500 270 500 Q284 500 284 486 L284 324 Z M122 162 Q122 149 108 149 Q95 149 95 162 L95 324 Q95 338 108 338 Q122 338 122 324 L122 162 Z M338 378 Q338 365 324 365 Q311 365 311 378 L311 540 Q311 554 324 554 Q338 554 338 540 L338 378 Z M392 432 Q392 419 378 419 Q365 419 365 432 L365 594 Q365 608 378 608 Q392 608 392 594 L392 432 Z M68 162 Q68 149 54 149 Q41 149 41 162 L41 270 Q41 284 54 284 Q68 284 68 270 L68 162 Z M338 162 Q338 149 324 149 Q311 149 311 162 L311 270 Q311 284 324 284 Q338 284 338 270 L338 162 Z M608 162 Q608 149 594 149 Q581 149 581 162 L581 270 Q581 284 594 284 Q608 284 608 270 L608 162 Z M662 162 Q662 149 648 149 Q635 149 635 162 L635 270 Q635 284 648 284 Q662 284 662 270 L662 162 Z M392 162 Q392 149 378 149 Q365 149 365 162 L365 270 Q365 284 378 284 Q392 284 392 270 L392 162 Z M284 162 Q284 149 270 149 Q257 149 257 162 L257 270 Q257 284 270 284 Q284 284 284 270 L284 162 Z M446 162 Q446 149 432 149 Q419 149 419 162 L419 270 Q419 284 432 284 Q446 284 446 270 L446 162 Z " />
<glyph glyph-name="five" unicode="5" horiz-adv-x="594" d="M122 270 Q122 257 108 257 Q95 257 95 270 L95 702 Q95 716 108 716 Q122 716 122 702 L122 270 Z M68 270 Q68 257 54 257 Q41 257 41 270 L41 594 Q41 608 54 608 Q68 608 68 594 L68 270 Z M500 54 Q500 41 486 41 Q473 41 473 54 L473 378 Q473 392 486 392 Q500 392 500 378 L500 54 Z M554 108 Q554 95 540 95 Q527 95 527 108 L527 324 Q527 338 540 338 Q554 338 554 324 L554 108 Z M122 54 Q122 41 108 41 Q95 41 95 54 L95 216 Q95 230 108 230 Q122 230 122 216 L122 54 Z M176 270 Q176 257 162 257 Q149 257 149 270 L149 432 Q149 446 162 446 Q176 446 176 432 L176 270 Z M176 540 Q176 527 162 527 Q149 527 149 540 L149 702 Q149 716 162 716 Q176 716 176 702 L176 540 Z M446 270 Q446 257 432 257 Q419 257 419 270 L419 432 Q419 446 432 446 Q446 446 446 432 L446 270 Z M176 0 Q176 -13 162 -13 Q149 -13 149 0 L149 162 Q149 176 162 176 Q176 176 176 162 L176 0 Z M446 0 Q446 -13 432 -13 Q419 -13 419 0 L419 162 Q419 176 432 176 Q446 176 446 162 L446 0 Z M230 324 Q230 311 216 311 Q203 311 203 324 L203 432 Q203 446 216 446 Q230 446 230 432 L230 324 Z M338 324 Q338 311 324 311 Q311 311 311 324 L311 432 Q311 446 324 446 Q338 446 338 432 L338 324 Z M500 594 Q500 581 486 581 Q473 581 473 594 L473 702 Q473 716 486 716 Q500 716 500 702 L500 594 Z M392 324 Q392 311 378 311 Q365 311 365 324 L365 432 Q365 446 378 446 Q392 446 392 432 L392 324 Z M68 108 Q68 95 54 95 Q41 95 41 108 L41 216 Q41 230 54 230 Q68 230 68 216 L68 108 Z M284 594 Q284 581 270 581 Q257 581 257 594 L257 702 Q257 716 270 716 Q284 716 284 702 L284 594 Z M230 594 Q230 581 216 581 Q203 581 203 594 L203 702 Q203 716 216 716 Q230 716 230 702 L230 594 Z M338 594 Q338 581 324 581 Q311 581 311 594 L311 702 Q311 716 324 716 Q338 716 338 702 L338 594 Z M392 594 Q392 581 378 581 Q365 581 365 594 L365 702 Q365 716 378 716 Q392 716 392 702 L392 594 Z M446 594 Q446 581 432 581 Q419 581 419 594 L419 702 Q419 716 432 716 Q446 716 446 702 L446 594 Z M284 324 Q284 311 270 311 Q257 311 257 324 L257 432 Q257 446 270 446 Q284 446 284 432 L284 324 Z M230 0 Q230 -13 216 -13 Q203 -13 203 0 L203 108 Q203 122 216 122 Q230 122 230 108 L230 0 Z M392 0 Q392 -13 378 -13 Q365 -13 365 0 L365 108 Q365 122 378 122 Q392 122 392 108 L392 0 Z M284 0 Q284 -13 270 -13 Q257 -13 257 0 L257 108 Q257 122 270 122 Q284 122 284 108 L284 0 Z M338 0 Q338 -13 324 -13 Q311 -13 311 0 L311 108 Q311 122 324 122 Q338 122 338 108 L338 0 Z " />
<glyph glyph-name="six" unicode="6" horiz-adv-x="540" d="M122 54 Q122 41 108 41 Q95 41 95 54 L95 648 Q95 662 108 662 Q122 662 122 648 L122 54 Z M68 108 Q68 95 54 95 Q41 95 41 108 L41 594 Q41 608 54 608 Q68 608 68 594 L68 108 Z M446 54 Q446 41 432 41 Q419 41 419 54 L419 378 Q419 392 432 392 Q446 392 446 378 L446 54 Z M500 108 Q500 95 486 95 Q473 95 473 108 L473 324 Q473 338 486 338 Q500 338 500 324 L500 108 Z M446 486 Q446 473 432 473 Q419 473 419 486 L419 648 Q419 662 432 662 Q446 662 446 648 L446 486 Z M176 540 Q176 527 162 527 Q149 527 149 540 L149 702 Q149 716 162 716 Q176 716 176 702 L176 540 Z M392 540 Q392 527 378 527 Q365 527 365 540 L365 702 Q365 716 378 716 Q392 716 392 702 L392 540 Z M392 270 Q392 257 378 257 Q365 257 365 270 L365 432 Q365 446 378 446 Q392 446 392 432 L392 270 Z M392 0 Q392 -13 378 -13 Q365 -13 365 0 L365 162 Q365 176 378 176 Q392 176 392 162 L392 0 Z M176 0 Q176 -13 162 -13 Q149 -13 149 0 L149 162 Q149 176 162 176 Q176 176 176 162 L176 0 Z M500 486 Q500 473 486 473 Q473 473 473 486 L473 594 Q473 608 486 608 Q500 608 500 594 L500 486 Z M284 324 Q284 311 270 311 Q257 311 257 324 L257 432 Q257 446 270 446 Q284 446 284 432 L284 324 Z M230 324 Q230 311 216 311 Q203 311 203 324 L203 432 Q203 446 216 446 Q230 446 230 432 L230 324 Z M338 324 Q338 311 324 311 Q311 311 311 324 L311 432 Q311 446 324 446 Q338 446 338 432 L338 324 Z M176 270 Q176 257 162 257 Q149 257 149 270 L149 378 Q149 392 162 392 Q176 392 176 378 L176 270 Z M284 594 Q284 581 270 581 Q257 581 257 594 L257 702 Q257 716 270 716 Q284 716 284 702 L284 594 Z M230 594 Q230 581 216 581 Q203 581 203 594 L203 702 Q203 716 216 716 Q230 716 230 702 L230 594 Z M338 594 Q338 581 324 581 Q311 581 311 594 L311 702 Q311 716 324 716 Q338 716 338 702 L338 594 Z M230 0 Q230 -13 216 -13 Q203 -13 203 0 L203 108 Q203 122 216 122 Q230 122 230 108 L230 0 Z M284 0 Q284 -13 270 -13 Q257 -13 257 0 L257 108 Q257 122 270 122 Q284 122 284 108 L284 0 Z M338 0 Q338 -13 324 -13 Q311 -13 311 0 L311 108 Q311 122 324 122 Q338 122 338 108 L338 0 Z " />
<glyph glyph-name="seven" unicode="7" horiz-adv-x="540" d="M230 0 Q230 -13 216 -13 Q203 -13 203 0 L203 324 Q203 338 216 338 Q230 338 230 324 L230 0 Z M284 162 Q284 149 270 149 Q257 149 257 162 L257 432 Q257 446 270 446 Q284 446 284 432 L284 162 Z M392 432 Q392 419 378 419 Q365 419 365 432 L365 702 Q365 716 378 716 Q392 716 392 702 L392 432 Z M338 324 Q338 311 324 311 Q311 311 311 324 L311 540 Q311 554 324 554 Q338 554 338 540 L338 324 Z M446 540 Q446 527 432 527 Q419 527 419 540 L419 702 Q419 716 432 716 Q446 716 446 702 L446 540 Z M176 0 Q176 -13 162 -13 Q149 -13 149 0 L149 162 Q149 176 162 176 Q176 176 176 162 L176 0 Z M230 594 Q230 581 216 581 Q203 581 203 594 L203 702 Q203 716 216 716 Q230 716 230 702 L230 594 Z M338 594 Q338 581 324 581 Q311 581 311 594 L311 702 Q311 716 324 716 Q338 716 338 702 L338 594 Z M500 594 Q500 581 486 581 Q473 581 473 594 L473 702 Q473 716 486 716 Q500 716 500 702 L500 594 Z M176 594 Q176 581 162 581 Q149 581 149 594 L149 702 Q149 716 162 716 Q176 716 176 702 L176 594 Z M122 594 Q122 581 108 581 Q95 581 95 594 L95 702 Q95 716 108 716 Q122 716 122 702 L122 594 Z M68 594 Q68 581 54 581 Q41 581 41 594 L41 702 Q41 716 54 716 Q68 716 68 702 L68 594 Z M284 594 Q284 581 270 581 Q257 581 257 594 L257 702 Q257 716 270 716 Q284 716 284 702 L284 594 Z " />
<glyph glyph-name="eight" unicode="8" horiz-adv-x="540" d="M122 54 Q122 41 108 41 Q95 41 95 54 L95 324 Q95 338 108 338 Q122 338 122 324 L122 54 Z M122 378 Q122 365 108 365 Q95 365 95 378 L95 648 Q95 662 108 662 Q122 662 122 648 L122 378 Z M446 378 Q446 365 432 365 Q419 365 419 378 L419 648 Q419 662 432 662 Q446 662 446 648 L446 378 Z M446 54 Q446 41 432 41 Q419 41 419 54 L419 324 Q419 338 432 338 Q446 338 446 324 L446 54 Z M176 270 Q176 257 162 257 Q149 257 149 270 L149 486 Q149 500 162 500 Q176 500 176 486 L176 270 Z M392 270 Q392 257 378 257 Q365 257 365 270 L365 486 Q365 500 378 500 Q392 500 392 486 L392 270 Z M68 108 Q68 95 54 95 Q41 95 41 108 L41 270 Q41 284 54 284 Q68 284 68 270 L68 108 Z M500 108 Q500 95 486 95 Q473 95 473 108 L473 270 Q473 284 486 284 Q500 284 500 270 L500 108 Z M500 432 Q500 419 486 419 Q473 419 473 432 L473 594 Q473 608 486 608 Q500 608 500 594 L500 432 Z M68 432 Q68 419 54 419 Q41 419 41 432 L41 594 Q41 608 54 608 Q68 608 68 594 L68 432 Z M176 540 Q176 527 162 527 Q149 527 149 540 L149 702 Q149 716 162 716 Q176 716 176 702 L176 540 Z M392 540 Q392 527 378 527 Q365 527 365 540 L365 702 Q365 716 378 716 Q392 716 392 702 L392 540 Z M392 0 Q392 -13 378 -13 Q365 -13 365 0 L365 162 Q365 176 378 176 Q392 176 392 162 L392 0 Z M176 0 Q176 -13 162 -13 Q149 -13 149 0 L149 162 Q149 176 162 176 Q176 176 176 162 L176 0 Z M230 324 Q230 311 216 311 Q203 311 203 324 L203 432 Q203 446 216 446 Q230 446 230 432 L230 324 Z M338 324 Q338 311 324 311 Q311 311 311 324 L311 432 Q311 446 324 446 Q338 446 338 432 L338 324 Z M284 594 Q284 581 270 581 Q257 581 257 594 L257 702 Q257 716 270 716 Q284 716 284 702 L284 594 Z M284 324 Q284 311 270 311 Q257 311 257 324 L257 432 Q257 446 270 446 Q284 446 284 432 L284 324 Z M230 594 Q230 581 216 581 Q203 581 203 594 L203 702 Q203 716 216 716 Q230 716 230 702 L230 594 Z M338 594 Q338 581 324 581 Q311 581 311 594 L311 702 Q311 716 324 716 Q338 716 338 702 L338 594 Z M338 0 Q338 -13 324 -13 Q311 -13 311 0 L311 108 Q311 122 324 122 Q338 122 338 108 L338 0 Z M230 0 Q230 -13 216 -13 Q203 -13 203 0 L203 108 Q203 122 216 122 Q230 122 230 108 L230 0 Z M284 0 Q284 -13 270 -13 Q257 -13 257 0 L257 108 Q257 122 270 122 Q284 122 284 108 L284 0 Z " />
<glyph glyph-name="nine" unicode="9" horiz-adv-x="540" d="M446 54 Q446 41 432 41 Q419 41 419 54 L419 648 Q419 662 432 662 Q446 662 446 648 L446 54 Z M500 108 Q500 95 486 95 Q473 95 473 108 L473 594 Q473 608 486 608 Q500 608 500 594 L500 108 Z M122 324 Q122 311 108 311 Q95 311 95 324 L95 648 Q95 662 108 662 Q122 662 122 648 L122 324 Z M68 378 Q68 365 54 365 Q41 365 41 378 L41 594 Q41 608 54 608 Q68 608 68 594 L68 378 Z M176 270 Q176 257 162 257 Q149 257 149 270 L149 432 Q149 446 162 446 Q176 446 176 432 L176 270 Z M176 540 Q176 527 162 527 Q149 527 149 540 L149 702 Q149 716 162 716 Q176 716 176 702 L176 540 Z M392 540 Q392 527 378 527 Q365 527 365 540 L365 702 Q365 716 378 716 Q392 716 392 702 L392 540 Z M122 54 Q122 41 108 41 Q95 41 95 54 L95 216 Q95 230 108 230 Q122 230 122 216 L122 54 Z M392 0 Q392 -13 378 -13 Q365 -13 365 0 L365 162 Q365 176 378 176 Q392 176 392 162 L392 0 Z M176 0 Q176 -13 162 -13 Q149 -13 149 0 L149 162 Q149 176 162 176 Q176 176 176 162 L176 0 Z M68 108 Q68 95 54 95 Q41 95 41 108 L41 216 Q41 230 54 230 Q68 230 68 216 L68 108 Z M392 324 Q392 311 378 311 Q365 311 365 324 L365 432 Q365 446 378 446 Q392 446 392 432 L392 324 Z M284 270 Q284 257 270 257 Q257 257 257 270 L257 378 Q257 392 270 392 Q284 392 284 378 L284 270 Z M230 270 Q230 257 216 257 Q203 257 203 270 L203 378 Q203 392 216 392 Q230 392 230 378 L230 270 Z M284 594 Q284 581 270 581 Q257 581 257 594 L257 702 Q257 716 270 716 Q284 716 284 702 L284 594 Z M338 270 Q338 257 324 257 Q311 257 311 270 L311 378 Q311 392 324 392 Q338 392 338 378 L338 270 Z M230 594 Q230 581 216 581 Q203 581 203 594 L203 702 Q203 716 216 716 Q230 716 230 702 L230 594 Z M338 594 Q338 581 324 581 Q311 581 311 594 L311 702 Q311 716 324 716 Q338 716 338 702 L338 594 Z M230 0 Q230 -13 216 -13 Q203 -13 203 0 L203 108 Q203 122 216 122 Q230 122 230 108 L230 0 Z M284 0 Q284 -13 270 -13 Q257 -13 257 0 L257 108 Q257 122 270 122 Q284 122 284 108 L284 0 Z M338 0 Q338 -13 324 -13 Q311 -13 311 0 L311 108 Q311 122 324 122 Q338 122 338 108 L338 0 Z " />
<glyph glyph-name="A" unicode="A" horiz-adv-x="702" d="M230 162 Q230 149 216 149 Q203 149 203 162 L203 540 Q203 554 216 554 Q230 554 230 540 L230 162 Z M500 162 Q500 149 486 149 Q473 149 473 162 L473 540 Q473 554 486 554 Q500 554 500 540 L500 162 Z M176 108 Q176 95 162 95 Q149 95 149 108 L149 378 Q149 392 162 392 Q176 392 176 378 L176 108 Z M554 108 Q554 95 540 95 Q527 95 527 108 L527 378 Q527 392 540 392 Q554 392 554 378 L554 108 Z M284 378 Q284 365 270 365 Q257 365 257 378 L257 648 Q257 662 270 662 Q284 662 284 648 L284 378 Z M446 378 Q446 365 432 365 Q419 365 419 378 L419 648 Q419 662 432 662 Q446 662 446 648 L446 378 Z M608 0 Q608 -13 594 -13 Q581 -13 581 0 L581 270 Q581 284 594 284 Q608 284 608 270 L608 0 Z M122 0 Q122 -13 108 -13 Q95 -13 95 0 L95 270 Q95 284 108 284 Q122 284 122 270 L122 0 Z M338 540 Q338 527 324 527 Q311 527 311 540 L311 702 Q311 716 324 716 Q338 716 338 702 L338 540 Z M392 540 Q392 527 378 527 Q365 527 365 540 L365 702 Q365 716 378 716 Q392 716 392 702 L392 540 Z M68 0 Q68 -13 54 -13 Q41 -13 41 0 L41 162 Q41 176 54 176 Q68 176 68 162 L68 0 Z M662 0 Q662 -13 648 -13 Q635 -13 635 0 L635 162 Q635 176 648 176 Q662 176 662 162 L662 0 Z M338 162 Q338 149 324 149 Q311 149 311 162 L311 270 Q311 284 324 284 Q338 284 338 270 L338 162 Z M392 162 Q392 149 378 149 Q365 149 365 162 L365 270 Q365 284 378 284 Q392 284 392 270 L392 162 Z M446 162 Q446 149 432 149 Q419 149 419 162 L419 270 Q419 284 432 284 Q446 284 446 270 L446 162 Z M284 162 Q284 149 270 149 Q257 149 257 162 L257 270 Q257 284 270 284 Q284 284 284 270 L284 162 Z " />
<glyph glyph-name="B" unicode="B" horiz-adv-x="594" d="M122 0 Q122 -13 108 -13 Q95 -13 95 0 L95 702 Q95 716 108 716 Q122 716 122 702 L122 0 Z M68 0 Q68 -13 54 -13 Q41 -13 41 0 L41 702 Q41 716 54 716 Q68 716 68 702 L68 0 Z M446 216 Q446 203 432 203 Q419 203 419 216 L419 648 Q419 662 432 662 Q446 662 446 648 L446 216 Z M500 54 Q500 41 486 41 Q473 41 473 54 L473 324 Q473 338 486 338 Q500 338 500 324 L500 54 Z M392 270 Q392 257 378 257 Q365 257 365 270 L365 432 Q365 446 378 446 Q392 446 392 432 L392 270 Z M554 108 Q554 95 540 95 Q527 95 527 108 L527 270 Q527 284 540 284 Q554 284 554 270 L554 108 Z M500 432 Q500 419 486 419 Q473 419 473 432 L473 594 Q473 608 486 608 Q500 608 500 594 L500 432 Z M392 540 Q392 527 378 527 Q365 527 365 540 L365 702 Q365 716 378 716 Q392 716 392 702 L392 540 Z M446 0 Q446 -13 432 -13 Q419 -13 419 0 L419 162 Q419 176 432 176 Q446 176 446 162 L446 0 Z M230 594 Q230 581 216 581 Q203 581 203 594 L203 702 Q203 716 216 716 Q230 716 230 702 L230 594 Z M338 594 Q338 581 324 581 Q311 581 311 594 L311 702 Q311 716 324 716 Q338 716 338 702 L338 594 Z M230 270 Q230 257 216 257 Q203 257 203 270 L203 378 Q203 392 216 392 Q230 392 230 378 L230 270 Z M338 270 Q338 257 324 257 Q311 257 311 270 L311 378 Q311 392 324 392 Q338 392 338 378 L338 270 Z M176 270 Q176 257 162 257 Q149 257 149 270 L149 378 Q149 392 162 392 Q176 392 176 378 L176 270 Z M284 270 Q284 257 270 257 Q257 257 257 270 L257 378 Q257 392 270 392 Q284 392 284 378 L284 270 Z M176 594 Q176 581 162 581 Q149 581 149 594 L149 702 Q149 716 162 716 Q176 716 176 702 L176 594 Z M284 594 Q284 581 270 581 Q257 581 257 594 L257 702 Q257 716 270 716 Q284 716 284 702 L284 594 Z M230 0 Q230 -13 216 -13 Q203 -13 203 0 L203 108 Q203 122 216 122 Q230 122 230 108 L230 0 Z M338 0 Q338 -13 324 -13 Q311 -13 311 0 L311 108 Q311 122 324 122 Q338 122 338 108 L338 0 Z M176 0 Q176 -13 162 -13 Q149 -13 149 0 L149 108 Q149 122 162 122 Q176 122 176 108 L176 0 Z M392 0 Q392 -13 378 -13 Q365 -13 365 0 L365 108 Q365 122 378 122 Q392 122 392 108 L392 0 Z M284 0 Q284 -13 270 -13 Q257 -13 257 0 L257 108 Q257 122 270 122 Q284 122 284 108 L284 0 Z " />
<glyph glyph-name="C" unicode="C" horiz-adv-x="594" d="M122 54 Q122 41 108 41 Q95 41 95 54 L95 648 Q95 662 108 662 Q122 662 122 648 L122 54 Z M68 162 Q68 149 54 149 Q41 149 41 162 L41 540 Q41 554 54 554 Q68 554 68 540 L68 162 Z M176 486 Q176 473 162 473 Q149 473 149 486 L149 702 Q149 716 162 716 Q176 716 176 702 L176 486 Z M446 486 Q446 473 432 473 Q419 473 419 486 L419 702 Q419 716 432 716 Q446 716 446 702 L446 486 Z M500 54 Q500 41 486 41 Q473 41 473 54 L473 270 Q473 284 486 284 Q500 284 500 270 L500 54 Z M500 432 Q500 419 486 419 Q473 419 473 432 L473 648 Q473 662 486 662 Q500 662 500 648 L500 432 Z M176 0 Q176 -13 162 -13 Q149 -13 149 0 L149 216 Q149 230 162 230 Q176 230 176 216 L176 0 Z M446 0 Q446 -13 432 -13 Q419 -13 419 0 L419 216 Q419 230 432 230 Q446 230 446 216 L446 0 Z M284 594 Q284 581 270 581 Q257 581 257 594 L257 702 Q257 716 270 716 Q284 716 284 702 L284 594 Z M230 594 Q230 581 216 581 Q203 581 203 594 L203 702 Q203 716 216 716 Q230 716 230 702 L230 594 Z M338 594 Q338 581 324 581 Q311 581 311 594 L311 702 Q311 716 324 716 Q338 716 338 702 L338 594 Z M392 594 Q392 581 378 581 Q365 581 365 594 L365 702 Q365 716 378 716 Q392 716 392 702 L392 594 Z M554 162 Q554 149 540 149 Q527 149 527 162 L527 270 Q527 284 540 284 Q554 284 554 270 L554 162 Z M554 432 Q554 419 540 419 Q527 419 527 432 L527 540 Q527 554 540 554 Q554 554 554 540 L554 432 Z M392 0 Q392 -13 378 -13 Q365 -13 365 0 L365 108 Q365 122 378 122 Q392 122 392 108 L392 0 Z M230 0 Q230 -13 216 -13 Q203 -13 203 0 L203 108 Q203 122 216 122 Q230 122 230 108 L230 0 Z M284 0 Q284 -13 270 -13 Q257 -13 257 0 L257 108 Q257 122 270 122 Q284 122 284 108 L284 0 Z M338 0 Q338 -13 324 -13 Q311 -13 311 0 L311 108 Q311 122 324 122 Q338 122 338 108 L338 0 Z " />
<glyph glyph-name="D" unicode="D" horiz-adv-x="594" d="M122 0 Q122 -13 108 -13 Q95 -13 95 0 L95 702 Q95 716 108 716 Q122 716 122 702 L122 0 Z M68 0 Q68 -13 54 -13 Q41 -13 41 0 L41 702 Q41 716 54 716 Q68 716 68 702 L68 0 Z M500 108 Q500 95 486 95 Q473 95 473 108 L473 594 Q473 608 486 608 Q500 608 500 594 L500 108 Z M554 162 Q554 149 540 149 Q527 149 527 162 L527 540 Q527 554 540 554 Q554 554 554 540 L554 162 Z M446 54 Q446 41 432 41 Q419 41 419 54 L419 216 Q419 230 432 230 Q446 230 446 216 L446 54 Z M446 486 Q446 473 432 473 Q419 473 419 486 L419 648 Q419 662 432 662 Q446 662 446 648 L446 486 Z M392 540 Q392 527 378 527 Q365 527 365 540 L365 702 Q365 716 378 716 Q392 716 392 702 L392 540 Z M392 0 Q392 -13 378 -13 Q365 -13 365 0 L365 162 Q365 176 378 176 Q392 176 392 162 L392 0 Z M176 594 Q176 581 162 581 Q149 581 149 594 L149 702 Q149 716 162 716 Q176 716 176 702 L176 594 Z M230 594 Q230 581 216 581 Q203 581 203 594 L203 702 Q203 716 216 716 Q230 716 230 702 L230 594 Z M284 594 Q284 581 270 581 Q257 581 257 594 L257 702 Q257 716 270 716 Q284 716 284 702 L284 594 Z M338 594 Q338 581 324 581 Q311 581 311 594 L311 702 Q311 716 324 716 Q338 716 338 702 L338 594 Z M230 0 Q230 -13 216 -13 Q203 -13 203 0 L203 108 Q203 122 216 122 Q230 122 230 108 L230 0 Z M338 0 Q338 -13 324 -13 Q311 -13 311 0 L311 108 Q311 122 324 122 Q338 122 338 108 L338 0 Z M176 0 Q176 -13 162 -13 Q149 -13 149 0 L149 108 Q149 122 162 122 Q176 122 176 108 L176 0 Z M284 0 Q284 -13 270 -13 Q257 -13 257 0 L257 108 Q257 122 270 122 Q284 122 284 108 L284 0 Z " />
<glyph glyph-name="E" unicode="E" horiz-adv-x="540" d="M122 0 Q122 -13 108 -13 Q95 -13 95 0 L95 702 Q95 716 108 716 Q122 716 122 702 L122 0 Z M68 0 Q68 -13 54 -13 Q41 -13 41 0 L41 702 Q41 716 54 716 Q68 716 68 702 L68 0 Z M230 324 Q230 311 216 311 Q203 311 203 324 L203 432 Q203 446 216 446 Q230 446 230 432 L230 324 Z M338 324 Q338 311 324 311 Q311 311 311 324 L311 432 Q311 446 324 446 Q338 446 338 432 L338 324 Z M500 594 Q500 581 486 581 Q473 581 473 594 L473 702 Q473 716 486 716 Q500 716 500 702 L500 594 Z M392 324 Q392 311 378 311 Q365 311 365 324 L365 432 Q365 446 378 446 Q392 446 392 432 L392 324 Z M176 594 Q176 581 162 581 Q149 581 149 594 L149 702 Q149 716 162 716 Q176 716 176 702 L176 594 Z M176 324 Q176 311 162 311 Q149 311 149 324 L149 432 Q149 446 162 446 Q176 446 176 432 L176 324 Z M284 594 Q284 581 270 581 Q257 581 257 594 L257 702 Q257 716 270 716 Q284 716 284 702 L284 594 Z M230 594 Q230 581 216 581 Q203 581 203 594 L203 702 Q203 716 216 716 Q230 716 230 702 L230 594 Z M338 594 Q338 581 324 581 Q311 581 311 594 L311 702 Q311 716 324 716 Q338 716 338 702 L338 594 Z M284 324 Q284 311 270 311 Q257 311 257 324 L257 432 Q257 446 270 446 Q284 446 284 432 L284 324 Z M392 594 Q392 581 378 581 Q365 581 365 594 L365 702 Q365 716 378 716 Q392 716 392 702 L392 594 Z M446 594 Q446 581 432 581 Q419 581 419 594 L419 702 Q419 716 432 716 Q446 716 446 702 L446 594 Z M446 324 Q446 311 432 311 Q419 311 419 324 L419 432 Q419 446 432 446 Q446 446 446 432 L446 324 Z M230 0 Q230 -13 216 -13 Q203 -13 203 0 L203 108 Q203 122 216 122 Q230 122 230 108 L230 0 Z M446 0 Q446 -13 432 -13 Q419 -13 419 0 L419 108 Q419 122 432 122 Q446 122 446 108 L446 0 Z M338 0 Q338 -13 324 -13 Q311 -13 311 0 L311 108 Q311 122 324 122 Q338 122 338 108 L338 0 Z M176 0 Q176 -13 162 -13 Q149 -13 149 0 L149 108 Q149 122 162 122 Q176 122 176 108 L176 0 Z M392 0 Q392 -13 378 -13 Q365 -13 365 0 L365 108 Q365 122 378 122 Q392 122 392 108 L392 0 Z M284 0 Q284 -13 270 -13 Q257 -13 257 0 L257 108 Q257 122 270 122 Q284 122 284 108 L284 0 Z M500 0 Q500 -13 486 -13 Q473 -13 473 0 L473 108 Q473 122 486 122 Q500 122 500 108 L500 0 Z " />
<glyph glyph-name="F" unicode="F" horiz-adv-x="540" d="M122 0 Q122 -13 108 -13 Q95 -13 95 0 L95 702 Q95 716 108 716 Q122 716 122 702 L122 0 Z M68 0 Q68 -13 54 -13 Q41 -13 41 0 L41 702 Q41 716 54 716 Q68 716 68 702 L68 0 Z M284 270 Q284 257 270 257 Q257 257 257 270 L257 378 Q257 392 270 392 Q284 392 284 378 L284 270 Z M230 270 Q230 257 216 257 Q203 257 203 270 L203 378 Q203 392 216 392 Q230 392 230 378 L230 270 Z M176 594 Q176 581 162 581 Q149 581 149 594 L149 702 Q149 716 162 716 Q176 716 176 702 L176 594 Z M338 270 Q338 257 324 257 Q311 257 311 270 L311 378 Q311 392 324 392 Q338 392 338 378 L338 270 Z M284 594 Q284 581 270 581 Q257 581 257 594 L257 702 Q257 716 270 716 Q284 716 284 702 L284 594 Z M230 594 Q230 581 216 581 Q203 581 203 594 L203 702 Q203 716 216 716 Q230 716 230 702 L230 594 Z M392 270 Q392 257 378 257 Q365 257 365 270 L365 378 Q365 392 378 392 Q392 392 392 378 L392 270 Z M338 594 Q338 581 324 581 Q311 581 311 594 L311 702 Q311 716 324 716 Q338 716 338 702 L338 594 Z M392 594 Q392 581 378 581 Q365 581 365 594 L365 702 Q365 716 378 716 Q392 716 392 702 L392 594 Z M176 270 Q176 257 162 257 Q149 257 149 270 L149 378 Q149 392 162 392 Q176 392 176 378 L176 270 Z M446 270 Q446 257 432 257 Q419 257 419 270 L419 378 Q419 392 432 392 Q446 392 446 378 L446 270 Z M446 594 Q446 581 432 581 Q419 581 419 594 L419 702 Q419 716 432 716 Q446 716 446 702 L446 594 Z M500 594 Q500 581 486 581 Q473 581 473 594 L473 702 Q473 716 486 716 Q500 716 500 702 L500 594 Z " />
<glyph glyph-name="G" unicode="G" horiz-adv-x="648" d="M122 54 Q122 41 108 41 Q95 41 95 54 L95 648 Q95 662 108 662 Q122 662 122 648 L122 54 Z M68 108 Q68 95 54 95 Q41 95 41 108 L41 594 Q41 608 54 608 Q68 608 68 594 L68 108 Z M554 0 Q554 -13 540 -13 Q527 -13 527 0 L527 378 Q527 392 540 392 Q554 392 554 378 L554 0 Z M608 0 Q608 -13 594 -13 Q581 -13 581 0 L581 378 Q581 392 594 392 Q608 392 608 378 L608 0 Z M500 108 Q500 95 486 95 Q473 95 473 108 L473 378 Q473 392 486 392 Q500 392 500 378 L500 108 Z M554 432 Q554 419 540 419 Q527 419 527 432 L527 648 Q527 662 540 662 Q554 662 554 648 L554 432 Z M176 540 Q176 527 162 527 Q149 527 149 540 L149 702 Q149 716 162 716 Q176 716 176 702 L176 540 Z M608 432 Q608 419 594 419 Q581 419 581 432 L581 594 Q581 608 594 608 Q608 608 608 594 L608 432 Z M500 540 Q500 527 486 527 Q473 527 473 540 L473 702 Q473 716 486 716 Q500 716 500 702 L500 540 Z M446 54 Q446 41 432 41 Q419 41 419 54 L419 216 Q419 230 432 230 Q446 230 446 216 L446 54 Z M392 0 Q392 -13 378 -13 Q365 -13 365 0 L365 162 Q365 176 378 176 Q392 176 392 162 L392 0 Z M176 0 Q176 -13 162 -13 Q149 -13 149 0 L149 162 Q149 176 162 176 Q176 176 176 162 L176 0 Z M284 594 Q284 581 270 581 Q257 581 257 594 L257 702 Q257 716 270 716 Q284 716 284 702 L284 594 Z M230 594 Q230 581 216 581 Q203 581 203 594 L203 702 Q203 716 216 716 Q230 716 230 702 L230 594 Z M338 594 Q338 581 324 581 Q311 581 311 594 L311 702 Q311 716 324 716 Q338 716 338 702 L338 594 Z M392 594 Q392 581 378 581 Q365 581 365 594 L365 702 Q365 716 378 716 Q392 716 392 702 L392 594 Z M446 594 Q446 581 432 581 Q419 581 419 594 L419 702 Q419 716 432 716 Q446 716 446 702 L446 594 Z M392 270 Q392 257 378 257 Q365 257 365 270 L365 378 Q365 392 378 392 Q392 392 392 378 L392 270 Z M446 270 Q446 257 432 257 Q419 257 419 270 L419 378 Q419 392 432 392 Q446 392 446 378 L446 270 Z M230 0 Q230 -13 216 -13 Q203 -13 203 0 L203 108 Q203 122 216 122 Q230 122 230 108 L230 0 Z M284 0 Q284 -13 270 -13 Q257 -13 257 0 L257 108 Q257 122 270 122 Q284 122 284 108 L284 0 Z M338 0 Q338 -13 324 -13 Q311 -13 311 0 L311 108 Q311 122 324 122 Q338 122 338 108 L338 0 Z " />
<glyph glyph-name="H" unicode="H" horiz-adv-x="540" d="M122 0 Q122 -13 108 -13 Q95 -13 95 0 L95 702 Q95 716 108 716 Q122 716 122 702 L122 0 Z M68 0 Q68 -13 54 -13 Q41 -13 41 0 L41 702 Q41 716 54 716 Q68 716 68 702 L68 0 Z M500 0 Q500 -13 486 -13 Q473 -13 473 0 L473 702 Q473 716 486 716 Q500 716 500 702 L500 0 Z M446 0 Q446 -13 432 -13 Q419 -13 419 0 L419 702 Q419 716 432 716 Q446 716 446 702 L446 0 Z M176 270 Q176 257 162 257 Q149 257 149 270 L149 378 Q149 392 162 392 Q176 392 176 378 L176 270 Z M284 270 Q284 257 270 257 Q257 257 257 270 L257 378 Q257 392 270 392 Q284 392 284 378 L284 270 Z M230 270 Q230 257 216 257 Q203 257 203 270 L203 378 Q203 392 216 392 Q230 392 230 378 L230 270 Z M338 270 Q338 257 324 257 Q311 257 311 270 L311 378 Q311 392 324 392 Q338 392 338 378 L338 270 Z M392 270 Q392 257 378 257 Q365 257 365 270 L365 378 Q365 392 378 392 Q392 392 392 378 L392 270 Z " />
<glyph glyph-name="I" unicode="I" horiz-adv-x="162" d="M122 0 Q122 -13 108 -13 Q95 -13 95 0 L95 702 Q95 716 108 716 Q122 716 122 702 L122 0 Z M68 0 Q68 -13 54 -13 Q41 -13 41 0 L41 702 Q41 716 54 716 Q68 716 68 702 L68 0 Z " />
<glyph glyph-name="J" unicode="J" horiz-adv-x="486" d="M392 54 Q392 41 378 41 Q365 41 365 54 L365 702 Q365 716 378 716 Q392 716 392 702 L392 54 Z M446 108 Q446 95 432 95 Q419 95 419 108 L419 702 Q419 716 432 716 Q446 716 446 702 L446 108 Z M122 54 Q122 41 108 41 Q95 41 95 54 L95 216 Q95 230 108 230 Q122 230 122 216 L122 54 Z M176 0 Q176 -13 162 -13 Q149 -13 149 0 L149 162 Q149 176 162 176 Q176 176 176 162 L176 0 Z M338 0 Q338 -13 324 -13 Q311 -13 311 0 L311 162 Q311 176 324 176 Q338 176 338 162 L338 0 Z M68 108 Q68 95 54 95 Q41 95 41 108 L41 216 Q41 230 54 230 Q68 230 68 216 L68 108 Z M230 0 Q230 -13 216 -13 Q203 -13 203 0 L203 108 Q203 122 216 122 Q230 122 230 108 L230 0 Z M284 0 Q284 -13 270 -13 Q257 -13 257 0 L257 108 Q257 122 270 122 Q284 122 284 108 L284 0 Z " />
<glyph glyph-name="K" unicode="K" horiz-adv-x="540" d="M122 0 Q122 -13 108 -13 Q95 -13 95 0 L95 702 Q95 716 108 716 Q122 716 122 702 L122 0 Z M68 0 Q68 -13 54 -13 Q41 -13 41 0 L41 702 Q41 716 54 716 Q68 716 68 702 L68 0 Z M230 216 Q230 203 216 203 Q203 203 203 216 L203 486 Q203 500 216 500 Q230 500 230 486 L230 216 Z M284 162 Q284 149 270 149 Q257 149 257 162 L257 324 Q257 338 270 338 Q284 338 284 324 L284 162 Z M284 378 Q284 365 270 365 Q257 365 257 378 L257 540 Q257 554 270 554 Q284 554 284 540 L284 378 Z M338 432 Q338 419 324 419 Q311 419 311 432 L311 594 Q311 608 324 608 Q338 608 338 594 L338 432 Z M392 486 Q392 473 378 473 Q365 473 365 486 L365 648 Q365 662 378 662 Q392 662 392 648 L392 486 Z M176 270 Q176 257 162 257 Q149 257 149 270 L149 432 Q149 446 162 446 Q176 446 176 432 L176 270 Z M446 540 Q446 527 432 527 Q419 527 419 540 L419 702 Q419 716 432 716 Q446 716 446 702 L446 540 Z M392 54 Q392 41 378 41 Q365 41 365 54 L365 216 Q365 230 378 230 Q392 230 392 216 L392 54 Z M338 108 Q338 95 324 95 Q311 95 311 108 L311 270 Q311 284 324 284 Q338 284 338 270 L338 108 Z M446 0 Q446 -13 432 -13 Q419 -13 419 0 L419 162 Q419 176 432 176 Q446 176 446 162 L446 0 Z M500 594 Q500 581 486 581 Q473 581 473 594 L473 702 Q473 716 486 716 Q500 716 500 702 L500 594 Z M500 0 Q500 -13 486 -13 Q473 -13 473 0 L473 108 Q473 122 486 122 Q500 122 500 108 L500 0 Z " />
<glyph glyph-name="L" unicode="L" horiz-adv-x="486" d="M122 0 Q122 -13 108 -13 Q95 -13 95 0 L95 702 Q95 716 108 716 Q122 716 122 702 L122 0 Z M68 0 Q68 -13 54 -13 Q41 -13 41 0 L41 702 Q41 716 54 716 Q68 716 68 702 L68 0 Z M230 0 Q230 -13 216 -13 Q203 -13 203 0 L203 108 Q203 122 216 122 Q230 122 230 108 L230 0 Z M446 0 Q446 -13 432 -13 Q419 -13 419 0 L419 108 Q419 122 432 122 Q446 122 446 108 L446 0 Z M338 0 Q338 -13 324 -13 Q311 -13 311 0 L311 108 Q311 122 324 122 Q338 122 338 108 L338 0 Z M176 0 Q176 -13 162 -13 Q149 -13 149 0 L149 108 Q149 122 162 122 Q176 122 176 108 L176 0 Z M392 0 Q392 -13 378 -13 Q365 -13 365 0 L365 108 Q365 122 378 122 Q392 122 392 108 L392 0 Z M284 0 Q284 -13 270 -13 Q257 -13 257 0 L257 108 Q257 122 270 122 Q284 122 284 108 L284 0 Z " />
<glyph glyph-name="M" unicode="M" horiz-adv-x="702" d="M122 0 Q122 -13 108 -13 Q95 -13 95 0 L95 702 Q95 716 108 716 Q122 716 122 702 L122 0 Z M68 0 Q68 -13 54 -13 Q41 -13 41 0 L41 702 Q41 716 54 716 Q68 716 68 702 L68 0 Z M608 0 Q608 -13 594 -13 Q581 -13 581 0 L581 702 Q581 716 594 716 Q608 716 608 702 L608 0 Z M662 0 Q662 -13 648 -13 Q635 -13 635 0 L635 702 Q635 716 648 716 Q662 716 662 702 L662 0 Z M338 108 Q338 95 324 95 Q311 95 311 108 L311 324 Q311 338 324 338 Q338 338 338 324 L338 108 Z M230 324 Q230 311 216 311 Q203 311 203 324 L203 540 Q203 554 216 554 Q230 554 230 540 L230 324 Z M500 324 Q500 311 486 311 Q473 311 473 324 L473 540 Q473 554 486 554 Q500 554 500 540 L500 324 Z M284 216 Q284 203 270 203 Q257 203 257 216 L257 432 Q257 446 270 446 Q284 446 284 432 L284 216 Z M554 432 Q554 419 540 419 Q527 419 527 432 L527 648 Q527 662 540 662 Q554 662 554 648 L554 432 Z M176 432 Q176 419 162 419 Q149 419 149 432 L149 648 Q149 662 162 662 Q176 662 176 648 L176 432 Z M392 108 Q392 95 378 95 Q365 95 365 108 L365 324 Q365 338 378 338 Q392 338 392 324 L392 108 Z M446 216 Q446 203 432 203 Q419 203 419 216 L419 432 Q419 446 432 446 Q446 446 446 432 L446 216 Z " />
<glyph glyph-name="N" unicode="N" horiz-adv-x="594" d="M122 0 Q122 -13 108 -13 Q95 -13 95 0 L95 702 Q95 716 108 716 Q122 716 122 702 L122 0 Z M68 0 Q68 -13 54 -13 Q41 -13 41 0 L41 702 Q41 716 54 716 Q68 716 68 702 L68 0 Z M500 0 Q500 -13 486 -13 Q473 -13 473 0 L473 702 Q473 716 486 716 Q500 716 500 702 L500 0 Z M554 0 Q554 -13 540 -13 Q527 -13 527 0 L527 702 Q527 716 540 716 Q554 716 554 702 L554 0 Z M392 108 Q392 95 378 95 Q365 95 365 108 L365 324 Q365 338 378 338 Q392 338 392 324 L392 108 Z M338 162 Q338 149 324 149 Q311 149 311 162 L311 378 Q311 392 324 392 Q338 392 338 378 L338 162 Z M176 432 Q176 419 162 419 Q149 419 149 432 L149 648 Q149 662 162 662 Q176 662 176 648 L176 432 Z M284 270 Q284 257 270 257 Q257 257 257 270 L257 486 Q257 500 270 500 Q284 500 284 486 L284 270 Z M230 324 Q230 311 216 311 Q203 311 203 324 L203 540 Q203 554 216 554 Q230 554 230 540 L230 324 Z M446 54 Q446 41 432 41 Q419 41 419 54 L419 216 Q419 230 432 230 Q446 230 446 216 L446 54 Z " />
<glyph glyph-name="O" unicode="O" horiz-adv-x="648" d="M122 108 Q122 95 108 95 Q95 95 95 108 L95 594 Q95 608 108 608 Q122 608 122 594 L122 108 Z M554 108 Q554 95 540 95 Q527 95 527 108 L527 594 Q527 608 540 608 Q554 608 554 594 L554 108 Z M68 216 Q68 203 54 203 Q41 203 41 216 L41 486 Q41 500 54 500 Q68 500 68 486 L68 216 Z M608 216 Q608 203 594 203 Q581 203 581 216 L581 486 Q581 500 594 500 Q608 500 608 486 L608 216 Z M176 54 Q176 41 162 41 Q149 41 149 54 L149 270 Q149 284 162 284 Q176 284 176 270 L176 54 Z M500 54 Q500 41 486 41 Q473 41 473 54 L473 270 Q473 284 486 284 Q500 284 500 270 L500 54 Z M176 432 Q176 419 162 419 Q149 419 149 432 L149 648 Q149 662 162 662 Q176 662 176 648 L176 432 Z M500 432 Q500 419 486 419 Q473 419 473 432 L473 648 Q473 662 486 662 Q500 662 500 648 L500 432 Z M230 540 Q230 527 216 527 Q203 527 203 540 L203 702 Q203 716 216 716 Q230 716 230 702 L230 540 Z M446 540 Q446 527 432 527 Q419 527 419 540 L419 702 Q419 716 432 716 Q446 716 446 702 L446 540 Z M230 0 Q230 -13 216 -13 Q203 -13 203 0 L203 162 Q203 176 216 176 Q230 176 230 162 L230 0 Z M446 0 Q446 -13 432 -13 Q419 -13 419 0 L419 162 Q419 176 432 176 Q446 176 446 162 L446 0 Z M284 594 Q284 581 270 581 Q257 581 257 594 L257 702 Q257 716 270 716 Q284 716 284 702 L284 594 Z M338 594 Q338 581 324 581 Q311 581 311 594 L311 702 Q311 716 324 716 Q338 716 338 702 L338 594 Z M392 594 Q392 581 378 581 Q365 581 365 594 L365 702 Q365 716 378 716 Q392 716 392 702 L392 594 Z M338 0 Q338 -13 324 -13 Q311 -13 311 0 L311 108 Q311 122 324 122 Q338 122 338 108 L338 0 Z M284 0 Q284 -13 270 -13 Q257 -13 257 0 L257 108 Q257 122 270 122 Q284 122 284 108 L284 0 Z M392 0 Q392 -13 378 -13 Q365 -13 365 0 L365 108 Q365 122 378 122 Q392 122 392 108 L392 0 Z " />
<glyph glyph-name="P" unicode="P" horiz-adv-x="540" d="M122 0 Q122 -13 108 -13 Q95 -13 95 0 L95 702 Q95 716 108 716 Q122 716 122 702 L122 0 Z M68 0 Q68 -13 54 -13 Q41 -13 41 0 L41 702 Q41 716 54 716 Q68 716 68 702 L68 0 Z M446 324 Q446 311 432 311 Q419 311 419 324 L419 648 Q419 662 432 662 Q446 662 446 648 L446 324 Z M500 378 Q500 365 486 365 Q473 365 473 378 L473 594 Q473 608 486 608 Q500 608 500 594 L500 378 Z M392 270 Q392 257 378 257 Q365 257 365 270 L365 432 Q365 446 378 446 Q392 446 392 432 L392 270 Z M392 540 Q392 527 378 527 Q365 527 365 540 L365 702 Q365 716 378 716 Q392 716 392 702 L392 540 Z M230 270 Q230 257 216 257 Q203 257 203 270 L203 378 Q203 392 216 392 Q230 392 230 378 L230 270 Z M284 270 Q284 257 270 257 Q257 257 257 270 L257 378 Q257 392 270 392 Q284 392 284 378 L284 270 Z M338 270 Q338 257 324 257 Q311 257 311 270 L311 378 Q311 392 324 392 Q338 392 338 378 L338 270 Z M176 594 Q176 581 162 581 Q149 581 149 594 L149 702 Q149 716 162 716 Q176 716 176 702 L176 594 Z M284 594 Q284 581 270 581 Q257 581 257 594 L257 702 Q257 716 270 716 Q284 716 284 702 L284 594 Z M230 594 Q230 581 216 581 Q203 581 203 594 L203 702 Q203 716 216 716 Q230 716 230 702 L230 594 Z M176 270 Q176 257 162 257 Q149 257 149 270 L149 378 Q149 392 162 392 Q176 392 176 378 L176 270 Z M338 594 Q338 581 324 581 Q311 581 311 594 L311 702 Q311 716 324 716 Q338 716 338 702 L338 594 Z " />
<glyph glyph-name="Q" unicode="Q" horiz-adv-x="648" d="M122 108 Q122 95 108 95 Q95 95 95 108 L95 594 Q95 608 108 608 Q122 608 122 594 L122 108 Z M554 108 Q554 95 540 95 Q527 95 527 108 L527 594 Q527 608 540 608 Q554 608 554 594 L554 108 Z M68 162 Q68 149 54 149 Q41 149 41 162 L41 540 Q41 554 54 554 Q68 554 68 540 L68 162 Z M608 162 Q608 149 594 149 Q581 149 581 162 L581 540 Q581 554 594 554 Q608 554 608 540 L608 162 Z M392 -108 Q392 -121 378 -121 Q365 -121 365 -108 L365 108 Q365 122 378 122 Q392 122 392 108 L392 -108 Z M176 54 Q176 41 162 41 Q149 41 149 54 L149 216 Q149 230 162 230 Q176 230 176 216 L176 54 Z M176 486 Q176 473 162 473 Q149 473 149 486 L149 648 Q149 662 162 662 Q176 662 176 648 L176 486 Z M500 486 Q500 473 486 473 Q473 473 473 486 L473 648 Q473 662 486 662 Q500 662 500 648 L500 486 Z M230 540 Q230 527 216 527 Q203 527 203 540 L203 702 Q203 716 216 716 Q230 716 230 702 L230 540 Z M446 540 Q446 527 432 527 Q419 527 419 540 L419 702 Q419 716 432 716 Q446 716 446 702 L446 540 Z M500 54 Q500 41 486 41 Q473 41 473 54 L473 216 Q473 230 486 230 Q500 230 500 216 L500 54 Z M230 0 Q230 -13 216 -13 Q203 -13 203 0 L203 162 Q203 176 216 176 Q230 176 230 162 L230 0 Z M446 0 Q446 -13 432 -13 Q419 -13 419 0 L419 162 Q419 176 432 176 Q446 176 446 162 L446 0 Z M338 -54 Q338 -67 324 -67 Q311 -67 311 -54 L311 108 Q311 122 324 122 Q338 122 338 108 L338 -54 Z M446 -162 Q446 -175 432 -175 Q419 -175 419 -162 L419 -54 Q419 -40 432 -40 Q446 -40 446 -54 L446 -162 Z M500 -162 Q500 -175 486 -175 Q473 -175 473 -162 L473 -54 Q473 -40 486 -40 Q500 -40 500 -54 L500 -162 Z M554 -162 Q554 -175 540 -175 Q527 -175 527 -162 L527 -54 Q527 -40 540 -40 Q554 -40 554 -54 L554 -162 Z M284 594 Q284 581 270 581 Q257 581 257 594 L257 702 Q257 716 270 716 Q284 716 284 702 L284 594 Z M338 594 Q338 581 324 581 Q311 581 311 594 L311 702 Q311 716 324 716 Q338 716 338 702 L338 594 Z M392 594 Q392 581 378 581 Q365 581 365 594 L365 702 Q365 716 378 716 Q392 716 392 702 L392 594 Z M284 0 Q284 -13 270 -13 Q257 -13 257 0 L257 108 Q257 122 270 122 Q284 122 284 108 L284 0 Z M608 -108 Q608 -121 594 -121 Q581 -121 581 -108 L581 0 Q581 14 594 14 Q608 14 608 0 L608 -108 Z " />
<glyph glyph-name="R" unicode="R" horiz-adv-x="594" d="M122 0 Q122 -13 108 -13 Q95 -13 95 0 L95 702 Q95 716 108 716 Q122 716 122 702 L122 0 Z M68 0 Q68 -13 54 -13 Q41 -13 41 0 L41 702 Q41 716 54 716 Q68 716 68 702 L68 0 Z M500 324 Q500 311 486 311 Q473 311 473 324 L473 648 Q473 662 486 662 Q500 662 500 648 L500 324 Z M446 162 Q446 149 432 149 Q419 149 419 162 L419 432 Q419 446 432 446 Q446 446 446 432 L446 162 Z M500 0 Q500 -13 486 -13 Q473 -13 473 0 L473 270 Q473 284 486 284 Q500 284 500 270 L500 0 Z M554 378 Q554 365 540 365 Q527 365 527 378 L527 594 Q527 608 540 608 Q554 608 554 594 L554 378 Z M554 0 Q554 -13 540 -13 Q527 -13 527 0 L527 216 Q527 230 540 230 Q554 230 554 216 L554 0 Z M446 540 Q446 527 432 527 Q419 527 419 540 L419 702 Q419 716 432 716 Q446 716 446 702 L446 540 Z M392 216 Q392 203 378 203 Q365 203 365 216 L365 378 Q365 392 378 392 Q392 392 392 378 L392 216 Z M176 270 Q176 257 162 257 Q149 257 149 270 L149 378 Q149 392 162 392 Q176 392 176 378 L176 270 Z M284 270 Q284 257 270 257 Q257 257 257 270 L257 378 Q257 392 270 392 Q284 392 284 378 L284 270 Z M176 594 Q176 581 162 581 Q149 581 149 594 L149 702 Q149 716 162 716 Q176 716 176 702 L176 594 Z M230 270 Q230 257 216 257 Q203 257 203 270 L203 378 Q203 392 216 392 Q230 392 230 378 L230 270 Z M284 594 Q284 581 270 581 Q257 581 257 594 L257 702 Q257 716 270 716 Q284 716 284 702 L284 594 Z M338 270 Q338 257 324 257 Q311 257 311 270 L311 378 Q311 392 324 392 Q338 392 338 378 L338 270 Z M230 594 Q230 581 216 581 Q203 581 203 594 L203 702 Q203 716 216 716 Q230 716 230 702 L230 594 Z M338 594 Q338 581 324 581 Q311 581 311 594 L311 702 Q311 716 324 716 Q338 716 338 702 L338 594 Z M392 594 Q392 581 378 581 Q365 581 365 594 L365 702 Q365 716 378 716 Q392 716 392 702 L392 594 Z " />
<glyph glyph-name="S" unicode="S" horiz-adv-x="594" d="M500 54 Q500 41 486 41 Q473 41 473 54 L473 378 Q473 392 486 392 Q500 392 500 378 L500 54 Z M122 378 Q122 365 108 365 Q95 365 95 378 L95 648 Q95 662 108 662 Q122 662 122 648 L122 378 Z M554 108 Q554 95 540 95 Q527 95 527 108 L527 324 Q527 338 540 338 Q554 338 554 324 L554 108 Z M122 54 Q122 41 108 41 Q95 41 95 54 L95 216 Q95 230 108 230 Q122 230 122 216 L122 54 Z M446 270 Q446 257 432 257 Q419 257 419 270 L419 432 Q419 446 432 446 Q446 446 446 432 L446 270 Z M500 486 Q500 473 486 473 Q473 473 473 486 L473 648 Q473 662 486 662 Q500 662 500 648 L500 486 Z M68 432 Q68 419 54 419 Q41 419 41 432 L41 594 Q41 608 54 608 Q68 608 68 594 L68 432 Z M176 324 Q176 311 162 311 Q149 311 149 324 L149 486 Q149 500 162 500 Q176 500 176 486 L176 324 Z M176 540 Q176 527 162 527 Q149 527 149 540 L149 702 Q149 716 162 716 Q176 716 176 702 L176 540 Z M446 540 Q446 527 432 527 Q419 527 419 540 L419 702 Q419 716 432 716 Q446 716 446 702 L446 540 Z M176 0 Q176 -13 162 -13 Q149 -13 149 0 L149 162 Q149 176 162 176 Q176 176 176 162 L176 0 Z M446 0 Q446 -13 432 -13 Q419 -13 419 0 L419 162 Q419 176 432 176 Q446 176 446 162 L446 0 Z M554 486 Q554 473 540 473 Q527 473 527 486 L527 594 Q527 608 540 608 Q554 608 554 594 L554 486 Z M68 108 Q68 95 54 95 Q41 95 41 108 L41 216 Q41 230 54 230 Q68 230 68 216 L68 108 Z M284 594 Q284 581 270 581 Q257 581 257 594 L257 702 Q257 716 270 716 Q284 716 284 702 L284 594 Z M284 324 Q284 311 270 311 Q257 311 257 324 L257 432 Q257 446 270 446 Q284 446 284 432 L284 324 Z M230 594 Q230 581 216 581 Q203 581 203 594 L203 702 Q203 716 216 716 Q230 716 230 702 L230 594 Z M338 594 Q338 581 324 581 Q311 581 311 594 L311 702 Q311 716 324 716 Q338 716 338 702 L338 594 Z M230 324 Q230 311 216 311 Q203 311 203 324 L203 432 Q203 446 216 446 Q230 446 230 432 L230 324 Z M392 594 Q392 581 378 581 Q365 581 365 594 L365 702 Q365 716 378 716 Q392 716 392 702 L392 594 Z M338 324 Q338 311 324 311 Q311 311 311 324 L311 432 Q311 446 324 446 Q338 446 338 432 L338 324 Z M392 324 Q392 311 378 311 Q365 311 365 324 L365 432 Q365 446 378 446 Q392 446 392 432 L392 324 Z M230 0 Q230 -13 216 -13 Q203 -13 203 0 L203 108 Q203 122 216 122 Q230 122 230 108 L230 0 Z M392 0 Q392 -13 378 -13 Q365 -13 365 0 L365 108 Q365 122 378 122 Q392 122 392 108 L392 0 Z M284 0 Q284 -13 270 -13 Q257 -13 257 0 L257 108 Q257 122 270 122 Q284 122 284 108 L284 0 Z M338 0 Q338 -13 324 -13 Q311 -13 311 0 L311 108 Q311 122 324 122 Q338 122 338 108 L338 0 Z " />
<glyph glyph-name="T" unicode="T" horiz-adv-x="594" d="M284 0 Q284 -13 270 -13 Q257 -13 257 0 L257 702 Q257 716 270 716 Q284 716 284 702 L284 0 Z M338 0 Q338 -13 324 -13 Q311 -13 311 0 L311 702 Q311 716 324 716 Q338 716 338 702 L338 0 Z M230 594 Q230 581 216 581 Q203 581 203 594 L203 702 Q203 716 216 716 Q230 716 230 702 L230 594 Z M392 594 Q392 581 378 581 Q365 581 365 594 L365 702 Q365 716 378 716 Q392 716 392 702 L392 594 Z M446 594 Q446 581 432 581 Q419 581 419 594 L419 702 Q419 716 432 716 Q446 716 446 702 L446 594 Z M500 594 Q500 581 486 581 Q473 581 473 594 L473 702 Q473 716 486 716 Q500 716 500 702 L500 594 Z M554 594 Q554 581 540 581 Q527 581 527 594 L527 702 Q527 716 540 716 Q554 716 554 702 L554 594 Z M176 594 Q176 581 162 581 Q149 581 149 594 L149 702 Q149 716 162 716 Q176 716 176 702 L176 594 Z M122 594 Q122 581 108 581 Q95 581 95 594 L95 702 Q95 716 108 716 Q122 716 122 702 L122 594 Z M68 594 Q68 581 54 581 Q41 581 41 594 L41 702 Q41 716 54 716 Q68 716 68 702 L68 594 Z " />
<glyph glyph-name="U" unicode="U" horiz-adv-x="540" d="M122 54 Q122 41 108 41 Q95 41 95 54 L95 702 Q95 716 108 716 Q122 716 122 702 L122 54 Z M446 54 Q446 41 432 41 Q419 41 419 54 L419 702 Q419 716 432 716 Q446 716 446 702 L446 54 Z M68 108 Q68 95 54 95 Q41 95 41 108 L41 702 Q41 716 54 716 Q68 716 68 702 L68 108 Z M500 108 Q500 95 486 95 Q473 95 473 108 L473 702 Q473 716 486 716 Q500 716 500 702 L500 108 Z M392 0 Q392 -13 378 -13 Q365 -13 365 0 L365 162 Q365 176 378 176 Q392 176 392 162 L392 0 Z M176 0 Q176 -13 162 -13 Q149 -13 149 0 L149 162 Q149 176 162 176 Q176 176 176 162 L176 0 Z M230 0 Q230 -13 216 -13 Q203 -13 203 0 L203 108 Q203 122 216 122 Q230 122 230 108 L230 0 Z M284 0 Q284 -13 270 -13 Q257 -13 257 0 L257 108 Q257 122 270 122 Q284 122 284 108 L284 0 Z M338 0 Q338 -13 324 -13 Q311 -13 311 0 L311 108 Q311 122 324 122 Q338 122 338 108 L338 0 Z " />
<glyph glyph-name="V" unicode="V" horiz-adv-x="702" d="M230 162 Q230 149 216 149 Q203 149 203 162 L203 432 Q203 446 216 446 Q230 446 230 432 L230 162 Z M176 270 Q176 257 162 257 Q149 257 149 270 L149 540 Q149 554 162 554 Q176 554 176 540 L176 270 Z M500 162 Q500 149 486 149 Q473 149 473 162 L473 432 Q473 446 486 446 Q500 446 500 432 L500 162 Z M554 270 Q554 257 540 257 Q527 257 527 270 L527 540 Q527 554 540 554 Q554 554 554 540 L554 270 Z M608 432 Q608 419 594 419 Q581 419 581 432 L581 702 Q581 716 594 716 Q608 716 608 702 L608 432 Z M122 432 Q122 419 108 419 Q95 419 95 432 L95 702 Q95 716 108 716 Q122 716 122 702 L122 432 Z M446 54 Q446 41 432 41 Q419 41 419 54 L419 270 Q419 284 432 284 Q446 284 446 270 L446 54 Z M284 54 Q284 41 270 41 Q257 41 257 54 L257 270 Q257 284 270 284 Q284 284 284 270 L284 54 Z M662 540 Q662 527 648 527 Q635 527 635 540 L635 702 Q635 716 648 716 Q662 716 662 702 L662 540 Z M68 540 Q68 527 54 527 Q41 527 41 540 L41 702 Q41 716 54 716 Q68 716 68 702 L68 540 Z M338 0 Q338 -13 324 -13 Q311 -13 311 0 L311 162 Q311 176 324 176 Q338 176 338 162 L338 0 Z M392 0 Q392 -13 378 -13 Q365 -13 365 0 L365 162 Q365 176 378 176 Q392 176 392 162 L392 0 Z " />
<glyph glyph-name="W" unicode="W" horiz-adv-x="1026" d="M230 162 Q230 149 216 149 Q203 149 203 162 L203 486 Q203 500 216 500 Q230 500 230 486 L230 162 Z M392 162 Q392 149 378 149 Q365 149 365 162 L365 486 Q365 500 378 500 Q392 500 392 486 L392 162 Z M662 162 Q662 149 648 149 Q635 149 635 162 L635 486 Q635 500 648 500 Q662 500 662 486 L662 162 Z M824 162 Q824 149 810 149 Q797 149 797 162 L797 486 Q797 500 810 500 Q824 500 824 486 L824 162 Z M284 0 Q284 -13 270 -13 Q257 -13 257 0 L257 324 Q257 338 270 338 Q284 338 284 324 L284 0 Z M338 0 Q338 -13 324 -13 Q311 -13 311 0 L311 324 Q311 338 324 338 Q338 338 338 324 L338 0 Z M716 0 Q716 -13 702 -13 Q689 -13 689 0 L689 324 Q689 338 702 338 Q716 338 716 324 L716 0 Z M770 0 Q770 -13 756 -13 Q743 -13 743 0 L743 324 Q743 338 756 338 Q770 338 770 324 L770 0 Z M608 324 Q608 311 594 311 Q581 311 581 324 L581 594 Q581 608 594 608 Q608 608 608 594 L608 324 Z M878 324 Q878 311 864 311 Q851 311 851 324 L851 594 Q851 608 864 608 Q878 608 878 594 L878 324 Z M176 324 Q176 311 162 311 Q149 311 149 324 L149 594 Q149 608 162 608 Q176 608 176 594 L176 324 Z M446 324 Q446 311 432 311 Q419 311 419 324 L419 594 Q419 608 432 608 Q446 608 446 594 L446 324 Z M122 486 Q122 473 108 473 Q95 473 95 486 L95 702 Q95 716 108 716 Q122 716 122 702 L122 486 Z M500 486 Q500 473 486 473 Q473 473 473 486 L473 702 Q473 716 486 716 Q500 716 500 702 L500 486 Z M932 486 Q932 473 918 473 Q905 473 905 486 L905 702 Q905 716 918 716 Q932 716 932 702 L932 486 Z M554 486 Q554 473 540 473 Q527 473 527 486 L527 702 Q527 716 540 716 Q554 716 554 702 L554 486 Z M68 594 Q68 581 54 581 Q41 581 41 594 L41 702 Q41 716 54 716 Q68 716 68 702 L68 594 Z M986 594 Q986 581 972 581 Q959 581 959 594 L959 702 Q959 716 972 716 Q986 716 986 702 L986 594 Z " />
<glyph glyph-name="X" unicode="X" horiz-adv-x="702" d="M284 216 Q284 203 270 203 Q257 203 257 216 L257 486 Q257 500 270 500 Q284 500 284 486 L284 216 Z M446 216 Q446 203 432 203 Q419 203 419 216 L419 486 Q419 500 432 500 Q446 500 446 486 L446 216 Z M176 432 Q176 419 162 419 Q149 419 149 432 L149 648 Q149 662 162 662 Q176 662 176 648 L176 432 Z M230 108 Q230 95 216 95 Q203 95 203 108 L203 324 Q203 338 216 338 Q230 338 230 324 L230 108 Z M554 54 Q554 41 540 41 Q527 41 527 54 L527 270 Q527 284 540 284 Q554 284 554 270 L554 54 Z M176 54 Q176 41 162 41 Q149 41 149 54 L149 270 Q149 284 162 284 Q176 284 176 270 L176 54 Z M500 108 Q500 95 486 95 Q473 95 473 108 L473 324 Q473 338 486 338 Q500 338 500 324 L500 108 Z M230 378 Q230 365 216 365 Q203 365 203 378 L203 594 Q203 608 216 608 Q230 608 230 594 L230 378 Z M500 378 Q500 365 486 365 Q473 365 473 378 L473 594 Q473 608 486 608 Q500 608 500 594 L500 378 Z M554 432 Q554 419 540 419 Q527 419 527 432 L527 648 Q527 662 540 662 Q554 662 554 648 L554 432 Z M338 270 Q338 257 324 257 Q311 257 311 270 L311 432 Q311 446 324 446 Q338 446 338 432 L338 270 Z M608 540 Q608 527 594 527 Q581 527 581 540 L581 702 Q581 716 594 716 Q608 716 608 702 L608 540 Z M392 270 Q392 257 378 257 Q365 257 365 270 L365 432 Q365 446 378 446 Q392 446 392 432 L392 270 Z M122 540 Q122 527 108 527 Q95 527 95 540 L95 702 Q95 716 108 716 Q122 716 122 702 L122 540 Z M122 0 Q122 -13 108 -13 Q95 -13 95 0 L95 162 Q95 176 108 176 Q122 176 122 162 L122 0 Z M608 0 Q608 -13 594 -13 Q581 -13 581 0 L581 162 Q581 176 594 176 Q608 176 608 162 L608 0 Z M662 594 Q662 581 648 581 Q635 581 635 594 L635 702 Q635 716 648 716 Q662 716 662 702 L662 594 Z M68 594 Q68 581 54 581 Q41 581 41 594 L41 702 Q41 716 54 716 Q68 716 68 702 L68 594 Z M68 0 Q68 -13 54 -13 Q41 -13 41 0 L41 108 Q41 122 54 122 Q68 122 68 108 L68 0 Z M662 0 Q662 -13 648 -13 Q635 -13 635 0 L635 108 Q635 122 648 122 Q662 122 662 108 L662 0 Z " />
<glyph glyph-name="Y" unicode="Y" horiz-adv-x="702" d="M338 0 Q338 -13 324 -13 Q311 -13 311 0 L311 432 Q311 446 324 446 Q338 446 338 432 L338 0 Z M392 0 Q392 -13 378 -13 Q365 -13 365 0 L365 432 Q365 446 378 446 Q392 446 392 432 L392 0 Z M230 378 Q230 365 216 365 Q203 365 203 378 L203 594 Q203 608 216 608 Q230 608 230 594 L230 378 Z M500 378 Q500 365 486 365 Q473 365 473 378 L473 594 Q473 608 486 608 Q500 608 500 594 L500 378 Z M554 432 Q554 419 540 419 Q527 419 527 432 L527 648 Q527 662 540 662 Q554 662 554 648 L554 432 Z M176 432 Q176 419 162 419 Q149 419 149 432 L149 648 Q149 662 162 662 Q176 662 176 648 L176 432 Z M446 324 Q446 311 432 311 Q419 311 419 324 L419 486 Q419 500 432 500 Q446 500 446 486 L446 324 Z M608 540 Q608 527 594 527 Q581 527 581 540 L581 702 Q581 716 594 716 Q608 716 608 702 L608 540 Z M284 324 Q284 311 270 311 Q257 311 257 324 L257 486 Q257 500 270 500 Q284 500 284 486 L284 324 Z M122 540 Q122 527 108 527 Q95 527 95 540 L95 702 Q95 716 108 716 Q122 716 122 702 L122 540 Z M68 594 Q68 581 54 581 Q41 581 41 594 L41 702 Q41 716 54 716 Q68 716 68 702 L68 594 Z M662 594 Q662 581 648 581 Q635 581 635 594 L635 702 Q635 716 648 716 Q662 716 662 702 L662 594 Z " />
<glyph glyph-name="Z" unicode="Z" horiz-adv-x="594" d="M446 432 Q446 419 432 419 Q419 419 419 432 L419 702 Q419 716 432 716 Q446 716 446 702 L446 432 Z M176 0 Q176 -13 162 -13 Q149 -13 149 0 L149 270 Q149 284 162 284 Q176 284 176 270 L176 0 Z M230 162 Q230 149 216 149 Q203 149 203 162 L203 324 Q203 338 216 338 Q230 338 230 324 L230 162 Z M500 540 Q500 527 486 527 Q473 527 473 540 L473 702 Q473 716 486 716 Q500 716 500 702 L500 540 Z M392 378 Q392 365 378 365 Q365 365 365 378 L365 540 Q365 554 378 554 Q392 554 392 540 L392 378 Z M122 0 Q122 -13 108 -13 Q95 -13 95 0 L95 162 Q95 176 108 176 Q122 176 122 162 L122 0 Z M176 594 Q176 581 162 581 Q149 581 149 594 L149 702 Q149 716 162 716 Q176 716 176 702 L176 594 Z M122 594 Q122 581 108 581 Q95 581 95 594 L95 702 Q95 716 108 716 Q122 716 122 702 L122 594 Z M68 594 Q68 581 54 581 Q41 581 41 594 L41 702 Q41 716 54 716 Q68 716 68 702 L68 594 Z M284 594 Q284 581 270 581 Q257 581 257 594 L257 702 Q257 716 270 716 Q284 716 284 702 L284 594 Z M230 594 Q230 581 216 581 Q203 581 203 594 L203 702 Q203 716 216 716 Q230 716 230 702 L230 594 Z M338 594 Q338 581 324 581 Q311 581 311 594 L311 702 Q311 716 324 716 Q338 716 338 702 L338 594 Z M392 594 Q392 581 378 581 Q365 581 365 594 L365 702 Q365 716 378 716 Q392 716 392 702 L392 594 Z M284 270 Q284 257 270 257 Q257 257 257 270 L257 378 Q257 392 270 392 Q284 392 284 378 L284 270 Z M338 324 Q338 311 324 311 Q311 311 311 324 L311 432 Q311 446 324 446 Q338 446 338 432 L338 324 Z M554 594 Q554 581 540 581 Q527 581 527 594 L527 702 Q527 716 540 716 Q554 716 554 702 L554 594 Z M230 0 Q230 -13 216 -13 Q203 -13 203 0 L203 108 Q203 122 216 122 Q230 122 230 108 L230 0 Z M446 0 Q446 -13 432 -13 Q419 -13 419 0 L419 108 Q419 122 432 122 Q446 122 446 108 L446 0 Z M338 0 Q338 -13 324 -13 Q311 -13 311 0 L311 108 Q311 122 324 122 Q338 122 338 108 L338 0 Z M68 0 Q68 -13 54 -13 Q41 -13 41 0 L41 108 Q41 122 54 122 Q68 122 68 108 L68 0 Z M392 0 Q392 -13 378 -13 Q365 -13 365 0 L365 108 Q365 122 378 122 Q392 122 392 108 L392 0 Z M500 0 Q500 -13 486 -13 Q473 -13 473 0 L473 108 Q473 122 486 122 Q500 122 500 108 L500 0 Z M554 0 Q554 -13 540 -13 Q527 -13 527 0 L527 108 Q527 122 540 122 Q554 122 554 108 L554 0 Z M284 0 Q284 -13 270 -13 Q257 -13 257 0 L257 108 Q257 122 270 122 Q284 122 284 108 L284 0 Z " />
<glyph glyph-name="a" unicode="a" horiz-adv-x="486" d="M338 54 Q338 41 324 41 Q311 41 311 54 L311 540 Q311 554 324 554 Q338 554 338 540 L338 54 Z M392 0 Q392 -13 378 -13 Q365 -13 365 0 L365 486 Q365 500 378 500 Q392 500 392 486 L392 0 Z M122 0 Q122 -13 108 -13 Q95 -13 95 0 L95 270 Q95 284 108 284 Q122 284 122 270 L122 0 Z M68 54 Q68 41 54 41 Q41 41 41 54 L41 216 Q41 230 54 230 Q68 230 68 216 L68 54 Z M122 378 Q122 365 108 365 Q95 365 95 378 L95 540 Q95 554 108 554 Q122 554 122 540 L122 378 Z M176 162 Q176 149 162 149 Q149 149 149 162 L149 324 Q149 338 162 338 Q176 338 176 324 L176 162 Z M284 270 Q284 257 270 257 Q257 257 257 270 L257 378 Q257 392 270 392 Q284 392 284 378 L284 270 Z M176 432 Q176 419 162 419 Q149 419 149 432 L149 540 Q149 554 162 554 Q176 554 176 540 L176 432 Z M68 378 Q68 365 54 365 Q41 365 41 378 L41 486 Q41 500 54 500 Q68 500 68 486 L68 378 Z M284 54 Q284 41 270 41 Q257 41 257 54 L257 162 Q257 176 270 176 Q284 176 284 162 L284 54 Z M284 432 Q284 419 270 419 Q257 419 257 432 L257 540 Q257 554 270 554 Q284 554 284 540 L284 432 Z M230 432 Q230 419 216 419 Q203 419 203 432 L203 540 Q203 554 216 554 Q230 554 230 540 L230 432 Z M230 216 Q230 203 216 203 Q203 203 203 216 L203 324 Q203 338 216 338 Q230 338 230 324 L230 216 Z M446 0 Q446 -13 432 -13 Q419 -13 419 0 L419 108 Q419 122 432 122 Q446 122 446 108 L446 0 Z M230 0 Q230 -13 216 -13 Q203 -13 203 0 L203 108 Q203 122 216 122 Q230 122 230 108 L230 0 Z M176 0 Q176 -13 162 -13 Q149 -13 149 0 L149 108 Q149 122 162 122 Q176 122 176 108 L176 0 Z " />
<glyph glyph-name="b" unicode="b" horiz-adv-x="540" d="M122 0 Q122 -13 108 -13 Q95 -13 95 0 L95 702 Q95 716 108 716 Q122 716 122 702 L122 0 Z M68 0 Q68 -13 54 -13 Q41 -13 41 0 L41 702 Q41 716 54 716 Q68 716 68 702 L68 0 Z M446 54 Q446 41 432 41 Q419 41 419 54 L419 486 Q419 500 432 500 Q446 500 446 486 L446 54 Z M500 108 Q500 95 486 95 Q473 95 473 108 L473 432 Q473 446 486 446 Q500 446 500 432 L500 108 Z M392 378 Q392 365 378 365 Q365 365 365 378 L365 540 Q365 554 378 554 Q392 554 392 540 L392 378 Z M392 0 Q392 -13 378 -13 Q365 -13 365 0 L365 162 Q365 176 378 176 Q392 176 392 162 L392 0 Z M176 324 Q176 311 162 311 Q149 311 149 324 L149 432 Q149 446 162 446 Q176 446 176 432 L176 324 Z M230 378 Q230 365 216 365 Q203 365 203 378 L203 486 Q203 500 216 500 Q230 500 230 486 L230 378 Z M284 432 Q284 419 270 419 Q257 419 257 432 L257 540 Q257 554 270 554 Q284 554 284 540 L284 432 Z M176 54 Q176 41 162 41 Q149 41 149 54 L149 162 Q149 176 162 176 Q176 176 176 162 L176 54 Z M338 432 Q338 419 324 419 Q311 419 311 432 L311 540 Q311 554 324 554 Q338 554 338 540 L338 432 Z M338 0 Q338 -13 324 -13 Q311 -13 311 0 L311 108 Q311 122 324 122 Q338 122 338 108 L338 0 Z M284 0 Q284 -13 270 -13 Q257 -13 257 0 L257 108 Q257 122 270 122 Q284 122 284 108 L284 0 Z M230 0 Q230 -13 216 -13 Q203 -13 203 0 L203 108 Q203 122 216 122 Q230 122 230 108 L230 0 Z " />
<glyph glyph-name="c" unicode="c" horiz-adv-x="540" d="M122 54 Q122 41 108 41 Q95 41 95 54 L95 486 Q95 500 108 500 Q122 500 122 486 L122 54 Z M68 162 Q68 149 54 149 Q41 149 41 162 L41 378 Q41 392 54 392 Q68 392 68 378 L68 162 Z M392 378 Q392 365 378 365 Q365 365 365 378 L365 540 Q365 554 378 554 Q392 554 392 540 L392 378 Z M446 54 Q446 41 432 41 Q419 41 419 54 L419 216 Q419 230 432 230 Q446 230 446 216 L446 54 Z M446 324 Q446 311 432 311 Q419 311 419 324 L419 486 Q419 500 432 500 Q446 500 446 486 L446 324 Z M176 378 Q176 365 162 365 Q149 365 149 378 L149 540 Q149 554 162 554 Q176 554 176 540 L176 378 Z M392 0 Q392 -13 378 -13 Q365 -13 365 0 L365 162 Q365 176 378 176 Q392 176 392 162 L392 0 Z M176 0 Q176 -13 162 -13 Q149 -13 149 0 L149 162 Q149 176 162 176 Q176 176 176 162 L176 0 Z M284 432 Q284 419 270 419 Q257 419 257 432 L257 540 Q257 554 270 554 Q284 554 284 540 L284 432 Z M230 432 Q230 419 216 419 Q203 419 203 432 L203 540 Q203 554 216 554 Q230 554 230 540 L230 432 Z M338 432 Q338 419 324 419 Q311 419 311 432 L311 540 Q311 554 324 554 Q338 554 338 540 L338 432 Z M500 108 Q500 95 486 95 Q473 95 473 108 L473 216 Q473 230 486 230 Q500 230 500 216 L500 108 Z M500 324 Q500 311 486 311 Q473 311 473 324 L473 432 Q473 446 486 446 Q500 446 500 432 L500 324 Z M230 0 Q230 -13 216 -13 Q203 -13 203 0 L203 108 Q203 122 216 122 Q230 122 230 108 L230 0 Z M284 0 Q284 -13 270 -13 Q257 -13 257 0 L257 108 Q257 122 270 122 Q284 122 284 108 L284 0 Z M338 0 Q338 -13 324 -13 Q311 -13 311 0 L311 108 Q311 122 324 122 Q338 122 338 108 L338 0 Z " />
<glyph glyph-name="d" unicode="d" horiz-adv-x="540" d="M446 0 Q446 -13 432 -13 Q419 -13 419 0 L419 702 Q419 716 432 716 Q446 716 446 702 L446 0 Z M500 0 Q500 -13 486 -13 Q473 -13 473 0 L473 702 Q473 716 486 716 Q500 716 500 702 L500 0 Z M122 54 Q122 41 108 41 Q95 41 95 54 L95 486 Q95 500 108 500 Q122 500 122 486 L122 54 Z M68 108 Q68 95 54 95 Q41 95 41 108 L41 432 Q41 446 54 446 Q68 446 68 432 L68 108 Z M176 378 Q176 365 162 365 Q149 365 149 378 L149 540 Q149 554 162 554 Q176 554 176 540 L176 378 Z M176 0 Q176 -13 162 -13 Q149 -13 149 0 L149 162 Q149 176 162 176 Q176 176 176 162 L176 0 Z M392 378 Q392 365 378 365 Q365 365 365 378 L365 486 Q365 500 378 500 Q392 500 392 486 L392 378 Z M284 432 Q284 419 270 419 Q257 419 257 432 L257 540 Q257 554 270 554 Q284 554 284 540 L284 432 Z M230 432 Q230 419 216 419 Q203 419 203 432 L203 540 Q203 554 216 554 Q230 554 230 540 L230 432 Z M338 432 Q338 419 324 419 Q311 419 311 432 L311 540 Q311 554 324 554 Q338 554 338 540 L338 432 Z M392 54 Q392 41 378 41 Q365 41 365 54 L365 162 Q365 176 378 176 Q392 176 392 162 L392 54 Z M230 0 Q230 -13 216 -13 Q203 -13 203 0 L203 108 Q203 122 216 122 Q230 122 230 108 L230 0 Z M284 0 Q284 -13 270 -13 Q257 -13 257 0 L257 108 Q257 122 270 122 Q284 122 284 108 L284 0 Z M338 0 Q338 -13 324 -13 Q311 -13 311 0 L311 108 Q311 122 324 122 Q338 122 338 108 L338 0 Z " />
<glyph glyph-name="e" unicode="e" horiz-adv-x="486" d="M122 54 Q122 41 108 41 Q95 41 95 54 L95 486 Q95 500 108 500 Q122 500 122 486 L122 54 Z M68 108 Q68 95 54 95 Q41 95 41 108 L41 432 Q41 446 54 446 Q68 446 68 432 L68 108 Z M392 216 Q392 203 378 203 Q365 203 365 216 L365 486 Q365 500 378 500 Q392 500 392 486 L392 216 Z M446 216 Q446 203 432 203 Q419 203 419 216 L419 432 Q419 446 432 446 Q446 446 446 432 L446 216 Z M176 378 Q176 365 162 365 Q149 365 149 378 L149 540 Q149 554 162 554 Q176 554 176 540 L176 378 Z M338 378 Q338 365 324 365 Q311 365 311 378 L311 540 Q311 554 324 554 Q338 554 338 540 L338 378 Z M176 0 Q176 -13 162 -13 Q149 -13 149 0 L149 162 Q149 176 162 176 Q176 176 176 162 L176 0 Z M338 0 Q338 -13 324 -13 Q311 -13 311 0 L311 162 Q311 176 324 176 Q338 176 338 162 L338 0 Z M176 216 Q176 203 162 203 Q149 203 149 216 L149 324 Q149 338 162 338 Q176 338 176 324 L176 216 Z M392 54 Q392 41 378 41 Q365 41 365 54 L365 162 Q365 176 378 176 Q392 176 392 162 L392 54 Z M284 216 Q284 203 270 203 Q257 203 257 216 L257 324 Q257 338 270 338 Q284 338 284 324 L284 216 Z M284 432 Q284 419 270 419 Q257 419 257 432 L257 540 Q257 554 270 554 Q284 554 284 540 L284 432 Z M230 216 Q230 203 216 203 Q203 203 203 216 L203 324 Q203 338 216 338 Q230 338 230 324 L230 216 Z M230 432 Q230 419 216 419 Q203 419 203 432 L203 540 Q203 554 216 554 Q230 554 230 540 L230 432 Z M338 216 Q338 203 324 203 Q311 203 311 216 L311 324 Q311 338 324 338 Q338 338 338 324 L338 216 Z M230 0 Q230 -13 216 -13 Q203 -13 203 0 L203 108 Q203 122 216 122 Q230 122 230 108 L230 0 Z M284 0 Q284 -13 270 -13 Q257 -13 257 0 L257 108 Q257 122 270 122 Q284 122 284 108 L284 0 Z M446 108 Q446 95 432 95 Q419 95 419 108 L419 162 Q419 176 432 176 Q446 176 446 162 L446 108 Z " />
<glyph glyph-name="f" unicode="f" horiz-adv-x="378" d="M230 0 Q230 -13 216 -13 Q203 -13 203 0 L203 702 Q203 716 216 716 Q230 716 230 702 L230 0 Z M176 0 Q176 -13 162 -13 Q149 -13 149 0 L149 648 Q149 662 162 662 Q176 662 176 648 L176 0 Z M122 432 Q122 419 108 419 Q95 419 95 432 L95 540 Q95 554 108 554 Q122 554 122 540 L122 432 Z M338 594 Q338 581 324 581 Q311 581 311 594 L311 702 Q311 716 324 716 Q338 716 338 702 L338 594 Z M284 594 Q284 581 270 581 Q257 581 257 594 L257 702 Q257 716 270 716 Q284 716 284 702 L284 594 Z M68 432 Q68 419 54 419 Q41 419 41 432 L41 540 Q41 554 54 554 Q68 554 68 540 L68 432 Z M284 432 Q284 419 270 419 Q257 419 257 432 L257 540 Q257 554 270 554 Q284 554 284 540 L284 432 Z M338 432 Q338 419 324 419 Q311 419 311 432 L311 540 Q311 554 324 554 Q338 554 338 540 L338 432 Z " />
<glyph glyph-name="g" unicode="g" horiz-adv-x="540" d="M230 -54 Q230 -67 216 -67 Q203 -67 203 -54 L203 324 Q203 338 216 338 Q230 338 230 324 L230 -54 Z M392 216 Q392 203 378 203 Q365 203 365 216 L365 540 Q365 554 378 554 Q392 554 392 540 L392 216 Z M122 -216 Q122 -229 108 -229 Q95 -229 95 -216 L95 108 Q95 122 108 122 Q122 122 122 108 L122 -216 Z M176 216 Q176 203 162 203 Q149 203 149 216 L149 486 Q149 500 162 500 Q176 500 176 486 L176 216 Z M446 -216 Q446 -229 432 -229 Q419 -229 419 -216 L419 54 Q419 68 432 68 Q446 68 446 54 L446 -216 Z M176 -54 Q176 -67 162 -67 Q149 -67 149 -54 L149 162 Q149 176 162 176 Q176 176 176 162 L176 -54 Z M122 270 Q122 257 108 257 Q95 257 95 270 L95 432 Q95 446 108 446 Q122 446 122 432 L122 270 Z M284 108 Q284 95 270 95 Q257 95 257 108 L257 270 Q257 284 270 284 Q284 284 284 270 L284 108 Z M338 162 Q338 149 324 149 Q311 149 311 162 L311 324 Q311 338 324 338 Q338 338 338 324 L338 162 Z M230 378 Q230 365 216 365 Q203 365 203 378 L203 540 Q203 554 216 554 Q230 554 230 540 L230 378 Z M338 378 Q338 365 324 365 Q311 365 311 378 L311 540 Q311 554 324 554 Q338 554 338 540 L338 378 Z M68 -162 Q68 -175 54 -175 Q41 -175 41 -162 L41 0 Q41 14 54 14 Q68 14 68 0 L68 -162 Z M500 -162 Q500 -175 486 -175 Q473 -175 473 -162 L473 0 Q473 14 486 14 Q500 14 500 0 L500 -162 Z M176 -216 Q176 -229 162 -229 Q149 -229 149 -216 L149 -108 Q149 -94 162 -94 Q176 -94 176 -108 L176 -216 Z M284 -216 Q284 -229 270 -229 Q257 -229 257 -216 L257 -108 Q257 -94 270 -94 Q284 -94 284 -108 L284 -216 Z M446 270 Q446 257 432 257 Q419 257 419 270 L419 378 Q419 392 432 392 Q446 392 446 378 L446 270 Z M230 -216 Q230 -229 216 -229 Q203 -229 203 -216 L203 -108 Q203 -94 216 -94 Q230 -94 230 -108 L230 -216 Z M338 -216 Q338 -229 324 -229 Q311 -229 311 -216 L311 -108 Q311 -94 324 -94 Q338 -94 338 -108 L338 -216 Z M392 -216 Q392 -229 378 -229 Q365 -229 365 -216 L365 -108 Q365 -94 378 -94 Q392 -94 392 -108 L392 -216 Z M284 432 Q284 419 270 419 Q257 419 257 432 L257 540 Q257 554 270 554 Q284 554 284 540 L284 432 Z M446 432 Q446 419 432 419 Q419 419 419 432 L419 540 Q419 554 432 554 Q446 554 446 540 L446 432 Z M500 432 Q500 419 486 419 Q473 419 473 432 L473 540 Q473 554 486 554 Q500 554 500 540 L500 432 Z M338 -54 Q338 -67 324 -67 Q311 -67 311 -54 L311 54 Q311 68 324 68 Q338 68 338 54 L338 -54 Z M284 -54 Q284 -67 270 -67 Q257 -67 257 -54 L257 54 Q257 68 270 68 Q284 68 284 54 L284 -54 Z M392 -54 Q392 -67 378 -67 Q365 -67 365 -54 L365 54 Q365 68 378 68 Q392 68 392 54 L392 -54 Z " />
<glyph glyph-name="h" unicode="h" horiz-adv-x="486" d="M122 0 Q122 -13 108 -13 Q95 -13 95 0 L95 702 Q95 716 108 716 Q122 716 122 702 L122 0 Z M68 0 Q68 -13 54 -13 Q41 -13 41 0 L41 702 Q41 716 54 716 Q68 716 68 702 L68 0 Z M392 0 Q392 -13 378 -13 Q365 -13 365 0 L365 486 Q365 500 378 500 Q392 500 392 486 L392 0 Z M446 0 Q446 -13 432 -13 Q419 -13 419 0 L419 432 Q419 446 432 446 Q446 446 446 432 L446 0 Z M230 378 Q230 365 216 365 Q203 365 203 378 L203 540 Q203 554 216 554 Q230 554 230 540 L230 378 Z M338 378 Q338 365 324 365 Q311 365 311 378 L311 540 Q311 554 324 554 Q338 554 338 540 L338 378 Z M176 324 Q176 311 162 311 Q149 311 149 324 L149 486 Q149 500 162 500 Q176 500 176 486 L176 324 Z M284 432 Q284 419 270 419 Q257 419 257 432 L257 540 Q257 554 270 554 Q284 554 284 540 L284 432 Z " />
<glyph glyph-name="i" unicode="i" horiz-adv-x="162" d="M122 0 Q122 -13 108 -13 Q95 -13 95 0 L95 540 Q95 554 108 554 Q122 554 122 540 L122 0 Z M68 0 Q68 -13 54 -13 Q41 -13 41 0 L41 540 Q41 554 54 554 Q68 554 68 540 L68 0 Z M122 594 Q122 581 108 581 Q95 581 95 594 L95 702 Q95 716 108 716 Q122 716 122 702 L122 594 Z M68 594 Q68 581 54 581 Q41 581 41 594 L41 702 Q41 716 54 716 Q68 716 68 702 L68 594 Z " />
<glyph glyph-name="j" unicode="j" horiz-adv-x="162" d="M68 -162 Q68 -175 54 -175 Q41 -175 41 -162 L41 540 Q41 554 54 554 Q68 554 68 540 L68 -162 Z M122 -108 Q122 -121 108 -121 Q95 -121 95 -108 L95 540 Q95 554 108 554 Q122 554 122 540 L122 -108 Z M-41 -162 Q-40 -175 -54 -175 Q-68 -175 -68 -162 L-68 -54 Q-68 -40 -54 -40 Q-40 -40 -41 -54 L-41 -162 Z M-95 -162 Q-94 -175 -108 -175 Q-122 -175 -122 -162 L-122 -54 Q-122 -40 -108 -40 Q-94 -40 -95 -54 L-95 -162 Z M122 594 Q122 581 108 581 Q95 581 95 594 L95 702 Q95 716 108 716 Q122 716 122 702 L122 594 Z M68 594 Q68 581 54 581 Q41 581 41 594 L41 702 Q41 716 54 716 Q68 716 68 702 L68 594 Z M14 -162 Q14 -175 0 -175 Q-14 -175 -14 -162 L-14 -54 Q-14 -40 0 -40 Q14 -40 14 -54 L14 -162 Z " />
<glyph glyph-name="k" unicode="k" horiz-adv-x="486" d="M122 0 Q122 -13 108 -13 Q95 -13 95 0 L95 702 Q95 716 108 716 Q122 716 122 702 L122 0 Z M68 0 Q68 -13 54 -13 Q41 -13 41 0 L41 702 Q41 716 54 716 Q68 716 68 702 L68 0 Z M284 162 Q284 149 270 149 Q257 149 257 162 L257 432 Q257 446 270 446 Q284 446 284 432 L284 162 Z M392 0 Q392 -13 378 -13 Q365 -13 365 0 L365 216 Q365 230 378 230 Q392 230 392 216 L392 0 Z M176 162 Q176 149 162 149 Q149 149 149 162 L149 324 Q149 338 162 338 Q176 338 176 324 L176 162 Z M338 324 Q338 311 324 311 Q311 311 311 324 L311 486 Q311 500 324 500 Q338 500 338 486 L338 324 Z M392 378 Q392 365 378 365 Q365 365 365 378 L365 540 Q365 554 378 554 Q392 554 392 540 L392 378 Z M338 108 Q338 95 324 95 Q311 95 311 108 L311 270 Q311 284 324 284 Q338 284 338 270 L338 108 Z M230 216 Q230 203 216 203 Q203 203 203 216 L203 378 Q203 392 216 392 Q230 392 230 378 L230 216 Z M446 0 Q446 -13 432 -13 Q419 -13 419 0 L419 162 Q419 176 432 176 Q446 176 446 162 L446 0 Z M446 432 Q446 419 432 419 Q419 419 419 432 L419 540 Q419 554 432 554 Q446 554 446 540 L446 432 Z " />
<glyph glyph-name="l" unicode="l" horiz-adv-x="216" d="M122 0 Q122 -13 108 -13 Q95 -13 95 0 L95 702 Q95 716 108 716 Q122 716 122 702 L122 0 Z M68 54 Q68 41 54 41 Q41 41 41 54 L41 702 Q41 716 54 716 Q68 716 68 702 L68 54 Z M176 0 Q176 -13 162 -13 Q149 -13 149 0 L149 108 Q149 122 162 122 Q176 122 176 108 L176 0 Z " />
<glyph glyph-name="m" unicode="m" horiz-adv-x="702" d="M122 0 Q122 -13 108 -13 Q95 -13 95 0 L95 540 Q95 554 108 554 Q122 554 122 540 L122 0 Z M68 0 Q68 -13 54 -13 Q41 -13 41 0 L41 540 Q41 554 54 554 Q68 554 68 540 L68 0 Z M338 0 Q338 -13 324 -13 Q311 -13 311 0 L311 486 Q311 500 324 500 Q338 500 338 486 L338 0 Z M608 0 Q608 -13 594 -13 Q581 -13 581 0 L581 486 Q581 500 594 500 Q608 500 608 486 L608 0 Z M662 0 Q662 -13 648 -13 Q635 -13 635 0 L635 432 Q635 446 648 446 Q662 446 662 432 L662 0 Z M392 0 Q392 -13 378 -13 Q365 -13 365 0 L365 432 Q365 446 378 446 Q392 446 392 432 L392 0 Z M284 378 Q284 365 270 365 Q257 365 257 378 L257 540 Q257 554 270 554 Q284 554 284 540 L284 378 Z M554 378 Q554 365 540 365 Q527 365 527 378 L527 540 Q527 554 540 554 Q554 554 554 540 L554 378 Z M500 432 Q500 419 486 419 Q473 419 473 432 L473 540 Q473 554 486 554 Q500 554 500 540 L500 432 Z M176 378 Q176 365 162 365 Q149 365 149 378 L149 486 Q149 500 162 500 Q176 500 176 486 L176 378 Z M446 378 Q446 365 432 365 Q419 365 419 378 L419 486 Q419 500 432 500 Q446 500 446 486 L446 378 Z M230 432 Q230 419 216 419 Q203 419 203 432 L203 540 Q203 554 216 554 Q230 554 230 540 L230 432 Z " />
<glyph glyph-name="n" unicode="n" horiz-adv-x="486" d="M122 0 Q122 -13 108 -13 Q95 -13 95 0 L95 540 Q95 554 108 554 Q122 554 122 540 L122 0 Z M68 0 Q68 -13 54 -13 Q41 -13 41 0 L41 540 Q41 554 54 554 Q68 554 68 540 L68 0 Z M392 0 Q392 -13 378 -13 Q365 -13 365 0 L365 486 Q365 500 378 500 Q392 500 392 486 L392 0 Z M446 0 Q446 -13 432 -13 Q419 -13 419 0 L419 432 Q419 446 432 446 Q446 446 446 432 L446 0 Z M338 378 Q338 365 324 365 Q311 365 311 378 L311 540 Q311 554 324 554 Q338 554 338 540 L338 378 Z M176 378 Q176 365 162 365 Q149 365 149 378 L149 486 Q149 500 162 500 Q176 500 176 486 L176 378 Z M284 432 Q284 419 270 419 Q257 419 257 432 L257 540 Q257 554 270 554 Q284 554 284 540 L284 432 Z M230 432 Q230 419 216 419 Q203 419 203 432 L203 540 Q203 554 216 554 Q230 554 230 540 L230 432 Z " />
<glyph glyph-name="o" unicode="o" horiz-adv-x="486" d="M122 54 Q122 41 108 41 Q95 41 95 54 L95 486 Q95 500 108 500 Q122 500 122 486 L122 54 Z M392 54 Q392 41 378 41 Q365 41 365 54 L365 486 Q365 500 378 500 Q392 500 392 486 L392 54 Z M68 108 Q68 95 54 95 Q41 95 41 108 L41 432 Q41 446 54 446 Q68 446 68 432 L68 108 Z M446 108 Q446 95 432 95 Q419 95 419 108 L419 432 Q419 446 432 446 Q446 446 446 432 L446 108 Z M176 378 Q176 365 162 365 Q149 365 149 378 L149 540 Q149 554 162 554 Q176 554 176 540 L176 378 Z M338 378 Q338 365 324 365 Q311 365 311 378 L311 540 Q311 554 324 554 Q338 554 338 540 L338 378 Z M176 0 Q176 -13 162 -13 Q149 -13 149 0 L149 162 Q149 176 162 176 Q176 176 176 162 L176 0 Z M338 0 Q338 -13 324 -13 Q311 -13 311 0 L311 162 Q311 176 324 176 Q338 176 338 162 L338 0 Z M284 432 Q284 419 270 419 Q257 419 257 432 L257 540 Q257 554 270 554 Q284 554 284 540 L284 432 Z M230 432 Q230 419 216 419 Q203 419 203 432 L203 540 Q203 554 216 554 Q230 554 230 540 L230 432 Z M230 0 Q230 -13 216 -13 Q203 -13 203 0 L203 108 Q203 122 216 122 Q230 122 230 108 L230 0 Z M284 0 Q284 -13 270 -13 Q257 -13 257 0 L257 108 Q257 122 270 122 Q284 122 284 108 L284 0 Z " />
<glyph glyph-name="p" unicode="p" horiz-adv-x="486" d="M122 -216 Q122 -229 108 -229 Q95 -229 95 -216 L95 540 Q95 554 108 554 Q122 554 122 540 L122 -216 Z M68 -216 Q68 -229 54 -229 Q41 -229 41 -216 L41 540 Q41 554 54 554 Q68 554 68 540 L68 -216 Z M392 54 Q392 41 378 41 Q365 41 365 54 L365 486 Q365 500 378 500 Q392 500 392 486 L392 54 Z M446 108 Q446 95 432 95 Q419 95 419 108 L419 432 Q419 446 432 446 Q446 446 446 432 L446 108 Z M338 378 Q338 365 324 365 Q311 365 311 378 L311 540 Q311 554 324 554 Q338 554 338 540 L338 378 Z M338 0 Q338 -13 324 -13 Q311 -13 311 0 L311 162 Q311 176 324 176 Q338 176 338 162 L338 0 Z M176 378 Q176 365 162 365 Q149 365 149 378 L149 486 Q149 500 162 500 Q176 500 176 486 L176 378 Z M176 54 Q176 41 162 41 Q149 41 149 54 L149 162 Q149 176 162 176 Q176 176 176 162 L176 54 Z M284 432 Q284 419 270 419 Q257 419 257 432 L257 540 Q257 554 270 554 Q284 554 284 540 L284 432 Z M230 432 Q230 419 216 419 Q203 419 203 432 L203 540 Q203 554 216 554 Q230 554 230 540 L230 432 Z M230 0 Q230 -13 216 -13 Q203 -13 203 0 L203 108 Q203 122 216 122 Q230 122 230 108 L230 0 Z M284 0 Q284 -13 270 -13 Q257 -13 257 0 L257 108 Q257 122 270 122 Q284 122 284 108 L284 0 Z " />
<glyph glyph-name="q" unicode="q" horiz-adv-x="486" d="M392 -216 Q392 -229 378 -229 Q365 -229 365 -216 L365 540 Q365 554 378 554 Q392 554 392 540 L392 -216 Z M446 -216 Q446 -229 432 -229 Q419 -229 419 -216 L419 540 Q419 554 432 554 Q446 554 446 540 L446 -216 Z M122 54 Q122 41 108 41 Q95 41 95 54 L95 486 Q95 500 108 500 Q122 500 122 486 L122 54 Z M68 108 Q68 95 54 95 Q41 95 41 108 L41 432 Q41 446 54 446 Q68 446 68 432 L68 108 Z M176 378 Q176 365 162 365 Q149 365 149 378 L149 540 Q149 554 162 554 Q176 554 176 540 L176 378 Z M176 0 Q176 -13 162 -13 Q149 -13 149 0 L149 162 Q149 176 162 176 Q176 176 176 162 L176 0 Z M338 378 Q338 365 324 365 Q311 365 311 378 L311 486 Q311 500 324 500 Q338 500 338 486 L338 378 Z M338 54 Q338 41 324 41 Q311 41 311 54 L311 162 Q311 176 324 176 Q338 176 338 162 L338 54 Z M284 432 Q284 419 270 419 Q257 419 257 432 L257 540 Q257 554 270 554 Q284 554 284 540 L284 432 Z M230 432 Q230 419 216 419 Q203 419 203 432 L203 540 Q203 554 216 554 Q230 554 230 540 L230 432 Z M230 0 Q230 -13 216 -13 Q203 -13 203 0 L203 108 Q203 122 216 122 Q230 122 230 108 L230 0 Z M284 0 Q284 -13 270 -13 Q257 -13 257 0 L257 108 Q257 122 270 122 Q284 122 284 108 L284 0 Z " />
<glyph glyph-name="r" unicode="r" horiz-adv-x="378" d="M122 0 Q122 -13 108 -13 Q95 -13 95 0 L95 540 Q95 554 108 554 Q122 554 122 540 L122 0 Z M68 0 Q68 -13 54 -13 Q41 -13 41 0 L41 540 Q41 554 54 554 Q68 554 68 540 L68 0 Z M284 378 Q284 365 270 365 Q257 365 257 378 L257 540 Q257 554 270 554 Q284 554 284 540 L284 378 Z M176 378 Q176 365 162 365 Q149 365 149 378 L149 486 Q149 500 162 500 Q176 500 176 486 L176 378 Z M338 378 Q338 365 324 365 Q311 365 311 378 L311 486 Q311 500 324 500 Q338 500 338 486 L338 378 Z M230 432 Q230 419 216 419 Q203 419 203 432 L203 540 Q203 554 216 554 Q230 554 230 540 L230 432 Z " />
<glyph glyph-name="s" unicode="s" horiz-adv-x="486" d="M392 54 Q392 41 378 41 Q365 41 365 54 L365 270 Q365 284 378 284 Q392 284 392 270 L392 54 Z M122 270 Q122 257 108 257 Q95 257 95 270 L95 486 Q95 500 108 500 Q122 500 122 486 L122 270 Z M392 324 Q392 311 378 311 Q365 311 365 324 L365 486 Q365 500 378 500 Q392 500 392 486 L392 324 Z M338 378 Q338 365 324 365 Q311 365 311 378 L311 540 Q311 554 324 554 Q338 554 338 540 L338 378 Z M122 54 Q122 41 108 41 Q95 41 95 54 L95 216 Q95 230 108 230 Q122 230 122 216 L122 54 Z M176 0 Q176 -13 162 -13 Q149 -13 149 0 L149 162 Q149 176 162 176 Q176 176 176 162 L176 0 Z M446 108 Q446 95 432 95 Q419 95 419 108 L419 216 Q419 230 432 230 Q446 230 446 216 L446 108 Z M68 324 Q68 311 54 311 Q41 311 41 324 L41 432 Q41 446 54 446 Q68 446 68 432 L68 324 Z M446 324 Q446 311 432 311 Q419 311 419 324 L419 432 Q419 446 432 446 Q446 446 446 432 L446 324 Z M338 162 Q338 149 324 149 Q311 149 311 162 L311 270 Q311 284 324 284 Q338 284 338 270 L338 162 Z M176 432 Q176 419 162 419 Q149 419 149 432 L149 540 Q149 554 162 554 Q176 554 176 540 L176 432 Z M284 216 Q284 203 270 203 Q257 203 257 216 L257 324 Q257 338 270 338 Q284 338 284 324 L284 216 Z M284 432 Q284 419 270 419 Q257 419 257 432 L257 540 Q257 554 270 554 Q284 554 284 540 L284 432 Z M230 432 Q230 419 216 419 Q203 419 203 432 L203 540 Q203 554 216 554 Q230 554 230 540 L230 432 Z M230 216 Q230 203 216 203 Q203 203 203 216 L203 324 Q203 338 216 338 Q230 338 230 324 L230 216 Z M176 270 Q176 257 162 257 Q149 257 149 270 L149 378 Q149 392 162 392 Q176 392 176 378 L176 270 Z M68 108 Q68 95 54 95 Q41 95 41 108 L41 216 Q41 230 54 230 Q68 230 68 216 L68 108 Z M230 0 Q230 -13 216 -13 Q203 -13 203 0 L203 108 Q203 122 216 122 Q230 122 230 108 L230 0 Z M284 0 Q284 -13 270 -13 Q257 -13 257 0 L257 108 Q257 122 270 122 Q284 122 284 108 L284 0 Z M338 0 Q338 -13 324 -13 Q311 -13 311 0 L311 108 Q311 122 324 122 Q338 122 338 108 L338 0 Z " />
<glyph glyph-name="t" unicode="t" horiz-adv-x="432" d="M230 0 Q230 -13 216 -13 Q203 -13 203 0 L203 702 Q203 716 216 716 Q230 716 230 702 L230 0 Z M176 54 Q176 41 162 41 Q149 41 149 54 L149 702 Q149 716 162 716 Q176 716 176 702 L176 54 Z M338 0 Q338 -13 324 -13 Q311 -13 311 0 L311 162 Q311 176 324 176 Q338 176 338 162 L338 0 Z M392 432 Q392 419 378 419 Q365 419 365 432 L365 540 Q365 554 378 554 Q392 554 392 540 L392 432 Z M392 54 Q392 41 378 41 Q365 41 365 54 L365 162 Q365 176 378 176 Q392 176 392 162 L392 54 Z M122 432 Q122 419 108 419 Q95 419 95 432 L95 540 Q95 554 108 554 Q122 554 122 540 L122 432 Z M68 432 Q68 419 54 419 Q41 419 41 432 L41 540 Q41 554 54 554 Q68 554 68 540 L68 432 Z M284 432 Q284 419 270 419 Q257 419 257 432 L257 540 Q257 554 270 554 Q284 554 284 540 L284 432 Z M338 432 Q338 419 324 419 Q311 419 311 432 L311 540 Q311 554 324 554 Q338 554 338 540 L338 432 Z M284 0 Q284 -13 270 -13 Q257 -13 257 0 L257 108 Q257 122 270 122 Q284 122 284 108 L284 0 Z " />
<glyph glyph-name="u" unicode="u" horiz-adv-x="486" d="M392 0 Q392 -13 378 -13 Q365 -13 365 0 L365 540 Q365 554 378 554 Q392 554 392 540 L392 0 Z M446 0 Q446 -13 432 -13 Q419 -13 419 0 L419 540 Q419 554 432 554 Q446 554 446 540 L446 0 Z M122 54 Q122 41 108 41 Q95 41 95 54 L95 540 Q95 554 108 554 Q122 554 122 540 L122 54 Z M68 108 Q68 95 54 95 Q41 95 41 108 L41 540 Q41 554 54 554 Q68 554 68 540 L68 108 Z M176 0 Q176 -13 162 -13 Q149 -13 149 0 L149 162 Q149 176 162 176 Q176 176 176 162 L176 0 Z M338 54 Q338 41 324 41 Q311 41 311 54 L311 162 Q311 176 324 176 Q338 176 338 162 L338 54 Z M230 0 Q230 -13 216 -13 Q203 -13 203 0 L203 108 Q203 122 216 122 Q230 122 230 108 L230 0 Z M284 0 Q284 -13 270 -13 Q257 -13 257 0 L257 108 Q257 122 270 122 Q284 122 284 108 L284 0 Z " />
<glyph glyph-name="v" unicode="v" horiz-adv-x="594" d="M230 108 Q230 95 216 95 Q203 95 203 108 L203 324 Q203 338 216 338 Q230 338 230 324 L230 108 Z M392 108 Q392 95 378 95 Q365 95 365 108 L365 324 Q365 338 378 338 Q392 338 392 324 L392 108 Z M446 216 Q446 203 432 203 Q419 203 419 216 L419 432 Q419 446 432 446 Q446 446 446 432 L446 216 Z M176 216 Q176 203 162 203 Q149 203 149 216 L149 432 Q149 446 162 446 Q176 446 176 432 L176 216 Z M122 324 Q122 311 108 311 Q95 311 95 324 L95 540 Q95 554 108 554 Q122 554 122 540 L122 324 Z M500 324 Q500 311 486 311 Q473 311 473 324 L473 540 Q473 554 486 554 Q500 554 500 540 L500 324 Z M284 0 Q284 -13 270 -13 Q257 -13 257 0 L257 216 Q257 230 270 230 Q284 230 284 216 L284 0 Z M338 0 Q338 -13 324 -13 Q311 -13 311 0 L311 216 Q311 230 324 230 Q338 230 338 216 L338 0 Z M554 432 Q554 419 540 419 Q527 419 527 432 L527 540 Q527 554 540 554 Q554 554 554 540 L554 432 Z M68 432 Q68 419 54 419 Q41 419 41 432 L41 540 Q41 554 54 554 Q68 554 68 540 L68 432 Z " />
<glyph glyph-name="w" unicode="w" horiz-adv-x="810" d="M176 108 Q176 95 162 95 Q149 95 149 108 L149 378 Q149 392 162 392 Q176 392 176 378 L176 108 Z M338 108 Q338 95 324 95 Q311 95 311 108 L311 378 Q311 392 324 392 Q338 392 338 378 L338 108 Z M122 270 Q122 257 108 257 Q95 257 95 270 L95 540 Q95 554 108 554 Q122 554 122 540 L122 270 Z M392 270 Q392 257 378 257 Q365 257 365 270 L365 540 Q365 554 378 554 Q392 554 392 540 L392 270 Z M500 108 Q500 95 486 95 Q473 95 473 108 L473 378 Q473 392 486 392 Q500 392 500 378 L500 108 Z M446 270 Q446 257 432 257 Q419 257 419 270 L419 540 Q419 554 432 554 Q446 554 446 540 L446 270 Z M662 108 Q662 95 648 95 Q635 95 635 108 L635 378 Q635 392 648 392 Q662 392 662 378 L662 108 Z M716 270 Q716 257 702 257 Q689 257 689 270 L689 540 Q689 554 702 554 Q716 554 716 540 L716 270 Z M554 0 Q554 -13 540 -13 Q527 -13 527 0 L527 270 Q527 284 540 284 Q554 284 554 270 L554 0 Z M608 0 Q608 -13 594 -13 Q581 -13 581 0 L581 270 Q581 284 594 284 Q608 284 608 270 L608 0 Z M284 0 Q284 -13 270 -13 Q257 -13 257 0 L257 270 Q257 284 270 284 Q284 284 284 270 L284 0 Z M230 0 Q230 -13 216 -13 Q203 -13 203 0 L203 270 Q203 284 216 284 Q230 284 230 270 L230 0 Z M770 378 Q770 365 756 365 Q743 365 743 378 L743 540 Q743 554 756 554 Q770 554 770 540 L770 378 Z M68 378 Q68 365 54 365 Q41 365 41 378 L41 540 Q41 554 54 554 Q68 554 68 540 L68 378 Z " />
<glyph glyph-name="x" unicode="x" horiz-adv-x="486" d="M176 108 Q176 95 162 95 Q149 95 149 108 L149 432 Q149 446 162 446 Q176 446 176 432 L176 108 Z M338 108 Q338 95 324 95 Q311 95 311 108 L311 432 Q311 446 324 446 Q338 446 338 432 L338 108 Z M122 324 Q122 311 108 311 Q95 311 95 324 L95 540 Q95 554 108 554 Q122 554 122 540 L122 324 Z M392 324 Q392 311 378 311 Q365 311 365 324 L365 540 Q365 554 378 554 Q392 554 392 540 L392 324 Z M392 0 Q392 -13 378 -13 Q365 -13 365 0 L365 216 Q365 230 378 230 Q392 230 392 216 L392 0 Z M122 0 Q122 -13 108 -13 Q95 -13 95 0 L95 216 Q95 230 108 230 Q122 230 122 216 L122 0 Z M284 216 Q284 203 270 203 Q257 203 257 216 L257 378 Q257 392 270 392 Q284 392 284 378 L284 216 Z M230 216 Q230 203 216 203 Q203 203 203 216 L203 378 Q203 392 216 392 Q230 392 230 378 L230 216 Z M446 0 Q446 -13 432 -13 Q419 -13 419 0 L419 162 Q419 176 432 176 Q446 176 446 162 L446 0 Z M68 0 Q68 -13 54 -13 Q41 -13 41 0 L41 162 Q41 176 54 176 Q68 176 68 162 L68 0 Z M68 432 Q68 419 54 419 Q41 419 41 432 L41 540 Q41 554 54 554 Q68 554 68 540 L68 432 Z M446 432 Q446 419 432 419 Q419 419 419 432 L419 540 Q419 554 432 554 Q446 554 446 540 L446 432 Z " />
<glyph glyph-name="y" unicode="y" horiz-adv-x="594" d="M176 108 Q176 95 162 95 Q149 95 149 108 L149 378 Q149 392 162 392 Q176 392 176 378 L176 108 Z M446 108 Q446 95 432 95 Q419 95 419 108 L419 378 Q419 392 432 392 Q446 392 446 378 L446 108 Z M500 270 Q500 257 486 257 Q473 257 473 270 L473 540 Q473 554 486 554 Q500 554 500 540 L500 270 Z M122 270 Q122 257 108 257 Q95 257 95 270 L95 540 Q95 554 108 554 Q122 554 122 540 L122 270 Z M392 0 Q392 -13 378 -13 Q365 -13 365 0 L365 270 Q365 284 378 284 Q392 284 392 270 L392 0 Z M230 0 Q230 -13 216 -13 Q203 -13 203 0 L203 270 Q203 284 216 284 Q230 284 230 270 L230 0 Z M284 -162 Q284 -175 270 -175 Q257 -175 257 -162 L257 108 Q257 122 270 122 Q284 122 284 108 L284 -162 Z M338 -108 Q338 -121 324 -121 Q311 -121 311 -108 L311 108 Q311 122 324 122 Q338 122 338 108 L338 -108 Z M554 378 Q554 365 540 365 Q527 365 527 378 L527 540 Q527 554 540 554 Q554 554 554 540 L554 378 Z M122 -216 Q122 -229 108 -229 Q95 -229 95 -216 L95 -54 Q95 -40 108 -40 Q122 -40 122 -54 L122 -216 Z M230 -216 Q230 -229 216 -229 Q203 -229 203 -216 L203 -54 Q203 -40 216 -40 Q230 -40 230 -54 L230 -216 Z M68 378 Q68 365 54 365 Q41 365 41 378 L41 540 Q41 554 54 554 Q68 554 68 540 L68 378 Z M68 -162 Q68 -175 54 -175 Q41 -175 41 -162 L41 -54 Q41 -40 54 -40 Q68 -40 68 -54 L68 -162 Z M176 -216 Q176 -229 162 -229 Q149 -229 149 -216 L149 -108 Q149 -94 162 -94 Q176 -94 176 -108 L176 -216 Z " />
<glyph glyph-name="z" unicode="z" horiz-adv-x="432" d="M338 270 Q338 257 324 257 Q311 257 311 270 L311 540 Q311 554 324 554 Q338 554 338 540 L338 270 Z M176 0 Q176 -13 162 -13 Q149 -13 149 0 L149 270 Q149 284 162 284 Q176 284 176 270 L176 0 Z M392 324 Q392 311 378 311 Q365 311 365 324 L365 540 Q365 554 378 554 Q392 554 392 540 L392 324 Z M122 0 Q122 -13 108 -13 Q95 -13 95 0 L95 216 Q95 230 108 230 Q122 230 122 216 L122 0 Z M230 162 Q230 149 216 149 Q203 149 203 162 L203 324 Q203 338 216 338 Q230 338 230 324 L230 162 Z M284 216 Q284 203 270 203 Q257 203 257 216 L257 378 Q257 392 270 392 Q284 392 284 378 L284 216 Z M68 0 Q68 -13 54 -13 Q41 -13 41 0 L41 162 Q41 176 54 176 Q68 176 68 162 L68 0 Z M176 432 Q176 419 162 419 Q149 419 149 432 L149 540 Q149 554 162 554 Q176 554 176 540 L176 432 Z M122 432 Q122 419 108 419 Q95 419 95 432 L95 540 Q95 554 108 554 Q122 554 122 540 L122 432 Z M68 432 Q68 419 54 419 Q41 419 41 432 L41 540 Q41 554 54 554 Q68 554 68 540 L68 432 Z M284 432 Q284 419 270 419 Q257 419 257 432 L257 540 Q257 554 270 554 Q284 554 284 540 L284 432 Z M230 432 Q230 419 216 419 Q203 419 203 432 L203 540 Q203 554 216 554 Q230 554 230 540 L230 432 Z M230 0 Q230 -13 216 -13 Q203 -13 203 0 L203 108 Q203 122 216 122 Q230 122 230 108 L230 0 Z M338 0 Q338 -13 324 -13 Q311 -13 311 0 L311 108 Q311 122 324 122 Q338 122 338 108 L338 0 Z M392 0 Q392 -13 378 -13 Q365 -13 365 0 L365 108 Q365 122 378 122 Q392 122 392 108 L392 0 Z M284 0 Q284 -13 270 -13 Q257 -13 257 0 L257 108 Q257 122 270 122 Q284 122 284 108 L284 0 Z " />
</font>
</svg>
