<?xml version="1.0" encoding="UTF-8"?>
<svg xmlns="http://www.w3.org/2000/svg" xmlns:xlink="http://www.w3.org/1999/xlink" version="1.2" >
<font id="OffBitTrial-Bold" horiz-adv-x="525">
<font-face  font-family="OffBit Trial" units-per-em="1000" ascent="750" descent="-250" font-style="normal" font-weight="700" font-stretch="normal" cap-height="700" x-height="500" underline-position="-100" underline-thickness="50" />
<missing-glyph horiz-adv-x="500" />
<glyph glyph-name="null" horiz-adv-x="0" />
<glyph glyph-name="uni000D" unicode="&#xd;" horiz-adv-x="250" />
<glyph glyph-name="space" unicode="&#x20;" horiz-adv-x="300" />
<glyph glyph-name="zero" unicode="0" horiz-adv-x="648" d="M135 0 L135 54 L81 54 L81 108 L27 108 L27 594 L81 594 L81 648 L135 648 L135 702 L513 702 L513 648 L567 648 L567 594 L621 594 L621 108 L567 108 L567 54 L513 54 L513 0 L135 0 Z M189 270 L189 324 L243 324 L243 378 L297 378 L297 432 L351 432 L351 486 L405 486 L405 540 L459 540 L459 594 L189 594 L189 540 L135 540 L135 270 L189 270 Z M459 108 L459 162 L513 162 L513 432 L459 432 L459 378 L405 378 L405 324 L351 324 L351 270 L297 270 L297 216 L243 216 L243 162 L189 162 L189 108 L459 108 Z " />
<glyph glyph-name="one" unicode="1" horiz-adv-x="378" d="M27 0 L27 108 L135 108 L135 540 L81 540 L81 486 L27 486 L27 594 L81 594 L81 648 L135 648 L135 702 L243 702 L243 108 L351 108 L351 0 L27 0 Z " />
<glyph glyph-name="two" unicode="2" horiz-adv-x="594" d="M27 0 L27 108 L81 108 L81 162 L135 162 L135 216 L189 216 L189 270 L243 270 L243 324 L297 324 L297 378 L351 378 L351 432 L405 432 L405 486 L459 486 L459 540 L405 540 L405 594 L189 594 L189 540 L135 540 L135 432 L27 432 L27 594 L81 594 L81 648 L135 648 L135 702 L459 702 L459 648 L513 648 L513 594 L567 594 L567 432 L513 432 L513 378 L459 378 L459 324 L405 324 L405 270 L351 270 L351 216 L297 216 L297 162 L243 162 L243 108 L567 108 L567 0 L27 0 Z " />
<glyph glyph-name="three" unicode="3" horiz-adv-x="540" d="M135 0 L135 54 L81 54 L81 108 L27 108 L27 216 L135 216 L135 162 L189 162 L189 108 L351 108 L351 162 L405 162 L405 216 L351 216 L351 270 L297 270 L297 324 L135 324 L135 432 L351 432 L351 486 L405 486 L405 540 L351 540 L351 594 L189 594 L189 540 L135 540 L135 486 L27 486 L27 594 L81 594 L81 648 L135 648 L135 702 L405 702 L405 648 L459 648 L459 594 L513 594 L513 432 L459 432 L459 378 L405 378 L405 324 L459 324 L459 270 L513 270 L513 108 L459 108 L459 54 L405 54 L405 0 L135 0 Z " />
<glyph glyph-name="four" unicode="4" horiz-adv-x="702" d="M27 162 L27 270 L81 270 L81 324 L135 324 L135 378 L189 378 L189 432 L243 432 L243 486 L297 486 L297 540 L351 540 L351 594 L405 594 L405 648 L459 648 L459 702 L567 702 L567 270 L675 270 L675 162 L567 162 L567 0 L459 0 L459 162 L27 162 Z M459 270 L459 486 L405 486 L405 432 L351 432 L351 378 L297 378 L297 324 L243 324 L243 270 L459 270 Z " />
<glyph glyph-name="five" unicode="5" horiz-adv-x="594" d="M135 0 L135 54 L81 54 L81 108 L27 108 L27 216 L135 216 L135 162 L189 162 L189 108 L405 108 L405 162 L459 162 L459 270 L405 270 L405 324 L189 324 L189 270 L27 270 L27 594 L81 594 L81 702 L513 702 L513 594 L189 594 L189 540 L135 540 L135 432 L459 432 L459 378 L513 378 L513 324 L567 324 L567 108 L513 108 L513 54 L459 54 L459 0 L135 0 Z " />
<glyph glyph-name="six" unicode="6" horiz-adv-x="540" d="M135 0 L135 54 L81 54 L81 108 L27 108 L27 594 L81 594 L81 648 L135 648 L135 702 L405 702 L405 648 L459 648 L459 594 L513 594 L513 486 L405 486 L405 540 L351 540 L351 594 L189 594 L189 540 L135 540 L135 378 L189 378 L189 432 L405 432 L405 378 L459 378 L459 324 L513 324 L513 108 L459 108 L459 54 L405 54 L405 0 L135 0 Z M351 108 L351 162 L405 162 L405 270 L351 270 L351 324 L189 324 L189 270 L135 270 L135 162 L189 162 L189 108 L351 108 Z " />
<glyph glyph-name="seven" unicode="7" horiz-adv-x="540" d="M135 0 L135 162 L189 162 L189 324 L243 324 L243 432 L297 432 L297 540 L351 540 L351 594 L27 594 L27 702 L513 702 L513 594 L459 594 L459 540 L405 540 L405 432 L351 432 L351 324 L297 324 L297 162 L243 162 L243 0 L135 0 Z " />
<glyph glyph-name="eight" unicode="8" horiz-adv-x="540" d="M135 0 L135 54 L81 54 L81 108 L27 108 L27 270 L81 270 L81 324 L135 324 L135 378 L81 378 L81 432 L27 432 L27 594 L81 594 L81 648 L135 648 L135 702 L405 702 L405 648 L459 648 L459 594 L513 594 L513 432 L459 432 L459 378 L405 378 L405 324 L459 324 L459 270 L513 270 L513 108 L459 108 L459 54 L405 54 L405 0 L135 0 Z M351 108 L351 162 L405 162 L405 270 L351 270 L351 324 L189 324 L189 270 L135 270 L135 162 L189 162 L189 108 L351 108 Z M351 432 L351 486 L405 486 L405 540 L351 540 L351 594 L189 594 L189 540 L135 540 L135 486 L189 486 L189 432 L351 432 Z " />
<glyph glyph-name="nine" unicode="9" horiz-adv-x="540" d="M135 0 L135 54 L81 54 L81 108 L27 108 L27 216 L135 216 L135 162 L189 162 L189 108 L351 108 L351 162 L405 162 L405 324 L351 324 L351 270 L135 270 L135 324 L81 324 L81 378 L27 378 L27 594 L81 594 L81 648 L135 648 L135 702 L405 702 L405 648 L459 648 L459 594 L513 594 L513 108 L459 108 L459 54 L405 54 L405 0 L135 0 Z M351 378 L351 432 L405 432 L405 540 L351 540 L351 594 L189 594 L189 540 L135 540 L135 432 L189 432 L189 378 L351 378 Z " />
<glyph glyph-name="A" unicode="A" horiz-adv-x="702" d="M27 0 L27 162 L81 162 L81 270 L135 270 L135 378 L189 378 L189 540 L243 540 L243 648 L297 648 L297 702 L405 702 L405 648 L459 648 L459 540 L513 540 L513 378 L567 378 L567 270 L621 270 L621 162 L675 162 L675 0 L567 0 L567 108 L513 108 L513 162 L189 162 L189 108 L135 108 L135 0 L27 0 Z M459 270 L459 378 L405 378 L405 540 L297 540 L297 378 L243 378 L243 270 L459 270 Z " />
<glyph glyph-name="B" unicode="B" horiz-adv-x="594" d="M27 0 L27 702 L405 702 L405 648 L459 648 L459 594 L513 594 L513 432 L459 432 L459 324 L513 324 L513 270 L567 270 L567 108 L513 108 L513 54 L459 54 L459 0 L27 0 Z M351 378 L351 432 L405 432 L405 540 L351 540 L351 594 L135 594 L135 378 L351 378 Z M405 108 L405 162 L459 162 L459 216 L405 216 L405 270 L135 270 L135 108 L405 108 Z " />
<glyph glyph-name="C" unicode="C" horiz-adv-x="594" d="M135 0 L135 54 L81 54 L81 162 L27 162 L27 540 L81 540 L81 648 L135 648 L135 702 L459 702 L459 648 L513 648 L513 540 L567 540 L567 432 L459 432 L459 486 L405 486 L405 594 L189 594 L189 486 L135 486 L135 216 L189 216 L189 108 L405 108 L405 216 L459 216 L459 270 L567 270 L567 162 L513 162 L513 54 L459 54 L459 0 L135 0 Z " />
<glyph glyph-name="D" unicode="D" horiz-adv-x="594" d="M27 0 L27 702 L405 702 L405 648 L459 648 L459 594 L513 594 L513 540 L567 540 L567 162 L513 162 L513 108 L459 108 L459 54 L405 54 L405 0 L27 0 Z M351 108 L351 162 L405 162 L405 216 L459 216 L459 486 L405 486 L405 540 L351 540 L351 594 L135 594 L135 108 L351 108 Z " />
<glyph glyph-name="E" unicode="E" horiz-adv-x="540" d="M27 0 L27 702 L513 702 L513 594 L135 594 L135 432 L459 432 L459 324 L135 324 L135 108 L513 108 L513 0 L27 0 Z " />
<glyph glyph-name="F" unicode="F" horiz-adv-x="540" d="M27 0 L27 702 L513 702 L513 594 L135 594 L135 378 L459 378 L459 270 L135 270 L135 0 L27 0 Z " />
<glyph glyph-name="G" unicode="G" horiz-adv-x="648" d="M135 0 L135 54 L81 54 L81 108 L27 108 L27 594 L81 594 L81 648 L135 648 L135 702 L513 702 L513 648 L567 648 L567 594 L621 594 L621 432 L513 432 L513 540 L459 540 L459 594 L189 594 L189 540 L135 540 L135 162 L189 162 L189 108 L351 108 L351 162 L405 162 L405 216 L459 216 L459 270 L351 270 L351 378 L621 378 L621 0 L513 0 L513 108 L459 108 L459 54 L405 54 L405 0 L135 0 Z " />
<glyph glyph-name="H" unicode="H" horiz-adv-x="540" d="M27 0 L27 702 L135 702 L135 378 L405 378 L405 702 L513 702 L513 0 L405 0 L405 270 L135 270 L135 0 L27 0 Z " />
<glyph glyph-name="I" unicode="I" horiz-adv-x="162" d="M27 0 L27 702 L135 702 L135 0 L27 0 Z " />
<glyph glyph-name="J" unicode="J" horiz-adv-x="486" d="M135 0 L135 54 L81 54 L81 108 L27 108 L27 216 L135 216 L135 162 L189 162 L189 108 L297 108 L297 162 L351 162 L351 702 L459 702 L459 108 L405 108 L405 54 L351 54 L351 0 L135 0 Z " />
<glyph glyph-name="K" unicode="K" horiz-adv-x="540" d="M27 0 L27 702 L135 702 L135 432 L189 432 L189 486 L243 486 L243 540 L297 540 L297 594 L351 594 L351 648 L405 648 L405 702 L513 702 L513 594 L459 594 L459 540 L405 540 L405 486 L351 486 L351 432 L297 432 L297 378 L243 378 L243 324 L297 324 L297 270 L351 270 L351 216 L405 216 L405 162 L459 162 L459 108 L513 108 L513 0 L405 0 L405 54 L351 54 L351 108 L297 108 L297 162 L243 162 L243 216 L189 216 L189 270 L135 270 L135 0 L27 0 Z " />
<glyph glyph-name="L" unicode="L" horiz-adv-x="486" d="M27 0 L27 702 L135 702 L135 108 L459 108 L459 0 L27 0 Z " />
<glyph glyph-name="M" unicode="M" horiz-adv-x="702" d="M27 0 L27 702 L135 702 L135 648 L189 648 L189 540 L243 540 L243 432 L297 432 L297 324 L405 324 L405 432 L459 432 L459 540 L513 540 L513 648 L567 648 L567 702 L675 702 L675 0 L567 0 L567 432 L513 432 L513 324 L459 324 L459 216 L405 216 L405 108 L297 108 L297 216 L243 216 L243 324 L189 324 L189 432 L135 432 L135 0 L27 0 Z " />
<glyph glyph-name="N" unicode="N" horiz-adv-x="594" d="M27 0 L27 702 L135 702 L135 648 L189 648 L189 540 L243 540 L243 486 L297 486 L297 378 L351 378 L351 324 L405 324 L405 216 L459 216 L459 702 L567 702 L567 0 L459 0 L459 54 L405 54 L405 108 L351 108 L351 162 L297 162 L297 270 L243 270 L243 324 L189 324 L189 432 L135 432 L135 0 L27 0 Z " />
<glyph glyph-name="O" unicode="O" horiz-adv-x="648" d="M189 0 L189 54 L135 54 L135 108 L81 108 L81 216 L27 216 L27 486 L81 486 L81 594 L135 594 L135 648 L189 648 L189 702 L459 702 L459 648 L513 648 L513 594 L567 594 L567 486 L621 486 L621 216 L567 216 L567 108 L513 108 L513 54 L459 54 L459 0 L189 0 Z M405 108 L405 162 L459 162 L459 270 L513 270 L513 432 L459 432 L459 540 L405 540 L405 594 L243 594 L243 540 L189 540 L189 432 L135 432 L135 270 L189 270 L189 162 L243 162 L243 108 L405 108 Z " />
<glyph glyph-name="P" unicode="P" horiz-adv-x="540" d="M27 0 L27 702 L405 702 L405 648 L459 648 L459 594 L513 594 L513 378 L459 378 L459 324 L405 324 L405 270 L135 270 L135 0 L27 0 Z M351 378 L351 432 L405 432 L405 540 L351 540 L351 594 L135 594 L135 378 L351 378 Z " />
<glyph glyph-name="Q" unicode="Q" horiz-adv-x="648" d="M189 0 L189 54 L135 54 L135 108 L81 108 L81 162 L27 162 L27 540 L81 540 L81 594 L135 594 L135 648 L189 648 L189 702 L459 702 L459 648 L513 648 L513 594 L567 594 L567 540 L621 540 L621 162 L567 162 L567 108 L513 108 L513 54 L459 54 L459 0 L405 0 L405 -54 L567 -54 L567 0 L621 0 L621 -108 L567 -108 L567 -162 L405 -162 L405 -108 L351 -108 L351 -54 L297 -54 L297 0 L189 0 Z M405 108 L405 162 L459 162 L459 216 L513 216 L513 486 L459 486 L459 540 L405 540 L405 594 L243 594 L243 540 L189 540 L189 486 L135 486 L135 216 L189 216 L189 162 L243 162 L243 108 L405 108 Z " />
<glyph glyph-name="R" unicode="R" horiz-adv-x="594" d="M27 0 L27 702 L459 702 L459 648 L513 648 L513 594 L567 594 L567 378 L513 378 L513 324 L459 324 L459 270 L513 270 L513 216 L567 216 L567 0 L459 0 L459 162 L405 162 L405 216 L351 216 L351 270 L135 270 L135 0 L27 0 Z M405 378 L405 432 L459 432 L459 540 L405 540 L405 594 L135 594 L135 378 L405 378 Z " />
<glyph glyph-name="S" unicode="S" horiz-adv-x="594" d="M135 0 L135 54 L81 54 L81 108 L27 108 L27 216 L135 216 L135 162 L189 162 L189 108 L405 108 L405 162 L459 162 L459 270 L405 270 L405 324 L135 324 L135 378 L81 378 L81 432 L27 432 L27 594 L81 594 L81 648 L135 648 L135 702 L459 702 L459 648 L513 648 L513 594 L567 594 L567 486 L459 486 L459 540 L405 540 L405 594 L189 594 L189 540 L135 540 L135 486 L189 486 L189 432 L459 432 L459 378 L513 378 L513 324 L567 324 L567 108 L513 108 L513 54 L459 54 L459 0 L135 0 Z " />
<glyph glyph-name="T" unicode="T" horiz-adv-x="594" d="M243 0 L243 594 L27 594 L27 702 L567 702 L567 594 L351 594 L351 0 L243 0 Z " />
<glyph glyph-name="U" unicode="U" horiz-adv-x="540" d="M135 0 L135 54 L81 54 L81 108 L27 108 L27 702 L135 702 L135 162 L189 162 L189 108 L351 108 L351 162 L405 162 L405 702 L513 702 L513 108 L459 108 L459 54 L405 54 L405 0 L135 0 Z " />
<glyph glyph-name="V" unicode="V" horiz-adv-x="702" d="M297 0 L297 54 L243 54 L243 162 L189 162 L189 270 L135 270 L135 432 L81 432 L81 540 L27 540 L27 702 L135 702 L135 540 L189 540 L189 432 L243 432 L243 270 L297 270 L297 162 L405 162 L405 270 L459 270 L459 432 L513 432 L513 540 L567 540 L567 702 L675 702 L675 540 L621 540 L621 432 L567 432 L567 270 L513 270 L513 162 L459 162 L459 54 L405 54 L405 0 L297 0 Z " />
<glyph glyph-name="W" unicode="W" horiz-adv-x="1026" d="M243 0 L243 162 L189 162 L189 324 L135 324 L135 486 L81 486 L81 594 L27 594 L27 702 L135 702 L135 594 L189 594 L189 486 L243 486 L243 324 L351 324 L351 486 L405 486 L405 594 L459 594 L459 702 L567 702 L567 594 L621 594 L621 486 L675 486 L675 324 L783 324 L783 486 L837 486 L837 594 L891 594 L891 702 L999 702 L999 594 L945 594 L945 486 L891 486 L891 324 L837 324 L837 162 L783 162 L783 0 L675 0 L675 162 L621 162 L621 324 L567 324 L567 486 L459 486 L459 324 L405 324 L405 162 L351 162 L351 0 L243 0 Z " />
<glyph glyph-name="X" unicode="X" horiz-adv-x="702" d="M27 0 L27 108 L81 108 L81 162 L135 162 L135 270 L189 270 L189 324 L243 324 L243 378 L189 378 L189 432 L135 432 L135 540 L81 540 L81 594 L27 594 L27 702 L135 702 L135 648 L189 648 L189 594 L243 594 L243 486 L297 486 L297 432 L405 432 L405 486 L459 486 L459 594 L513 594 L513 648 L567 648 L567 702 L675 702 L675 594 L621 594 L621 540 L567 540 L567 432 L513 432 L513 378 L459 378 L459 324 L513 324 L513 270 L567 270 L567 162 L621 162 L621 108 L675 108 L675 0 L567 0 L567 54 L513 54 L513 108 L459 108 L459 216 L405 216 L405 270 L297 270 L297 216 L243 216 L243 108 L189 108 L189 54 L135 54 L135 0 L27 0 Z " />
<glyph glyph-name="Y" unicode="Y" horiz-adv-x="702" d="M297 0 L297 324 L243 324 L243 378 L189 378 L189 432 L135 432 L135 540 L81 540 L81 594 L27 594 L27 702 L135 702 L135 648 L189 648 L189 594 L243 594 L243 486 L297 486 L297 432 L405 432 L405 486 L459 486 L459 594 L513 594 L513 648 L567 648 L567 702 L675 702 L675 594 L621 594 L621 540 L567 540 L567 432 L513 432 L513 378 L459 378 L459 324 L405 324 L405 0 L297 0 Z " />
<glyph glyph-name="a" unicode="a" horiz-adv-x="486" d="M81 0 L81 54 L27 54 L27 216 L81 216 L81 270 L135 270 L135 324 L243 324 L243 378 L297 378 L297 432 L135 432 L135 378 L27 378 L27 486 L81 486 L81 540 L351 540 L351 486 L405 486 L405 108 L459 108 L459 0 L351 0 L351 54 L243 54 L243 0 L81 0 Z M243 108 L243 162 L297 162 L297 270 L243 270 L243 216 L189 216 L189 162 L135 162 L135 108 L243 108 Z " />
<glyph glyph-name="b" unicode="b" horiz-adv-x="540" d="M27 0 L27 702 L135 702 L135 432 L189 432 L189 486 L243 486 L243 540 L405 540 L405 486 L459 486 L459 432 L513 432 L513 108 L459 108 L459 54 L405 54 L405 0 L189 0 L189 54 L135 54 L135 0 L27 0 Z M351 108 L351 162 L405 162 L405 378 L351 378 L351 432 L243 432 L243 378 L189 378 L189 324 L135 324 L135 162 L189 162 L189 108 L351 108 Z " />
<glyph glyph-name="c" unicode="c" horiz-adv-x="540" d="M135 0 L135 54 L81 54 L81 162 L27 162 L27 378 L81 378 L81 486 L135 486 L135 540 L405 540 L405 486 L459 486 L459 432 L513 432 L513 324 L405 324 L405 378 L351 378 L351 432 L189 432 L189 378 L135 378 L135 162 L189 162 L189 108 L351 108 L351 162 L405 162 L405 216 L513 216 L513 108 L459 108 L459 54 L405 54 L405 0 L135 0 Z " />
<glyph glyph-name="d" unicode="d" horiz-adv-x="540" d="M135 0 L135 54 L81 54 L81 108 L27 108 L27 432 L81 432 L81 486 L135 486 L135 540 L351 540 L351 486 L405 486 L405 702 L513 702 L513 0 L405 0 L405 54 L351 54 L351 0 L135 0 Z M351 108 L351 162 L405 162 L405 378 L351 378 L351 432 L189 432 L189 378 L135 378 L135 162 L189 162 L189 108 L351 108 Z " />
<glyph glyph-name="e" unicode="e" horiz-adv-x="486" d="M135 0 L135 54 L81 54 L81 108 L27 108 L27 432 L81 432 L81 486 L135 486 L135 540 L351 540 L351 486 L405 486 L405 432 L459 432 L459 216 L135 216 L135 162 L189 162 L189 108 L297 108 L297 162 L459 162 L459 108 L405 108 L405 54 L351 54 L351 0 L135 0 Z M351 324 L351 378 L297 378 L297 432 L189 432 L189 378 L135 378 L135 324 L351 324 Z " />
<glyph glyph-name="f" unicode="f" horiz-adv-x="378" d="M135 0 L135 432 L27 432 L27 540 L135 540 L135 648 L189 648 L189 702 L351 702 L351 594 L243 594 L243 540 L351 540 L351 432 L243 432 L243 0 L135 0 Z " />
<glyph glyph-name="g" unicode="g" horiz-adv-x="540" d="M81 0 L81 108 L135 108 L135 162 L189 162 L189 216 L135 216 L135 270 L81 270 L81 432 L135 432 L135 486 L189 486 L189 540 L513 540 L513 432 L405 432 L405 378 L459 378 L459 270 L405 270 L405 216 L351 216 L351 162 L297 162 L297 108 L243 108 L243 54 L459 54 L459 0 L513 0 L513 -162 L459 -162 L459 -216 L81 -216 L81 -162 L27 -162 L27 0 L81 0 Z M405 -108 L405 -54 L135 -54 L135 -108 L405 -108 Z M297 270 L297 324 L351 324 L351 378 L297 378 L297 432 L243 432 L243 378 L189 378 L189 324 L243 324 L243 270 L297 270 Z " />
<glyph glyph-name="h" unicode="h" horiz-adv-x="486" d="M27 0 L27 702 L135 702 L135 486 L189 486 L189 540 L351 540 L351 486 L405 486 L405 432 L459 432 L459 0 L351 0 L351 378 L297 378 L297 432 L243 432 L243 378 L189 378 L189 324 L135 324 L135 0 L27 0 Z " />
<glyph glyph-name="i" unicode="i" horiz-adv-x="162" d="M27 0 L27 540 L135 540 L135 0 L27 0 Z M27 594 L27 702 L135 702 L135 594 L27 594 Z " />
<glyph glyph-name="j" unicode="j" horiz-adv-x="162" d="M-135 -162 L-135 -54 L27 -54 L27 540 L135 540 L135 -108 L81 -108 L81 -162 L-135 -162 Z M27 594 L27 702 L135 702 L135 594 L27 594 Z " />
<glyph glyph-name="k" unicode="k" horiz-adv-x="486" d="M27 0 L27 702 L135 702 L135 324 L189 324 L189 378 L243 378 L243 432 L297 432 L297 486 L351 486 L351 540 L459 540 L459 432 L405 432 L405 378 L351 378 L351 324 L297 324 L297 270 L351 270 L351 216 L405 216 L405 162 L459 162 L459 0 L351 0 L351 108 L297 108 L297 162 L243 162 L243 216 L189 216 L189 162 L135 162 L135 0 L27 0 Z " />
<glyph glyph-name="l" unicode="l" horiz-adv-x="216" d="M81 0 L81 54 L27 54 L27 702 L135 702 L135 108 L189 108 L189 0 L81 0 Z " />
<glyph glyph-name="m" unicode="m" horiz-adv-x="702" d="M27 0 L27 540 L135 540 L135 486 L189 486 L189 540 L297 540 L297 486 L351 486 L351 432 L405 432 L405 486 L459 486 L459 540 L567 540 L567 486 L621 486 L621 432 L675 432 L675 0 L567 0 L567 378 L513 378 L513 432 L459 432 L459 378 L405 378 L405 0 L297 0 L297 378 L243 378 L243 432 L189 432 L189 378 L135 378 L135 0 L27 0 Z " />
<glyph glyph-name="n" unicode="n" horiz-adv-x="486" d="M27 0 L27 540 L135 540 L135 486 L189 486 L189 540 L351 540 L351 486 L405 486 L405 432 L459 432 L459 0 L351 0 L351 378 L297 378 L297 432 L189 432 L189 378 L135 378 L135 0 L27 0 Z " />
<glyph glyph-name="o" unicode="o" horiz-adv-x="486" d="M135 0 L135 54 L81 54 L81 108 L27 108 L27 432 L81 432 L81 486 L135 486 L135 540 L351 540 L351 486 L405 486 L405 432 L459 432 L459 108 L405 108 L405 54 L351 54 L351 0 L135 0 Z M297 108 L297 162 L351 162 L351 378 L297 378 L297 432 L189 432 L189 378 L135 378 L135 162 L189 162 L189 108 L297 108 Z " />
<glyph glyph-name="p" unicode="p" horiz-adv-x="486" d="M27 -216 L27 540 L135 540 L135 486 L189 486 L189 540 L351 540 L351 486 L405 486 L405 432 L459 432 L459 108 L405 108 L405 54 L351 54 L351 0 L189 0 L189 54 L135 54 L135 -216 L27 -216 Z M297 108 L297 162 L351 162 L351 378 L297 378 L297 432 L189 432 L189 378 L135 378 L135 162 L189 162 L189 108 L297 108 Z " />
<glyph glyph-name="q" unicode="q" horiz-adv-x="486" d="M135 0 L135 54 L81 54 L81 108 L27 108 L27 432 L81 432 L81 486 L135 486 L135 540 L297 540 L297 486 L351 486 L351 540 L459 540 L459 -216 L351 -216 L351 54 L297 54 L297 0 L135 0 Z M297 108 L297 162 L351 162 L351 378 L297 378 L297 432 L189 432 L189 378 L135 378 L135 162 L189 162 L189 108 L297 108 Z " />
<glyph glyph-name="r" unicode="r" horiz-adv-x="378" d="M27 0 L27 540 L135 540 L135 486 L189 486 L189 540 L297 540 L297 486 L351 486 L351 378 L243 378 L243 432 L189 432 L189 378 L135 378 L135 0 L27 0 Z " />
<glyph glyph-name="s" unicode="s" horiz-adv-x="486" d="M135 0 L135 54 L81 54 L81 108 L27 108 L27 216 L135 216 L135 162 L189 162 L189 108 L351 108 L351 162 L297 162 L297 216 L189 216 L189 270 L81 270 L81 324 L27 324 L27 432 L81 432 L81 486 L135 486 L135 540 L351 540 L351 486 L405 486 L405 432 L459 432 L459 324 L351 324 L351 378 L297 378 L297 432 L135 432 L135 378 L189 378 L189 324 L297 324 L297 270 L405 270 L405 216 L459 216 L459 108 L405 108 L405 54 L351 54 L351 0 L135 0 Z " />
<glyph glyph-name="t" unicode="t" horiz-adv-x="432" d="M189 0 L189 54 L135 54 L135 432 L27 432 L27 540 L135 540 L135 702 L243 702 L243 540 L405 540 L405 432 L243 432 L243 108 L297 108 L297 162 L405 162 L405 54 L351 54 L351 0 L189 0 Z " />
<glyph glyph-name="u" unicode="u" horiz-adv-x="486" d="M135 0 L135 54 L81 54 L81 108 L27 108 L27 540 L135 540 L135 162 L189 162 L189 108 L297 108 L297 162 L351 162 L351 540 L459 540 L459 0 L351 0 L351 54 L297 54 L297 0 L135 0 Z " />
<glyph glyph-name="v" unicode="v" horiz-adv-x="594" d="M243 0 L243 108 L189 108 L189 216 L135 216 L135 324 L81 324 L81 432 L27 432 L27 540 L135 540 L135 432 L189 432 L189 324 L243 324 L243 216 L351 216 L351 324 L405 324 L405 432 L459 432 L459 540 L567 540 L567 432 L513 432 L513 324 L459 324 L459 216 L405 216 L405 108 L351 108 L351 0 L243 0 Z " />
<glyph glyph-name="w" unicode="w" horiz-adv-x="810" d="M189 0 L189 108 L135 108 L135 270 L81 270 L81 378 L27 378 L27 540 L135 540 L135 378 L189 378 L189 270 L297 270 L297 378 L351 378 L351 540 L459 540 L459 378 L513 378 L513 270 L621 270 L621 378 L675 378 L675 540 L783 540 L783 378 L729 378 L729 270 L675 270 L675 108 L621 108 L621 0 L513 0 L513 108 L459 108 L459 270 L351 270 L351 108 L297 108 L297 0 L189 0 Z " />
<glyph glyph-name="x" unicode="x" horiz-adv-x="486" d="M27 0 L27 162 L81 162 L81 216 L135 216 L135 324 L81 324 L81 432 L27 432 L27 540 L135 540 L135 432 L189 432 L189 378 L297 378 L297 432 L351 432 L351 540 L459 540 L459 432 L405 432 L405 324 L351 324 L351 216 L405 216 L405 162 L459 162 L459 0 L351 0 L351 108 L297 108 L297 216 L189 216 L189 108 L135 108 L135 0 L27 0 Z " />
<glyph glyph-name="y" unicode="y" horiz-adv-x="594" d="M189 0 L189 108 L135 108 L135 270 L81 270 L81 378 L27 378 L27 540 L135 540 L135 378 L189 378 L189 270 L243 270 L243 108 L351 108 L351 270 L405 270 L405 378 L459 378 L459 540 L567 540 L567 378 L513 378 L513 270 L459 270 L459 108 L405 108 L405 0 L351 0 L351 -108 L297 -108 L297 -162 L243 -162 L243 -216 L81 -216 L81 -162 L27 -162 L27 -54 L135 -54 L135 -108 L189 -108 L189 -54 L243 -54 L243 0 L189 0 Z " />
</font>
</svg>
