<?xml version="1.0" encoding="UTF-8"?>
<svg xmlns="http://www.w3.org/2000/svg" xmlns:xlink="http://www.w3.org/1999/xlink" version="1.2" >
<font id="OffBitTrial-101Bold" horiz-adv-x="524">
<font-face  font-family="OffBit Trial" units-per-em="1000" ascent="750" descent="-250" font-style="normal" font-weight="700" font-stretch="normal" cap-height="700" x-height="500" underline-position="-100" underline-thickness="50" />
<missing-glyph horiz-adv-x="500" />
<glyph glyph-name="null" horiz-adv-x="0" />
<glyph glyph-name="uni000D" unicode="&#xd;" horiz-adv-x="250" />
<glyph glyph-name="space" unicode="&#x20;" horiz-adv-x="300" />
<glyph glyph-name="zero" unicode="0" horiz-adv-x="648" d="M118 54 Q81 54 81 91 L81 108 L64 108 Q27 108 27 145 L27 557 Q27 594 64 594 L81 594 L81 611 Q81 648 118 648 L135 648 L135 665 Q135 702 172 702 L476 702 Q513 702 513 665 L513 648 L530 648 Q567 648 567 611 L567 594 L584 594 Q621 594 621 557 L621 145 Q621 108 584 108 L567 108 L567 91 Q567 54 530 54 L513 54 L513 37 Q513 0 476 0 L172 0 Q135 0 135 37 L135 54 L118 54 Z M189 270 L189 287 Q189 324 226 324 L243 324 L243 341 Q243 378 280 378 L297 378 L297 395 Q297 432 334 432 L351 432 L351 449 Q351 486 388 486 L405 486 L405 503 Q405 540 442 540 L459 540 L459 594 L189 594 L189 577 Q189 540 152 540 L135 540 L135 270 L189 270 Z M459 108 L459 162 L513 162 L513 432 L459 432 L459 415 Q459 378 422 378 L405 378 L405 361 Q405 324 368 324 L351 324 L351 307 Q351 270 314 270 L297 270 L297 253 Q297 216 260 216 L243 216 L243 199 Q243 162 206 162 L189 162 L189 108 L459 108 Z " />
<glyph glyph-name="one" unicode="1" horiz-adv-x="378" d="M27 0 L27 108 L135 108 L135 540 L81 540 L81 486 L27 486 L27 557 Q27 594 64 594 L81 594 L81 611 Q81 648 118 648 L135 648 L135 665 Q135 702 172 702 L206 702 Q243 702 243 665 L243 108 L351 108 L351 0 L280 0 Q243 0 243 37 L243 54 L135 54 L135 37 Q135 0 98 0 L27 0 Z " />
<glyph glyph-name="two" unicode="2" horiz-adv-x="594" d="M27 0 L27 71 Q27 108 64 108 L81 108 L81 125 Q81 162 118 162 L135 162 L135 179 Q135 216 172 216 L189 216 L189 233 Q189 270 226 270 L243 270 L243 287 Q243 324 280 324 L297 324 L297 341 Q297 378 334 378 L351 378 L351 395 Q351 432 388 432 L405 432 L405 449 Q405 486 442 486 L459 486 L459 540 L442 540 Q405 540 405 577 L405 594 L189 594 L189 577 Q189 540 152 540 L135 540 L135 432 L27 432 L27 557 Q27 594 64 594 L81 594 L81 611 Q81 648 118 648 L135 648 L135 665 Q135 702 172 702 L422 702 Q459 702 459 665 L459 648 L476 648 Q513 648 513 611 L513 594 L530 594 Q567 594 567 557 L567 469 Q567 432 530 432 L513 432 L513 415 Q513 378 476 378 L459 378 L459 361 Q459 324 422 324 L405 324 L405 307 Q405 270 368 270 L351 270 L351 253 Q351 216 314 216 L297 216 L297 199 Q297 162 260 162 L243 162 L243 108 L567 108 L567 0 L27 0 Z " />
<glyph glyph-name="three" unicode="3" horiz-adv-x="540" d="M118 54 Q81 54 81 91 L81 108 L64 108 Q27 108 27 145 L27 216 L135 216 L135 162 L152 162 Q189 162 189 125 L189 108 L351 108 L351 125 Q351 162 388 162 L405 162 L405 216 L388 216 Q351 216 351 253 L351 270 L334 270 Q297 270 297 307 L297 324 L135 324 L135 432 L351 432 L351 449 Q351 486 388 486 L405 486 L405 540 L388 540 Q351 540 351 577 L351 594 L189 594 L189 577 Q189 540 152 540 L135 540 L135 486 L27 486 L27 557 Q27 594 64 594 L81 594 L81 611 Q81 648 118 648 L135 648 L135 665 Q135 702 172 702 L368 702 Q405 702 405 665 L405 648 L422 648 Q459 648 459 611 L459 594 L476 594 Q513 594 513 557 L513 469 Q513 432 476 432 L459 432 L459 415 Q459 378 422 378 L405 378 L405 324 L422 324 Q459 324 459 287 L459 270 L476 270 Q513 270 513 233 L513 145 Q513 108 476 108 L459 108 L459 91 Q459 54 422 54 L405 54 L405 37 Q405 0 368 0 L172 0 Q135 0 135 37 L135 54 L118 54 Z " />
<glyph glyph-name="four" unicode="4" horiz-adv-x="702" d="M118 162 Q81 162 81 199 L81 216 L54 216 Q27 216 27 243 Q27 270 54 270 L81 270 L81 287 Q81 324 118 324 L135 324 L135 341 Q135 378 172 378 L189 378 L189 395 Q189 432 226 432 L243 432 L243 449 Q243 486 280 486 L297 486 L297 503 Q297 540 334 540 L351 540 L351 557 Q351 594 388 594 L405 594 L405 611 Q405 648 442 648 L459 648 L459 665 Q459 702 496 702 L530 702 Q567 702 567 665 L567 270 L675 270 L675 162 L604 162 Q567 162 567 199 L567 216 L513 216 L513 162 L530 162 Q567 162 567 125 L567 0 L459 0 L459 162 L118 162 Z M459 270 L459 486 L405 486 L405 469 Q405 432 368 432 L351 432 L351 415 Q351 378 314 378 L297 378 L297 361 Q297 324 260 324 L243 324 L243 270 L459 270 Z " />
<glyph glyph-name="five" unicode="5" horiz-adv-x="594" d="M118 54 Q81 54 81 91 L81 108 L64 108 Q27 108 27 145 L27 216 L135 216 L135 162 L152 162 Q189 162 189 125 L189 108 L405 108 L405 125 Q405 162 442 162 L459 162 L459 270 L442 270 Q405 270 405 307 L405 324 L189 324 L189 270 L27 270 L27 287 Q27 324 64 324 L81 324 L81 378 L64 378 Q27 378 27 415 L27 557 Q27 594 64 594 L81 594 L81 665 Q81 702 118 702 L513 702 L513 594 L189 594 L189 577 Q189 540 152 540 L135 540 L135 432 L422 432 Q459 432 459 395 L459 378 L476 378 Q513 378 513 341 L513 324 L530 324 Q567 324 567 287 L567 145 Q567 108 530 108 L513 108 L513 91 Q513 54 476 54 L459 54 L459 37 Q459 0 422 0 L172 0 Q135 0 135 37 L135 54 L118 54 Z " />
<glyph glyph-name="six" unicode="6" horiz-adv-x="540" d="M118 54 Q81 54 81 91 L81 108 L64 108 Q27 108 27 145 L27 557 Q27 594 64 594 L81 594 L81 611 Q81 648 118 648 L135 648 L135 665 Q135 702 172 702 L368 702 Q405 702 405 665 L405 648 L422 648 Q459 648 459 611 L459 594 L476 594 Q513 594 513 557 L513 486 L405 486 L405 540 L388 540 Q351 540 351 577 L351 594 L189 594 L189 577 Q189 540 152 540 L135 540 L135 378 L189 378 L189 395 Q189 432 226 432 L368 432 Q405 432 405 395 L405 378 L422 378 Q459 378 459 341 L459 324 L476 324 Q513 324 513 287 L513 145 Q513 108 476 108 L459 108 L459 91 Q459 54 422 54 L405 54 L405 37 Q405 0 368 0 L172 0 Q135 0 135 37 L135 54 L118 54 Z M351 125 Q351 162 388 162 L405 162 L405 270 L388 270 Q351 270 351 307 L351 324 L189 324 L189 307 Q189 270 152 270 L135 270 L135 162 L152 162 Q189 162 189 125 L189 108 L351 108 L351 125 Z " />
<glyph glyph-name="seven" unicode="7" horiz-adv-x="540" d="M135 0 L135 125 Q135 162 172 162 L189 162 L189 287 Q189 324 226 324 L243 324 L243 395 Q243 432 280 432 L297 432 L297 503 Q297 540 334 540 L351 540 L351 594 L27 594 L27 702 L476 702 Q513 702 513 665 L513 631 Q513 594 476 594 L459 594 L459 577 Q459 540 422 540 L405 540 L405 469 Q405 432 368 432 L351 432 L351 361 Q351 324 314 324 L297 324 L297 199 Q297 162 260 162 L243 162 L243 0 L135 0 Z " />
<glyph glyph-name="eight" unicode="8" horiz-adv-x="540" d="M118 54 Q81 54 81 91 L81 108 L64 108 Q27 108 27 145 L27 233 Q27 270 64 270 L81 270 L81 287 Q81 324 118 324 L135 324 L135 378 L118 378 Q81 378 81 415 L81 432 L64 432 Q27 432 27 469 L27 557 Q27 594 64 594 L81 594 L81 611 Q81 648 118 648 L135 648 L135 665 Q135 702 172 702 L368 702 Q405 702 405 665 L405 648 L422 648 Q459 648 459 611 L459 594 L476 594 Q513 594 513 557 L513 469 Q513 432 476 432 L459 432 L459 415 Q459 378 422 378 L405 378 L405 324 L422 324 Q459 324 459 287 L459 270 L476 270 Q513 270 513 233 L513 145 Q513 108 476 108 L459 108 L459 91 Q459 54 422 54 L405 54 L405 37 Q405 0 368 0 L172 0 Q135 0 135 37 L135 54 L118 54 Z M351 108 L351 125 Q351 162 388 162 L405 162 L405 270 L388 270 Q351 270 351 307 L351 324 L189 324 L189 307 Q189 270 152 270 L135 270 L135 162 L152 162 Q189 162 189 125 L189 108 L351 108 Z M351 432 L351 449 Q351 486 388 486 L405 486 L405 540 L388 540 Q351 540 351 577 L351 594 L189 594 L189 577 Q189 540 152 540 L135 540 L135 486 L152 486 Q189 486 189 449 L189 432 L351 432 Z " />
<glyph glyph-name="nine" unicode="9" horiz-adv-x="540" d="M118 54 Q81 54 81 91 L81 108 L64 108 Q27 108 27 145 L27 216 L135 216 L135 162 L152 162 Q189 162 189 125 L189 108 L351 108 L351 125 Q351 162 388 162 L405 162 L405 324 L351 324 L351 307 Q351 270 314 270 L172 270 Q135 270 135 307 L135 324 L118 324 Q81 324 81 361 L81 378 L64 378 Q27 378 27 415 L27 557 Q27 594 64 594 L81 594 L81 611 Q81 648 118 648 L135 648 L135 665 Q135 702 172 702 L368 702 Q405 702 405 665 L405 648 L422 648 Q459 648 459 611 L459 594 L476 594 Q513 594 513 557 L513 145 Q513 108 476 108 L459 108 L459 91 Q459 54 422 54 L405 54 L405 37 Q405 0 368 0 L172 0 Q135 0 135 37 L135 54 L118 54 Z M351 378 L351 395 Q351 432 388 432 L405 432 L405 540 L388 540 Q351 540 351 577 L351 594 L189 594 L189 577 Q189 540 152 540 L135 540 L135 432 L152 432 Q189 432 189 395 L189 378 L351 378 Z " />
<glyph glyph-name="A" unicode="A" horiz-adv-x="702" d="M27 0 L27 125 Q27 162 64 162 L81 162 L81 233 Q81 270 118 270 L135 270 L135 341 Q135 378 172 378 L189 378 L189 503 Q189 540 226 540 L243 540 L243 611 Q243 648 280 648 L297 648 L297 665 Q297 702 334 702 L368 702 Q405 702 405 665 L405 648 L422 648 Q459 648 459 611 L459 540 L476 540 Q513 540 513 503 L513 378 L530 378 Q567 378 567 341 L567 270 L584 270 Q621 270 621 233 L621 162 L638 162 Q675 162 675 125 L675 0 L567 0 L567 108 L550 108 Q513 108 513 145 L513 216 L459 216 L459 199 Q459 162 422 162 L280 162 Q243 162 243 199 L243 216 L189 216 L189 145 Q189 108 152 108 L135 108 L135 0 L27 0 Z M459 270 L459 378 L442 378 Q405 378 405 415 L405 540 L297 540 L297 415 Q297 378 260 378 L243 378 L243 270 L459 270 Z " />
<glyph glyph-name="B" unicode="B" horiz-adv-x="594" d="M27 0 L27 233 Q27 270 64 270 L81 270 L81 378 L64 378 Q27 378 27 415 L27 702 L368 702 Q405 702 405 665 L405 648 L422 648 Q459 648 459 611 L459 594 L476 594 Q513 594 513 557 L513 415 Q513 378 476 378 L459 378 L459 324 L476 324 Q513 324 513 287 L513 270 L530 270 Q567 270 567 233 L567 145 Q567 108 530 108 L513 108 L513 91 Q513 54 476 54 L459 54 L459 37 Q459 0 422 0 L27 0 Z M351 378 L351 395 Q351 432 388 432 L405 432 L405 540 L388 540 Q351 540 351 577 L351 594 L135 594 L135 378 L351 378 Z M405 108 L405 125 Q405 162 442 162 L459 162 L459 216 L442 216 Q405 216 405 253 L405 270 L135 270 L135 108 L405 108 Z " />
<glyph glyph-name="C" unicode="C" horiz-adv-x="594" d="M118 54 Q81 54 81 91 L81 162 L64 162 Q27 162 27 199 L27 503 Q27 540 64 540 L81 540 L81 611 Q81 648 118 648 L135 648 L135 665 Q135 702 172 702 L422 702 Q459 702 459 665 L459 648 L476 648 Q513 648 513 611 L513 540 L530 540 Q567 540 567 503 L567 432 L459 432 L459 486 L442 486 Q405 486 405 523 L405 594 L189 594 L189 523 Q189 486 152 486 L135 486 L135 216 L152 216 Q189 216 189 179 L189 108 L405 108 L405 179 Q405 216 442 216 L459 216 L459 270 L567 270 L567 199 Q567 162 530 162 L513 162 L513 91 Q513 54 476 54 L459 54 L459 37 Q459 0 422 0 L172 0 Q135 0 135 37 L135 54 L118 54 Z " />
<glyph glyph-name="D" unicode="D" horiz-adv-x="594" d="M27 0 L27 702 L368 702 Q405 702 405 665 L405 648 L422 648 Q459 648 459 611 L459 594 L476 594 Q513 594 513 557 L513 540 L530 540 Q567 540 567 503 L567 199 Q567 162 530 162 L513 162 L513 145 Q513 108 476 108 L459 108 L459 91 Q459 54 422 54 L405 54 L405 37 Q405 0 368 0 L27 0 Z M351 108 L351 125 Q351 162 388 162 L405 162 L405 179 Q405 216 442 216 L459 216 L459 486 L442 486 Q405 486 405 523 L405 540 L388 540 Q351 540 351 577 L351 594 L135 594 L135 108 L351 108 Z " />
<glyph glyph-name="E" unicode="E" horiz-adv-x="540" d="M27 0 L27 287 Q27 324 64 324 L81 324 L81 432 L64 432 Q27 432 27 469 L27 702 L513 702 L513 594 L135 594 L135 432 L459 432 L459 324 L135 324 L135 108 L513 108 L513 0 L27 0 Z " />
<glyph glyph-name="F" unicode="F" horiz-adv-x="540" d="M27 0 L27 233 Q27 270 64 270 L81 270 L81 378 L64 378 Q27 378 27 415 L27 702 L513 702 L513 594 L135 594 L135 378 L459 378 L459 270 L135 270 L135 0 L27 0 Z " />
<glyph glyph-name="G" unicode="G" horiz-adv-x="648" d="M118 54 Q81 54 81 91 L81 108 L64 108 Q27 108 27 145 L27 557 Q27 594 64 594 L81 594 L81 611 Q81 648 118 648 L135 648 L135 665 Q135 702 172 702 L476 702 Q513 702 513 665 L513 648 L530 648 Q567 648 567 611 L567 594 L584 594 Q621 594 621 557 L621 432 L513 432 L513 540 L496 540 Q459 540 459 577 L459 594 L189 594 L189 577 Q189 540 152 540 L135 540 L135 162 L152 162 Q189 162 189 125 L189 108 L351 108 L351 125 Q351 162 388 162 L405 162 L405 179 Q405 216 442 216 L459 216 L459 270 L351 270 L351 378 L584 378 Q621 378 621 341 L621 0 L513 0 L513 108 L459 108 L459 91 Q459 54 422 54 L405 54 L405 37 Q405 0 368 0 L172 0 Q135 0 135 37 L135 54 L118 54 Z " />
<glyph glyph-name="H" unicode="H" horiz-adv-x="540" d="M27 0 L27 233 Q27 270 64 270 L81 270 L81 378 L64 378 Q27 378 27 415 L27 702 L135 702 L135 378 L405 378 L405 702 L513 702 L513 415 Q513 378 476 378 L459 378 L459 270 L476 270 Q513 270 513 233 L513 0 L405 0 L405 270 L135 270 L135 0 L27 0 Z " />
<glyph glyph-name="I" unicode="I" horiz-adv-x="162" d="M27 0 L27 702 L135 702 L135 0 L27 0 Z " />
<glyph glyph-name="J" unicode="J" horiz-adv-x="486" d="M118 54 Q81 54 81 91 L81 108 L64 108 Q27 108 27 145 L27 216 L135 216 L135 162 L152 162 Q189 162 189 125 L189 108 L297 108 L297 125 Q297 162 334 162 L351 162 L351 702 L459 702 L459 145 Q459 108 422 108 L405 108 L405 91 Q405 54 368 54 L351 54 L351 37 Q351 0 314 0 L172 0 Q135 0 135 37 L135 54 L118 54 Z " />
<glyph glyph-name="K" unicode="K" horiz-adv-x="540" d="M27 0 L27 702 L135 702 L135 432 L189 432 L189 449 Q189 486 226 486 L243 486 L243 503 Q243 540 280 540 L297 540 L297 557 Q297 594 334 594 L351 594 L351 611 Q351 648 388 648 L405 648 L405 665 Q405 702 442 702 L513 702 L513 594 L459 594 L459 577 Q459 540 422 540 L405 540 L405 523 Q405 486 368 486 L351 486 L351 432 L297 432 L297 415 Q297 378 260 378 L243 378 L243 324 L260 324 Q297 324 297 287 L297 270 L351 270 L351 216 L368 216 Q405 216 405 179 L405 162 L422 162 Q459 162 459 125 L459 108 L513 108 L513 0 L442 0 Q405 0 405 37 L405 54 L388 54 Q351 54 351 91 L351 108 L334 108 Q297 108 297 145 L297 162 L280 162 Q243 162 243 199 L243 216 L226 216 Q189 216 189 253 L189 270 L135 270 L135 0 L27 0 Z " />
<glyph glyph-name="L" unicode="L" horiz-adv-x="486" d="M118 0 Q81 0 81 37 L81 54 L64 54 Q27 54 27 91 L27 702 L135 702 L135 108 L459 108 L459 0 L118 0 Z " />
<glyph glyph-name="M" unicode="M" horiz-adv-x="702" d="M27 0 L27 702 L135 702 L135 648 L152 648 Q189 648 189 611 L189 540 L206 540 Q243 540 243 503 L243 432 L260 432 Q297 432 297 395 L297 324 L405 324 L405 395 Q405 432 442 432 L459 432 L459 503 Q459 540 496 540 L513 540 L513 611 Q513 648 550 648 L567 648 L567 702 L675 702 L675 0 L567 0 L567 432 L513 432 L513 361 Q513 324 476 324 L459 324 L459 253 Q459 216 422 216 L405 216 L405 145 Q405 108 368 108 L334 108 Q297 108 297 145 L297 216 L280 216 Q243 216 243 253 L243 324 L226 324 Q189 324 189 361 L189 432 L135 432 L135 0 L27 0 Z " />
<glyph glyph-name="N" unicode="N" horiz-adv-x="594" d="M27 0 L27 702 L135 702 L135 648 L152 648 Q189 648 189 611 L189 540 L206 540 Q243 540 243 503 L243 486 L260 486 Q297 486 297 449 L297 378 L314 378 Q351 378 351 341 L351 324 L368 324 Q405 324 405 287 L405 216 L459 216 L459 702 L567 702 L567 0 L459 0 L459 54 L442 54 Q405 54 405 91 L405 108 L388 108 Q351 108 351 145 L351 162 L334 162 Q297 162 297 199 L297 270 L280 270 Q243 270 243 307 L243 324 L226 324 Q189 324 189 361 L189 432 L135 432 L135 0 L27 0 Z " />
<glyph glyph-name="O" unicode="O" horiz-adv-x="648" d="M226 0 Q189 0 189 37 L189 54 L172 54 Q135 54 135 91 L135 108 L118 108 Q81 108 81 145 L81 216 L64 216 Q27 216 27 253 L27 449 Q27 486 64 486 L81 486 L81 557 Q81 594 118 594 L135 594 L135 611 Q135 648 172 648 L189 648 L189 665 Q189 702 226 702 L422 702 Q459 702 459 665 L459 648 L476 648 Q513 648 513 611 L513 594 L530 594 Q567 594 567 557 L567 486 L584 486 Q621 486 621 449 L621 253 Q621 216 584 216 L567 216 L567 145 Q567 108 530 108 L513 108 L513 91 Q513 54 476 54 L459 54 L459 37 Q459 0 422 0 L226 0 Z M405 108 L405 125 Q405 162 442 162 L459 162 L459 233 Q459 270 496 270 L513 270 L513 432 L496 432 Q459 432 459 469 L459 540 L442 540 Q405 540 405 577 L405 594 L243 594 L243 577 Q243 540 206 540 L189 540 L189 469 Q189 432 152 432 L135 432 L135 270 L152 270 Q189 270 189 233 L189 162 L206 162 Q243 162 243 125 L243 108 L405 108 Z " />
<glyph glyph-name="P" unicode="P" horiz-adv-x="540" d="M27 0 L27 233 Q27 270 64 270 L81 270 L81 378 L64 378 Q27 378 27 415 L27 702 L368 702 Q405 702 405 665 L405 648 L422 648 Q459 648 459 611 L459 594 L476 594 Q513 594 513 557 L513 415 Q513 378 476 378 L459 378 L459 361 Q459 324 422 324 L405 324 L405 307 Q405 270 368 270 L135 270 L135 0 L27 0 Z M351 378 L351 395 Q351 432 388 432 L405 432 L405 540 L388 540 Q351 540 351 577 L351 594 L135 594 L135 378 L351 378 Z " />
<glyph glyph-name="Q" unicode="Q" horiz-adv-x="648" d="M226 0 Q189 0 189 37 L189 54 L172 54 Q135 54 135 91 L135 108 L118 108 Q81 108 81 145 L81 162 L64 162 Q27 162 27 199 L27 503 Q27 540 64 540 L81 540 L81 557 Q81 594 118 594 L135 594 L135 611 Q135 648 172 648 L189 648 L189 665 Q189 702 226 702 L422 702 Q459 702 459 665 L459 648 L476 648 Q513 648 513 611 L513 594 L530 594 Q567 594 567 557 L567 540 L584 540 Q621 540 621 503 L621 199 Q621 162 584 162 L567 162 L567 145 Q567 108 530 108 L513 108 L513 91 Q513 54 476 54 L459 54 L459 37 Q459 0 422 0 L405 0 L405 -54 L567 -54 L567 0 L621 0 L621 -71 Q621 -108 584 -108 L567 -108 L567 -125 Q567 -162 530 -162 L442 -162 Q405 -162 405 -125 L405 -108 L388 -108 Q351 -108 351 -71 L351 -54 L334 -54 Q297 -54 297 -17 L297 0 L226 0 Z M405 108 L405 125 Q405 162 442 162 L459 162 L459 179 Q459 216 496 216 L513 216 L513 486 L496 486 Q459 486 459 523 L459 540 L442 540 Q405 540 405 577 L405 594 L243 594 L243 577 Q243 540 206 540 L189 540 L189 523 Q189 486 152 486 L135 486 L135 216 L152 216 Q189 216 189 179 L189 162 L206 162 Q243 162 243 125 L243 108 L405 108 Z " />
<glyph glyph-name="R" unicode="R" horiz-adv-x="594" d="M27 0 L27 233 Q27 270 64 270 L81 270 L81 378 L64 378 Q27 378 27 415 L27 702 L422 702 Q459 702 459 665 L459 648 L476 648 Q513 648 513 611 L513 594 L530 594 Q567 594 567 557 L567 415 Q567 378 530 378 L513 378 L513 361 Q513 324 476 324 L459 324 L459 270 L476 270 Q513 270 513 233 L513 216 L530 216 Q567 216 567 179 L567 0 L459 0 L459 162 L442 162 Q405 162 405 199 L405 216 L388 216 Q351 216 351 253 L351 270 L135 270 L135 0 L27 0 Z M405 378 L405 395 Q405 432 442 432 L459 432 L459 540 L442 540 Q405 540 405 577 L405 594 L135 594 L135 378 L405 378 Z " />
<glyph glyph-name="S" unicode="S" horiz-adv-x="594" d="M118 54 Q81 54 81 91 L81 108 L64 108 Q27 108 27 145 L27 216 L135 216 L135 162 L152 162 Q189 162 189 125 L189 108 L405 108 L405 125 Q405 162 442 162 L459 162 L459 270 L405 270 L405 324 L172 324 Q135 324 135 361 L135 378 L118 378 Q81 378 81 415 L81 432 L64 432 Q27 432 27 469 L27 557 Q27 594 64 594 L81 594 L81 611 Q81 648 118 648 L135 648 L135 665 Q135 702 172 702 L422 702 Q459 702 459 665 L459 648 L476 648 Q513 648 513 611 L513 594 L530 594 Q567 594 567 557 L567 486 L459 486 L459 540 L442 540 Q405 540 405 577 L405 594 L189 594 L189 577 Q189 540 152 540 L135 540 L135 486 L152 486 Q189 486 189 449 L189 432 L422 432 Q459 432 459 395 L459 378 L476 378 Q513 378 513 341 L513 324 L530 324 Q567 324 567 287 L567 145 Q567 108 530 108 L513 108 L513 91 Q513 54 476 54 L459 54 L459 37 Q459 0 422 0 L172 0 Q135 0 135 37 L135 54 L118 54 Z " />
<glyph glyph-name="T" unicode="T" horiz-adv-x="594" d="M243 0 L243 594 L27 594 L27 702 L206 702 Q243 702 243 665 L243 648 L351 648 L351 665 Q351 702 388 702 L567 702 L567 594 L351 594 L351 0 L243 0 Z " />
<glyph glyph-name="U" unicode="U" horiz-adv-x="540" d="M118 54 Q81 54 81 91 L81 108 L64 108 Q27 108 27 145 L27 702 L135 702 L135 162 L152 162 Q189 162 189 125 L189 108 L351 108 L351 125 Q351 162 388 162 L405 162 L405 702 L513 702 L513 145 Q513 108 476 108 L459 108 L459 91 Q459 54 422 54 L405 54 L405 37 Q405 0 368 0 L172 0 Q135 0 135 37 L135 54 L118 54 Z " />
<glyph glyph-name="V" unicode="V" horiz-adv-x="702" d="M280 54 Q243 54 243 91 L243 162 L226 162 Q189 162 189 199 L189 270 L172 270 Q135 270 135 307 L135 432 L118 432 Q81 432 81 469 L81 540 L64 540 Q27 540 27 577 L27 702 L135 702 L135 540 L152 540 Q189 540 189 503 L189 432 L206 432 Q243 432 243 395 L243 270 L260 270 Q297 270 297 233 L297 162 L405 162 L405 233 Q405 270 442 270 L459 270 L459 395 Q459 432 496 432 L513 432 L513 503 Q513 540 550 540 L567 540 L567 702 L675 702 L675 577 Q675 540 638 540 L621 540 L621 469 Q621 432 584 432 L567 432 L567 307 Q567 270 530 270 L513 270 L513 199 Q513 162 476 162 L459 162 L459 91 Q459 54 422 54 L405 54 L405 37 Q405 0 368 0 L334 0 Q297 0 297 37 L297 54 L280 54 Z " />
<glyph glyph-name="W" unicode="W" horiz-adv-x="1026" d="M243 162 L226 162 Q189 162 189 199 L189 324 L172 324 Q135 324 135 361 L135 486 L118 486 Q81 486 81 523 L81 594 L64 594 Q27 594 27 631 L27 702 L135 702 L135 594 L152 594 Q189 594 189 557 L189 486 L206 486 Q243 486 243 449 L243 324 L351 324 L351 449 Q351 486 388 486 L405 486 L405 557 Q405 594 442 594 L459 594 L459 702 L567 702 L567 594 L584 594 Q621 594 621 557 L621 486 L638 486 Q675 486 675 449 L675 324 L783 324 L783 449 Q783 486 820 486 L837 486 L837 557 Q837 594 874 594 L891 594 L891 702 L999 702 L999 631 Q999 594 962 594 L945 594 L945 523 Q945 486 908 486 L891 486 L891 361 Q891 324 854 324 L837 324 L837 199 Q837 162 800 162 L783 162 L783 37 Q783 0 746 0 L712 0 Q675 0 675 37 L675 162 L658 162 Q621 162 621 199 L621 324 L604 324 Q567 324 567 361 L567 486 L459 486 L459 361 Q459 324 422 324 L405 324 L405 199 Q405 162 368 162 L351 162 L351 37 Q351 0 314 0 L280 0 Q243 0 243 37 L243 162 Z " />
<glyph glyph-name="X" unicode="X" horiz-adv-x="702" d="M27 0 L27 71 Q27 108 64 108 L81 108 L81 125 Q81 162 118 162 L135 162 L135 233 Q135 270 172 270 L189 270 L189 287 Q189 324 226 324 L243 324 L243 378 L226 378 Q189 378 189 415 L189 432 L172 432 Q135 432 135 469 L135 540 L118 540 Q81 540 81 577 L81 594 L64 594 Q27 594 27 631 L27 702 L135 702 L135 648 L152 648 Q189 648 189 611 L189 594 L206 594 Q243 594 243 557 L243 486 L260 486 Q297 486 297 449 L297 432 L405 432 L405 449 Q405 486 442 486 L459 486 L459 557 Q459 594 496 594 L513 594 L513 611 Q513 648 550 648 L567 648 L567 702 L675 702 L675 631 Q675 594 638 594 L621 594 L621 577 Q621 540 584 540 L567 540 L567 469 Q567 432 530 432 L513 432 L513 415 Q513 378 476 378 L459 378 L459 324 L476 324 Q513 324 513 287 L513 270 L530 270 Q567 270 567 233 L567 162 L584 162 Q621 162 621 125 L621 108 L638 108 Q675 108 675 71 L675 0 L567 0 L567 54 L550 54 Q513 54 513 91 L513 108 L496 108 Q459 108 459 145 L459 216 L442 216 Q405 216 405 253 L405 270 L297 270 L297 253 Q297 216 260 216 L243 216 L243 145 Q243 108 206 108 L189 108 L189 91 Q189 54 152 54 L135 54 L135 0 L27 0 Z " />
<glyph glyph-name="Y" unicode="Y" horiz-adv-x="702" d="M297 0 L297 324 L280 324 Q243 324 243 361 L243 378 L226 378 Q189 378 189 415 L189 432 L172 432 Q135 432 135 469 L135 540 L118 540 Q81 540 81 577 L81 594 L64 594 Q27 594 27 631 L27 702 L135 702 L135 648 L152 648 Q189 648 189 611 L189 594 L206 594 Q243 594 243 557 L243 486 L260 486 Q297 486 297 449 L297 432 L405 432 L405 449 Q405 486 442 486 L459 486 L459 557 Q459 594 496 594 L513 594 L513 611 Q513 648 550 648 L567 648 L567 702 L675 702 L675 631 Q675 594 638 594 L621 594 L621 577 Q621 540 584 540 L567 540 L567 469 Q567 432 530 432 L513 432 L513 415 Q513 378 476 378 L459 378 L459 361 Q459 324 422 324 L405 324 L405 0 L297 0 Z " />
<glyph glyph-name="Z" unicode="Z" horiz-adv-x="594" d="M64 0 Q27 0 27 37 L27 71 Q27 108 64 108 L81 108 L81 125 Q81 162 118 162 L135 162 L135 233 Q135 270 172 270 L189 270 L189 287 Q189 324 226 324 L243 324 L243 341 Q243 378 280 378 L297 378 L297 395 Q297 432 334 432 L351 432 L351 503 Q351 540 388 540 L405 540 L405 594 L27 594 L27 702 L530 702 Q567 702 567 665 L567 631 Q567 594 530 594 L513 594 L513 577 Q513 540 476 540 L459 540 L459 469 Q459 432 422 432 L405 432 L405 415 Q405 378 368 378 L351 378 L351 361 Q351 324 314 324 L297 324 L297 307 Q297 270 260 270 L243 270 L243 199 Q243 162 206 162 L189 162 L189 108 L567 108 L567 0 L64 0 Z " />
<glyph glyph-name="a" unicode="a" horiz-adv-x="486" d="M118 0 Q81 0 81 37 L81 54 L64 54 Q27 54 27 91 L27 179 Q27 216 64 216 L81 216 L81 233 Q81 270 118 270 L135 270 L135 287 Q135 324 172 324 L243 324 L243 341 Q243 378 280 378 L297 378 L297 432 L135 432 L135 378 L27 378 L27 449 Q27 486 64 486 L81 486 L81 503 Q81 540 118 540 L314 540 Q351 540 351 503 L351 486 L368 486 Q405 486 405 449 L405 108 L459 108 L459 0 L388 0 Q351 0 351 37 L351 54 L243 54 L243 37 Q243 0 206 0 L118 0 Z M243 108 L243 125 Q243 162 280 162 L297 162 L297 270 L243 270 L243 253 Q243 216 206 216 L189 216 L189 199 Q189 162 152 162 L135 162 L135 108 L243 108 Z " />
<glyph glyph-name="b" unicode="b" horiz-adv-x="540" d="M27 0 L27 702 L135 702 L135 432 L189 432 L189 449 Q189 486 226 486 L243 486 L243 503 Q243 540 280 540 L368 540 Q405 540 405 503 L405 486 L422 486 Q459 486 459 449 L459 432 L476 432 Q513 432 513 395 L513 145 Q513 108 476 108 L459 108 L459 91 Q459 54 422 54 L405 54 L405 37 Q405 0 368 0 L226 0 Q189 0 189 37 L189 54 L135 54 L135 0 L27 0 Z M351 125 Q351 162 388 162 L405 162 L405 378 L388 378 Q351 378 351 415 L351 432 L243 432 L243 415 Q243 378 206 378 L189 378 L189 361 Q189 324 152 324 L135 324 L135 162 L152 162 Q189 162 189 125 L189 108 L351 108 L351 125 Z " />
<glyph glyph-name="c" unicode="c" horiz-adv-x="540" d="M118 54 Q81 54 81 91 L81 162 L64 162 Q27 162 27 199 L27 341 Q27 378 64 378 L81 378 L81 449 Q81 486 118 486 L135 486 L135 503 Q135 540 172 540 L368 540 Q405 540 405 503 L405 486 L422 486 Q459 486 459 449 L459 432 L476 432 Q513 432 513 395 L513 324 L405 324 L405 378 L388 378 Q351 378 351 415 L351 432 L189 432 L189 415 Q189 378 152 378 L135 378 L135 162 L152 162 Q189 162 189 125 L189 108 L351 108 L351 125 Q351 162 388 162 L405 162 L405 216 L513 216 L513 145 Q513 108 476 108 L459 108 L459 91 Q459 54 422 54 L405 54 L405 37 Q405 0 368 0 L172 0 Q135 0 135 37 L135 54 L118 54 Z " />
<glyph glyph-name="d" unicode="d" horiz-adv-x="540" d="M118 54 Q81 54 81 91 L81 108 L64 108 Q27 108 27 145 L27 395 Q27 432 64 432 L81 432 L81 449 Q81 486 118 486 L135 486 L135 503 Q135 540 172 540 L314 540 Q351 540 351 503 L351 486 L405 486 L405 702 L513 702 L513 0 L405 0 L405 54 L351 54 L351 37 Q351 0 314 0 L172 0 Q135 0 135 37 L135 54 L118 54 Z M351 125 Q351 162 388 162 L405 162 L405 378 L388 378 Q351 378 351 415 L351 432 L189 432 L189 415 Q189 378 152 378 L135 378 L135 162 L152 162 Q189 162 189 125 L189 108 L351 108 L351 125 Z " />
<glyph glyph-name="e" unicode="e" horiz-adv-x="486" d="M118 54 Q81 54 81 91 L81 108 L64 108 Q27 108 27 145 L27 395 Q27 432 64 432 L81 432 L81 449 Q81 486 118 486 L135 486 L135 503 Q135 540 172 540 L314 540 Q351 540 351 503 L351 486 L368 486 Q405 486 405 449 L405 432 L422 432 Q459 432 459 395 L459 216 L135 216 L135 162 L189 162 L189 108 L297 108 L297 162 L459 162 L459 145 Q459 108 422 108 L405 108 L405 91 Q405 54 368 54 L351 54 L351 37 Q351 0 314 0 L172 0 Q135 0 135 37 L135 54 L118 54 Z M351 324 L351 378 L334 378 Q297 378 297 415 L297 432 L189 432 L189 415 Q189 378 152 378 L135 378 L135 324 L351 324 Z " />
<glyph glyph-name="f" unicode="f" horiz-adv-x="378" d="M135 0 L135 432 L27 432 L27 540 L135 540 L135 611 Q135 648 172 648 L189 648 L189 665 Q189 702 226 702 L351 702 L351 594 L243 594 L243 540 L351 540 L351 432 L243 432 L243 0 L135 0 Z " />
<glyph glyph-name="g" unicode="g" horiz-adv-x="540" d="M81 0 L81 71 Q81 108 118 108 L135 108 L135 125 Q135 162 172 162 L189 162 L189 216 L172 216 Q135 216 135 253 L135 270 L118 270 Q81 270 81 307 L81 395 Q81 432 118 432 L135 432 L135 449 Q135 486 172 486 L189 486 L189 503 Q189 540 226 540 L513 540 L513 432 L405 432 L405 378 L422 378 Q459 378 459 341 L459 307 Q459 270 422 270 L405 270 L405 253 Q405 216 368 216 L351 216 L351 199 Q351 162 314 162 L297 162 L297 145 Q297 108 260 108 L243 108 L243 54 L422 54 Q459 54 459 17 L459 0 L476 0 Q513 0 513 -37 L513 -125 Q513 -162 476 -162 L459 -162 L459 -179 Q459 -216 422 -216 L118 -216 Q81 -216 81 -179 L81 -162 L64 -162 Q27 -162 27 -125 L27 -37 Q27 0 64 0 L81 0 Z M297 270 L297 287 Q297 324 334 324 L351 324 L351 378 L334 378 Q297 378 297 415 L297 432 L243 432 L243 415 Q243 378 206 378 L189 378 L189 324 L206 324 Q243 324 243 287 L243 270 L297 270 Z M405 -108 L405 -54 L135 -54 L135 -108 L405 -108 Z " />
<glyph glyph-name="h" unicode="h" horiz-adv-x="486" d="M27 0 L27 702 L135 702 L135 486 L189 486 L189 503 Q189 540 226 540 L314 540 Q351 540 351 503 L351 486 L368 486 Q405 486 405 449 L405 432 L422 432 Q459 432 459 395 L459 0 L351 0 L351 378 L334 378 Q297 378 297 415 L297 432 L243 432 L243 415 Q243 378 206 378 L189 378 L189 361 Q189 324 152 324 L135 324 L135 0 L27 0 Z " />
<glyph glyph-name="i" unicode="i" horiz-adv-x="162" d="M27 0 L27 540 L135 540 L135 0 L27 0 Z M27 594 L27 702 L135 702 L135 594 L27 594 Z " />
<glyph glyph-name="j" unicode="j" horiz-adv-x="162" d="M135 -71 Q135 -108 98 -108 L81 -108 L81 -125 Q81 -162 44 -162 L-135 -162 L-135 -54 L27 -54 L27 540 L135 540 L135 -71 Z M27 594 L27 702 L135 702 L135 594 L27 594 Z " />
<glyph glyph-name="k" unicode="k" horiz-adv-x="486" d="M27 0 L27 702 L135 702 L135 324 L189 324 L189 378 L243 378 L243 432 L297 432 L297 486 L351 486 L351 540 L459 540 L459 432 L405 432 L405 378 L351 378 L351 324 L297 324 L297 270 L351 270 L351 216 L405 216 L405 162 L459 162 L459 0 L351 0 L351 108 L297 108 L297 162 L243 162 L243 216 L189 216 L189 162 L135 162 L135 0 L27 0 Z " />
<glyph glyph-name="l" unicode="l" horiz-adv-x="216" d="M118 0 Q81 0 81 37 L81 54 L64 54 Q27 54 27 91 L27 702 L135 702 L135 108 L189 108 L189 0 L118 0 Z " />
<glyph glyph-name="m" unicode="m" horiz-adv-x="702" d="M27 0 L27 540 L135 540 L135 486 L189 486 L189 503 Q189 540 226 540 L260 540 Q297 540 297 503 L297 486 L314 486 Q351 486 351 449 L351 432 L405 432 L405 449 Q405 486 442 486 L459 486 L459 503 Q459 540 496 540 L530 540 Q567 540 567 503 L567 486 L584 486 Q621 486 621 449 L621 432 L638 432 Q675 432 675 395 L675 0 L567 0 L567 378 L550 378 Q513 378 513 415 L513 432 L459 432 L459 415 Q459 378 422 378 L405 378 L405 0 L297 0 L297 378 L280 378 Q243 378 243 415 L243 432 L189 432 L189 415 Q189 378 152 378 L135 378 L135 0 L27 0 Z " />
<glyph glyph-name="n" unicode="n" horiz-adv-x="486" d="M27 0 L27 540 L135 540 L135 486 L189 486 L189 503 Q189 540 226 540 L314 540 Q351 540 351 503 L351 486 L368 486 Q405 486 405 449 L405 432 L422 432 Q459 432 459 395 L459 0 L351 0 L351 378 L334 378 Q297 378 297 415 L297 432 L189 432 L189 415 Q189 378 152 378 L135 378 L135 0 L27 0 Z " />
<glyph glyph-name="o" unicode="o" horiz-adv-x="486" d="M118 54 Q81 54 81 91 L81 108 L64 108 Q27 108 27 145 L27 395 Q27 432 64 432 L81 432 L81 449 Q81 486 118 486 L135 486 L135 503 Q135 540 172 540 L314 540 Q351 540 351 503 L351 486 L368 486 Q405 486 405 449 L405 432 L422 432 Q459 432 459 395 L459 145 Q459 108 422 108 L405 108 L405 91 Q405 54 368 54 L351 54 L351 37 Q351 0 314 0 L172 0 Q135 0 135 37 L135 54 L118 54 Z M297 125 Q297 162 334 162 L351 162 L351 378 L334 378 Q297 378 297 415 L297 432 L189 432 L189 415 Q189 378 152 378 L135 378 L135 162 L152 162 Q189 162 189 125 L189 108 L297 108 L297 125 Z " />
<glyph glyph-name="p" unicode="p" horiz-adv-x="486" d="M27 -216 L27 540 L135 540 L135 486 L189 486 L189 503 Q189 540 226 540 L314 540 Q351 540 351 503 L351 486 L368 486 Q405 486 405 449 L405 432 L422 432 Q459 432 459 395 L459 145 Q459 108 422 108 L405 108 L405 91 Q405 54 368 54 L351 54 L351 37 Q351 0 314 0 L226 0 Q189 0 189 37 L189 54 L135 54 L135 -216 L27 -216 Z M297 108 L297 125 Q297 162 334 162 L351 162 L351 378 L334 378 Q297 378 297 415 L297 432 L189 432 L189 415 Q189 378 152 378 L135 378 L135 162 L152 162 Q189 162 189 125 L189 108 L297 108 Z " />
<glyph glyph-name="q" unicode="q" horiz-adv-x="486" d="M118 54 Q81 54 81 91 L81 108 L64 108 Q27 108 27 145 L27 395 Q27 432 64 432 L81 432 L81 449 Q81 486 118 486 L135 486 L135 503 Q135 540 172 540 L260 540 Q297 540 297 503 L297 486 L351 486 L351 540 L459 540 L459 -216 L351 -216 L351 54 L297 54 L297 37 Q297 0 260 0 L172 0 Q135 0 135 37 L135 54 L118 54 Z M297 125 Q297 162 334 162 L351 162 L351 378 L334 378 Q297 378 297 415 L297 432 L189 432 L189 415 Q189 378 152 378 L135 378 L135 162 L152 162 Q189 162 189 125 L189 108 L297 108 L297 125 Z " />
<glyph glyph-name="r" unicode="r" horiz-adv-x="378" d="M27 0 L27 540 L135 540 L135 486 L189 486 L189 503 Q189 540 226 540 L260 540 Q297 540 297 503 L297 486 L314 486 Q351 486 351 449 L351 378 L243 378 L243 432 L189 432 L189 415 Q189 378 152 378 L135 378 L135 0 L27 0 Z " />
<glyph glyph-name="s" unicode="s" horiz-adv-x="486" d="M118 54 Q81 54 81 91 L81 108 L64 108 Q27 108 27 145 L27 216 L135 216 L135 162 L152 162 Q189 162 189 125 L189 108 L351 108 L351 162 L334 162 Q297 162 297 199 L297 216 L226 216 Q189 216 189 253 L189 270 L118 270 Q81 270 81 307 L81 324 L64 324 Q27 324 27 361 L27 395 Q27 432 64 432 L81 432 L81 449 Q81 486 118 486 L135 486 L135 503 Q135 540 172 540 L314 540 Q351 540 351 503 L351 486 L368 486 Q405 486 405 449 L405 432 L422 432 Q459 432 459 395 L459 324 L351 324 L351 378 L334 378 Q297 378 297 415 L297 432 L135 432 L135 378 L152 378 Q189 378 189 341 L189 324 L260 324 Q297 324 297 287 L297 270 L368 270 Q405 270 405 233 L405 216 L422 216 Q459 216 459 179 L459 145 Q459 108 422 108 L405 108 L405 91 Q405 54 368 54 L351 54 L351 37 Q351 0 314 0 L172 0 Q135 0 135 37 L135 54 L118 54 Z " />
<glyph glyph-name="t" unicode="t" horiz-adv-x="432" d="M226 0 Q189 0 189 37 L189 54 L172 54 Q135 54 135 91 L135 432 L27 432 L27 540 L135 540 L135 702 L243 702 L243 540 L405 540 L405 432 L243 432 L243 108 L297 108 L297 162 L405 162 L405 91 Q405 54 368 54 L351 54 L351 37 Q351 0 314 0 L226 0 Z " />
<glyph glyph-name="u" unicode="u" horiz-adv-x="486" d="M118 54 Q81 54 81 91 L81 108 L64 108 Q27 108 27 145 L27 540 L135 540 L135 162 L152 162 Q189 162 189 125 L189 108 L297 108 L297 125 Q297 162 334 162 L351 162 L351 540 L459 540 L459 0 L351 0 L351 54 L297 54 L297 37 Q297 0 260 0 L172 0 Q135 0 135 37 L135 54 L118 54 Z " />
<glyph glyph-name="v" unicode="v" horiz-adv-x="594" d="M243 108 L226 108 Q189 108 189 145 L189 216 L172 216 Q135 216 135 253 L135 324 L118 324 Q81 324 81 361 L81 432 L64 432 Q27 432 27 469 L27 540 L135 540 L135 432 L152 432 Q189 432 189 395 L189 324 L206 324 Q243 324 243 287 L243 216 L351 216 L351 287 Q351 324 388 324 L405 324 L405 395 Q405 432 442 432 L459 432 L459 540 L567 540 L567 469 Q567 432 530 432 L513 432 L513 361 Q513 324 476 324 L459 324 L459 253 Q459 216 422 216 L405 216 L405 108 L351 108 L351 37 Q351 0 314 0 L280 0 Q243 0 243 37 L243 108 Z " />
<glyph glyph-name="w" unicode="w" horiz-adv-x="810" d="M226 0 Q189 0 189 37 L189 108 L172 108 Q135 108 135 145 L135 270 L118 270 Q81 270 81 307 L81 378 L64 378 Q27 378 27 415 L27 540 L135 540 L135 378 L152 378 Q189 378 189 341 L189 270 L297 270 L297 341 Q297 378 334 378 L351 378 L351 540 L459 540 L459 378 L476 378 Q513 378 513 341 L513 270 L621 270 L621 341 Q621 378 658 378 L675 378 L675 540 L783 540 L783 415 Q783 378 746 378 L729 378 L729 307 Q729 270 692 270 L675 270 L675 145 Q675 108 638 108 L621 108 L621 37 Q621 0 584 0 L550 0 Q513 0 513 37 L513 108 L496 108 Q459 108 459 145 L459 270 L351 270 L351 145 Q351 108 314 108 L297 108 L297 37 Q297 0 260 0 L226 0 Z " />
<glyph glyph-name="x" unicode="x" horiz-adv-x="486" d="M27 0 L27 125 Q27 162 64 162 L81 162 L81 179 Q81 216 118 216 L135 216 L135 324 L118 324 Q81 324 81 361 L81 432 L64 432 Q27 432 27 469 L27 540 L135 540 L135 432 L152 432 Q189 432 189 395 L189 378 L297 378 L297 395 Q297 432 334 432 L351 432 L351 540 L459 540 L459 469 Q459 432 422 432 L405 432 L405 361 Q405 324 368 324 L351 324 L351 216 L368 216 Q405 216 405 179 L405 162 L422 162 Q459 162 459 125 L459 0 L351 0 L351 108 L334 108 Q297 108 297 145 L297 216 L189 216 L189 145 Q189 108 152 108 L135 108 L135 0 L27 0 Z " />
<glyph glyph-name="y" unicode="y" horiz-adv-x="594" d="M189 37 L189 108 L172 108 Q135 108 135 145 L135 270 L118 270 Q81 270 81 307 L81 378 L64 378 Q27 378 27 415 L27 540 L135 540 L135 378 L152 378 Q189 378 189 341 L189 270 L206 270 Q243 270 243 233 L243 108 L351 108 L351 233 Q351 270 388 270 L405 270 L405 341 Q405 378 442 378 L459 378 L459 540 L567 540 L567 415 Q567 378 530 378 L513 378 L513 307 Q513 270 476 270 L459 270 L459 145 Q459 108 422 108 L405 108 L405 37 Q405 0 368 0 L351 0 L351 -71 Q351 -108 314 -108 L297 -108 L297 -125 Q297 -162 260 -162 L243 -162 L243 -179 Q243 -216 206 -216 L118 -216 Q81 -216 81 -179 L81 -162 L64 -162 Q27 -162 27 -125 L27 -54 L135 -54 L135 -108 L189 -108 L189 -91 Q189 -54 226 -54 L243 -54 L243 0 L226 0 Q189 0 189 37 Z " />
<glyph glyph-name="z" unicode="z" horiz-adv-x="432" d="M64 0 Q27 0 27 37 L27 125 Q27 162 64 162 L81 162 L81 179 Q81 216 118 216 L135 216 L135 233 Q135 270 172 270 L189 270 L189 287 Q189 324 226 324 L243 324 L243 341 Q243 378 280 378 L297 378 L297 432 L27 432 L27 540 L368 540 Q405 540 405 503 L405 361 Q405 324 368 324 L351 324 L351 307 Q351 270 314 270 L297 270 L297 253 Q297 216 260 216 L243 216 L243 199 Q243 162 206 162 L189 162 L189 108 L405 108 L405 0 L64 0 Z " />
</font>
</svg>
